%TF.GenerationSoftware,KiCad,Pcbnew,8.0.6*%
%TF.CreationDate,2024-12-18T16:17:05-08:00*%
%TF.ProjectId,pico-analyzer,7069636f-2d61-46e6-916c-797a65722e6b,1.0*%
%TF.SameCoordinates,Original*%
%TF.FileFunction,Copper,L3,Inr*%
%TF.FilePolarity,Positive*%
%FSLAX46Y46*%
G04 Gerber Fmt 4.6, Leading zero omitted, Abs format (unit mm)*
G04 Created by KiCad (PCBNEW 8.0.6) date 2024-12-18 16:17:05*
%MOMM*%
%LPD*%
G01*
G04 APERTURE LIST*
%TA.AperFunction,ComponentPad*%
%ADD10O,1.000000X1.800000*%
%TD*%
%TA.AperFunction,ComponentPad*%
%ADD11O,1.000000X2.200000*%
%TD*%
%TA.AperFunction,ComponentPad*%
%ADD12R,1.700000X1.700000*%
%TD*%
%TA.AperFunction,ComponentPad*%
%ADD13O,1.700000X1.700000*%
%TD*%
%TA.AperFunction,ComponentPad*%
%ADD14C,1.700000*%
%TD*%
%TA.AperFunction,ComponentPad*%
%ADD15R,1.300000X1.300000*%
%TD*%
%TA.AperFunction,ComponentPad*%
%ADD16C,1.300000*%
%TD*%
%TA.AperFunction,ComponentPad*%
%ADD17C,1.800000*%
%TD*%
%TA.AperFunction,ViaPad*%
%ADD18C,0.600000*%
%TD*%
%TA.AperFunction,Conductor*%
%ADD19C,0.200000*%
%TD*%
G04 APERTURE END LIST*
D10*
%TO.N,GND*%
%TO.C,J5*%
X119890000Y-56901200D03*
D11*
X119890000Y-52901200D03*
D10*
X111250000Y-56901200D03*
D11*
X111250000Y-52901200D03*
%TD*%
D12*
%TO.N,/Level Translation/C0*%
%TO.C,J1*%
X88890000Y-120396000D03*
D13*
%TO.N,/Level Translation/C1*%
X88890000Y-122936000D03*
%TO.N,/Level Translation/C2*%
X91430000Y-120396000D03*
%TO.N,/Level Translation/C3*%
X91430000Y-122936000D03*
%TO.N,/Level Translation/C4*%
X93970000Y-120396000D03*
%TO.N,/Level Translation/C5*%
X93970000Y-122936000D03*
D14*
%TO.N,GND*%
X96510000Y-120396000D03*
D13*
%TO.N,V_{in}*%
X96510000Y-122936000D03*
%TD*%
D12*
%TO.N,/Level Translation/C18*%
%TO.C,J4*%
X134610000Y-120396000D03*
D13*
%TO.N,/Level Translation/C19*%
X134610000Y-122936000D03*
%TO.N,/Level Translation/C20*%
X137150000Y-120396000D03*
%TO.N,/Level Translation/C21*%
X137150000Y-122936000D03*
%TO.N,/Level Translation/C22*%
X139690000Y-120396000D03*
%TO.N,/Level Translation/C23*%
X139690000Y-122936000D03*
D14*
%TO.N,GND*%
X142230000Y-120396000D03*
D13*
%TO.N,V_{in}*%
X142230000Y-122936000D03*
%TD*%
D12*
%TO.N,/Level Translation/C6*%
%TO.C,J2*%
X104130000Y-120396000D03*
D13*
%TO.N,/Level Translation/C7*%
X104130000Y-122936000D03*
%TO.N,/Level Translation/C8*%
X106670000Y-120396000D03*
%TO.N,/Level Translation/C9*%
X106670000Y-122936000D03*
%TO.N,/Level Translation/C10*%
X109210000Y-120396000D03*
%TO.N,/Level Translation/C11*%
X109210000Y-122936000D03*
D14*
%TO.N,GND*%
X111750000Y-120396000D03*
D13*
%TO.N,V_{in}*%
X111750000Y-122936000D03*
%TD*%
D12*
%TO.N,/Level Translation/C12*%
%TO.C,J3*%
X119370000Y-120396000D03*
D13*
%TO.N,/Level Translation/C13*%
X119370000Y-122936000D03*
%TO.N,/Level Translation/C14*%
X121910000Y-120396000D03*
%TO.N,/Level Translation/C15*%
X121910000Y-122936000D03*
%TO.N,/Level Translation/C16*%
X124450000Y-120396000D03*
%TO.N,/Level Translation/C17*%
X124450000Y-122936000D03*
D14*
%TO.N,GND*%
X126990000Y-120396000D03*
D13*
%TO.N,V_{in}*%
X126990000Y-122936000D03*
%TD*%
D15*
%TO.N,V_{in}*%
%TO.C,SW1*%
X139255000Y-54950000D03*
D16*
%TO.N,V_{ref}*%
X135255000Y-54950000D03*
%TO.N,+3V3*%
X133255000Y-54950000D03*
%TO.N,+5V*%
X131255000Y-54950000D03*
%TO.N,V_{in}*%
X139255000Y-57450000D03*
%TO.N,V_{ref}*%
X135255000Y-57450000D03*
%TO.N,+3V3*%
X133255000Y-57450000D03*
%TO.N,+5V*%
X131255000Y-57450000D03*
D17*
%TO.N,N/C*%
X141355000Y-56200000D03*
X129155000Y-56200000D03*
%TD*%
D18*
%TO.N,+5V*%
X117348000Y-58928000D03*
X120142000Y-62230000D03*
X113157000Y-59690000D03*
X113792000Y-58928000D03*
X113157000Y-58928000D03*
X117983000Y-59690000D03*
X113792000Y-59690000D03*
X120142000Y-62992000D03*
X90805000Y-60579000D03*
X117348000Y-59690000D03*
X117983000Y-58928000D03*
X90805000Y-61468000D03*
X121031000Y-62230000D03*
X121031000Y-62992000D03*
%TO.N,GND*%
X112014000Y-108204000D03*
X104140000Y-101346000D03*
X90805000Y-64389000D03*
X112141000Y-58928000D03*
X111379000Y-58928000D03*
X120523000Y-59690000D03*
X104140000Y-106426000D03*
X110617000Y-59690000D03*
X134620000Y-100838000D03*
X94234000Y-105664000D03*
X134620000Y-98806000D03*
X112141000Y-59690000D03*
X142494000Y-105664000D03*
X87249000Y-64389000D03*
X95250000Y-102108000D03*
X110617000Y-58928000D03*
X133604000Y-105918000D03*
X133604000Y-106934000D03*
X86233000Y-64389000D03*
X120523000Y-58928000D03*
X124079000Y-62230000D03*
X119761000Y-59690000D03*
X95250000Y-107188000D03*
X86360000Y-98806000D03*
X103124000Y-105918000D03*
X95250000Y-100076000D03*
X104140000Y-103378000D03*
X111379000Y-59690000D03*
X86360000Y-100838000D03*
X124079000Y-62992000D03*
X103124000Y-106934000D03*
X90805000Y-62738000D03*
X124714000Y-108204000D03*
X134620000Y-105918000D03*
X116840000Y-106426000D03*
X116840000Y-108458000D03*
X124714000Y-107188000D03*
X94234000Y-104648000D03*
X125730000Y-105156000D03*
X118999000Y-59690000D03*
X86360000Y-105918000D03*
X125730000Y-100076000D03*
X95250000Y-105156000D03*
X118999000Y-58928000D03*
X86360000Y-103886000D03*
X134620000Y-103886000D03*
X104140000Y-108458000D03*
X124968000Y-62230000D03*
X142494000Y-104648000D03*
X125730000Y-107188000D03*
X112014000Y-107188000D03*
X119761000Y-58928000D03*
X124968000Y-62992000D03*
X125730000Y-102108000D03*
%TO.N,+3V3*%
X88646000Y-98806000D03*
X127254000Y-100076000D03*
X118110000Y-62230000D03*
X105664000Y-101346000D03*
X118110000Y-62992000D03*
X128016000Y-100076000D03*
X118999000Y-62992000D03*
X118999000Y-62230000D03*
X136144000Y-98806000D03*
X106426000Y-101346000D03*
X119126000Y-101346000D03*
X87884000Y-98806000D03*
X97536000Y-100076000D03*
X114300000Y-101346000D03*
X136906000Y-98806000D03*
X141351000Y-97536000D03*
X96774000Y-100076000D03*
X118364000Y-101346000D03*
%TO.N,V_{ref}*%
X136144000Y-105918000D03*
X88646000Y-105918000D03*
X105664000Y-108458000D03*
X128016000Y-107188000D03*
X106426000Y-108458000D03*
X87884000Y-105918000D03*
X118364000Y-108458000D03*
X96774000Y-107188000D03*
X119126000Y-108458000D03*
X127254000Y-107188000D03*
X136906000Y-105918000D03*
X97536000Y-107188000D03*
%TD*%
D19*
%TO.N,+3V3*%
X138176000Y-97536000D02*
X141351000Y-97536000D01*
X138176000Y-97536000D02*
G75*
G03*
X136906000Y-98806000I0J-1270000D01*
G01*
%TD*%
%TA.AperFunction,Conductor*%
%TO.N,V_{ref}*%
G36*
X135652865Y-53867685D02*
G01*
X135673595Y-53884406D01*
X136099888Y-54311588D01*
X136133309Y-54372946D01*
X136136115Y-54399436D01*
X136107175Y-68296137D01*
X136459684Y-69149683D01*
X136459688Y-69149688D01*
X144790005Y-77480005D01*
X144816885Y-77520233D01*
X145151561Y-78328212D01*
X145161000Y-78375665D01*
X145161000Y-108541638D01*
X145141315Y-108608677D01*
X145124681Y-108629319D01*
X144697319Y-109056681D01*
X144635996Y-109090166D01*
X144609638Y-109093000D01*
X137541000Y-109093000D01*
X137541000Y-107315000D01*
X142883000Y-107315000D01*
X143383000Y-106815000D01*
X143383000Y-79357237D01*
X143026717Y-78506435D01*
X143026715Y-78506432D01*
X134765435Y-70372250D01*
X134738059Y-70331790D01*
X134401024Y-69526951D01*
X134391400Y-69479055D01*
X134391400Y-54399362D01*
X134411085Y-54332323D01*
X134427719Y-54311681D01*
X134855081Y-53884319D01*
X134916404Y-53850834D01*
X134942762Y-53848000D01*
X135585826Y-53848000D01*
X135652865Y-53867685D01*
G37*
%TD.AperFunction*%
%TD*%
%TA.AperFunction,Conductor*%
%TO.N,V_{in}*%
G36*
X127531677Y-121939685D02*
G01*
X127552319Y-121956319D01*
X127979681Y-122383681D01*
X128013166Y-122445004D01*
X128016000Y-122471362D01*
X128016000Y-124206000D01*
X127516000Y-124206000D01*
X126484000Y-124206000D01*
X125984000Y-124206000D01*
X125984000Y-122471362D01*
X126003685Y-122404323D01*
X126020319Y-122383681D01*
X126447681Y-121956319D01*
X126509004Y-121922834D01*
X126535362Y-121920000D01*
X127464638Y-121920000D01*
X127531677Y-121939685D01*
G37*
%TD.AperFunction*%
%TD*%
%TA.AperFunction,Conductor*%
%TO.N,+5V*%
G36*
X131570277Y-53867685D02*
G01*
X131590919Y-53884319D01*
X132018281Y-54311681D01*
X132051766Y-54373004D01*
X132054600Y-54399362D01*
X132054600Y-61043638D01*
X132034915Y-61110677D01*
X132018281Y-61131319D01*
X131590919Y-61558681D01*
X131529596Y-61592166D01*
X131503238Y-61595000D01*
X121911999Y-61595000D01*
X121412000Y-62094999D01*
X121412000Y-62821638D01*
X121392315Y-62888677D01*
X121375681Y-62909319D01*
X120948319Y-63336681D01*
X120886996Y-63370166D01*
X120860638Y-63373000D01*
X120312362Y-63373000D01*
X120245323Y-63353315D01*
X120224681Y-63336681D01*
X119797319Y-62909319D01*
X119763834Y-62847996D01*
X119761000Y-62821638D01*
X119761000Y-62095000D01*
X119261000Y-61595000D01*
X118364000Y-61595000D01*
X117348000Y-61595000D01*
X117348000Y-59690000D01*
X118364000Y-59690000D01*
X118364000Y-60007500D01*
X118681500Y-60325000D01*
X129954400Y-60325000D01*
X130454400Y-59825000D01*
X130454400Y-54399362D01*
X130474085Y-54332323D01*
X130490719Y-54311681D01*
X130918081Y-53884319D01*
X130979404Y-53850834D01*
X131005762Y-53848000D01*
X131503238Y-53848000D01*
X131570277Y-53867685D01*
G37*
%TD.AperFunction*%
%TD*%
%TA.AperFunction,Conductor*%
%TO.N,+5V*%
G36*
X114173000Y-61595000D02*
G01*
X92773500Y-61595000D01*
X92414174Y-61954326D01*
X92361848Y-61976000D01*
X89303652Y-61976000D01*
X89251326Y-61954326D01*
X88794674Y-61497674D01*
X88773000Y-61445348D01*
X88773000Y-60601652D01*
X88794674Y-60549326D01*
X89251326Y-60092674D01*
X89303652Y-60071000D01*
X92298348Y-60071000D01*
X92350674Y-60092674D01*
X92583000Y-60325000D01*
X92837000Y-60579000D01*
X112276000Y-60579000D01*
X112331500Y-60579000D01*
X112776000Y-60134500D01*
X112776000Y-59690000D01*
X114173000Y-59690000D01*
X114173000Y-61595000D01*
G37*
%TD.AperFunction*%
%TD*%
%TA.AperFunction,Conductor*%
%TO.N,V_{in}*%
G36*
X143256000Y-125984000D02*
G01*
X142756000Y-125984000D01*
X96055362Y-125984000D01*
X95988323Y-125964315D01*
X95967681Y-125947681D01*
X95540319Y-125520319D01*
X95506834Y-125458996D01*
X95504000Y-125432638D01*
X95504000Y-124206000D01*
X143256000Y-124206000D01*
X143256000Y-125984000D01*
G37*
%TD.AperFunction*%
%TD*%
%TA.AperFunction,Conductor*%
%TO.N,+3V3*%
G36*
X133576877Y-53867685D02*
G01*
X133597519Y-53884319D01*
X134024881Y-54311681D01*
X134058366Y-54373004D01*
X134061200Y-54399362D01*
X134061200Y-64726638D01*
X134041515Y-64793677D01*
X134024881Y-64814319D01*
X133597519Y-65241681D01*
X133536196Y-65275166D01*
X133509838Y-65278000D01*
X119879999Y-65278000D01*
X119380000Y-65777999D01*
X119380000Y-65778000D01*
X119380000Y-66802000D01*
X118880000Y-66802000D01*
X118229000Y-66802000D01*
X117747683Y-66802000D01*
X117748405Y-66798334D01*
X117731834Y-66767986D01*
X117729000Y-66741628D01*
X117729000Y-62146362D01*
X117748685Y-62079323D01*
X117765319Y-62058681D01*
X117937181Y-61886819D01*
X117998504Y-61853334D01*
X118024862Y-61850500D01*
X119084138Y-61850500D01*
X119151177Y-61870185D01*
X119171819Y-61886819D01*
X119343681Y-62058681D01*
X119377166Y-62120004D01*
X119380000Y-62146362D01*
X119380000Y-63127000D01*
X119880000Y-63627000D01*
X120293061Y-63627000D01*
X120310705Y-63628262D01*
X120311760Y-63628413D01*
X120312362Y-63628500D01*
X120312365Y-63628500D01*
X120860639Y-63628500D01*
X120865078Y-63628262D01*
X120885307Y-63627177D01*
X120891936Y-63627000D01*
X131935600Y-63627000D01*
X132435600Y-63127000D01*
X132435600Y-54399362D01*
X132455285Y-54332323D01*
X132471919Y-54311681D01*
X132899281Y-53884319D01*
X132960604Y-53850834D01*
X132986962Y-53848000D01*
X133509838Y-53848000D01*
X133576877Y-53867685D01*
G37*
%TD.AperFunction*%
%TD*%
%TA.AperFunction,Conductor*%
%TO.N,V_{in}*%
G36*
X112291677Y-121939685D02*
G01*
X112312319Y-121956319D01*
X112739681Y-122383681D01*
X112773166Y-122445004D01*
X112776000Y-122471362D01*
X112776000Y-124206000D01*
X112276000Y-124206000D01*
X111244000Y-124206000D01*
X110744000Y-124206000D01*
X110744000Y-122471362D01*
X110763685Y-122404323D01*
X110780319Y-122383681D01*
X111207681Y-121956319D01*
X111269004Y-121922834D01*
X111295362Y-121920000D01*
X112224638Y-121920000D01*
X112291677Y-121939685D01*
G37*
%TD.AperFunction*%
%TD*%
%TA.AperFunction,Conductor*%
%TO.N,V_{ref}*%
G36*
X93677419Y-105302685D02*
G01*
X93723174Y-105355489D01*
X93733118Y-105424647D01*
X93724941Y-105454452D01*
X93697671Y-105520287D01*
X93697670Y-105520291D01*
X93678750Y-105664000D01*
X93693270Y-105774292D01*
X93697670Y-105807708D01*
X93697671Y-105807712D01*
X93753137Y-105941622D01*
X93753138Y-105941624D01*
X93753139Y-105941625D01*
X93841379Y-106056621D01*
X93956375Y-106144861D01*
X93956376Y-106144861D01*
X93956377Y-106144862D01*
X94001013Y-106163350D01*
X94090291Y-106200330D01*
X94217280Y-106217048D01*
X94233999Y-106219250D01*
X94234000Y-106219250D01*
X94234001Y-106219250D01*
X94248977Y-106217278D01*
X94377709Y-106200330D01*
X94511625Y-106144861D01*
X94626621Y-106056621D01*
X94714861Y-105941625D01*
X94770330Y-105807709D01*
X94781283Y-105724508D01*
X94809549Y-105660613D01*
X94867874Y-105622142D01*
X94937738Y-105621311D01*
X94966226Y-105633310D01*
X94972370Y-105636857D01*
X94972375Y-105636861D01*
X95106291Y-105692330D01*
X95233280Y-105709048D01*
X95249999Y-105711250D01*
X95250000Y-105711250D01*
X95250001Y-105711250D01*
X95264977Y-105709278D01*
X95393709Y-105692330D01*
X95527625Y-105636861D01*
X95642621Y-105548621D01*
X95730861Y-105433625D01*
X95761545Y-105359544D01*
X95805384Y-105305145D01*
X95871678Y-105283079D01*
X95876105Y-105283000D01*
X102681962Y-105283000D01*
X102749001Y-105302685D01*
X102794756Y-105355489D01*
X102804700Y-105424647D01*
X102775675Y-105488203D01*
X102757451Y-105505373D01*
X102749376Y-105511568D01*
X102731380Y-105525377D01*
X102643137Y-105640377D01*
X102587671Y-105774287D01*
X102587670Y-105774291D01*
X102568750Y-105917999D01*
X102568750Y-105918000D01*
X102587670Y-106061708D01*
X102587671Y-106061712D01*
X102643137Y-106195622D01*
X102643138Y-106195624D01*
X102643139Y-106195625D01*
X102731379Y-106310621D01*
X102731382Y-106310623D01*
X102753539Y-106327626D01*
X102794741Y-106384054D01*
X102798894Y-106453800D01*
X102764681Y-106514720D01*
X102753539Y-106524374D01*
X102731382Y-106541376D01*
X102731380Y-106541377D01*
X102731379Y-106541379D01*
X102678435Y-106610376D01*
X102643137Y-106656377D01*
X102587671Y-106790287D01*
X102587670Y-106790291D01*
X102568750Y-106933999D01*
X102568750Y-106934000D01*
X102587670Y-107077708D01*
X102587671Y-107077712D01*
X102643137Y-107211622D01*
X102643138Y-107211624D01*
X102643139Y-107211625D01*
X102731379Y-107326621D01*
X102846375Y-107414861D01*
X102980291Y-107470330D01*
X103107280Y-107487048D01*
X103123999Y-107489250D01*
X103124000Y-107489250D01*
X103124001Y-107489250D01*
X103138977Y-107487278D01*
X103267709Y-107470330D01*
X103401625Y-107414861D01*
X103516621Y-107326621D01*
X103604861Y-107211625D01*
X103614647Y-107187999D01*
X111458750Y-107187999D01*
X111458750Y-107188000D01*
X111477670Y-107331708D01*
X111477671Y-107331712D01*
X111533137Y-107465622D01*
X111533138Y-107465624D01*
X111533139Y-107465625D01*
X111621379Y-107580621D01*
X111621382Y-107580623D01*
X111643539Y-107597626D01*
X111684741Y-107654054D01*
X111688894Y-107723800D01*
X111654681Y-107784720D01*
X111643539Y-107794374D01*
X111621382Y-107811376D01*
X111621380Y-107811377D01*
X111621379Y-107811379D01*
X111568435Y-107880376D01*
X111533137Y-107926377D01*
X111477671Y-108060287D01*
X111477670Y-108060291D01*
X111458750Y-108203999D01*
X111458750Y-108204000D01*
X111477670Y-108347708D01*
X111477671Y-108347712D01*
X111533137Y-108481622D01*
X111533138Y-108481624D01*
X111533139Y-108481625D01*
X111621379Y-108596621D01*
X111736375Y-108684861D01*
X111870291Y-108740330D01*
X111997280Y-108757048D01*
X112013999Y-108759250D01*
X112014000Y-108759250D01*
X112014001Y-108759250D01*
X112028977Y-108757278D01*
X112157709Y-108740330D01*
X112291625Y-108684861D01*
X112406621Y-108596621D01*
X112494861Y-108481625D01*
X112550330Y-108347709D01*
X112569250Y-108204000D01*
X112550330Y-108060291D01*
X112494861Y-107926375D01*
X112406621Y-107811379D01*
X112384459Y-107794373D01*
X112343259Y-107737948D01*
X112339104Y-107668202D01*
X112373316Y-107607281D01*
X112384450Y-107597633D01*
X112406621Y-107580621D01*
X112494861Y-107465625D01*
X112550330Y-107331709D01*
X112569250Y-107188000D01*
X112569250Y-107187999D01*
X124158750Y-107187999D01*
X124158750Y-107188000D01*
X124177670Y-107331708D01*
X124177671Y-107331712D01*
X124233137Y-107465622D01*
X124233138Y-107465624D01*
X124233139Y-107465625D01*
X124321379Y-107580621D01*
X124321382Y-107580623D01*
X124343539Y-107597626D01*
X124384741Y-107654054D01*
X124388894Y-107723800D01*
X124354681Y-107784720D01*
X124343539Y-107794374D01*
X124321382Y-107811376D01*
X124321380Y-107811377D01*
X124321379Y-107811379D01*
X124268435Y-107880376D01*
X124233137Y-107926377D01*
X124177671Y-108060287D01*
X124177670Y-108060291D01*
X124158750Y-108203999D01*
X124158750Y-108204000D01*
X124177670Y-108347708D01*
X124177671Y-108347712D01*
X124233137Y-108481622D01*
X124233138Y-108481624D01*
X124233139Y-108481625D01*
X124321379Y-108596621D01*
X124436375Y-108684861D01*
X124570291Y-108740330D01*
X124697280Y-108757048D01*
X124713999Y-108759250D01*
X124714000Y-108759250D01*
X124714001Y-108759250D01*
X124728977Y-108757278D01*
X124857709Y-108740330D01*
X124991625Y-108684861D01*
X125106621Y-108596621D01*
X125194861Y-108481625D01*
X125250330Y-108347709D01*
X125269250Y-108204000D01*
X125250330Y-108060291D01*
X125194861Y-107926375D01*
X125106621Y-107811379D01*
X125084459Y-107794373D01*
X125043259Y-107737948D01*
X125039104Y-107668202D01*
X125073316Y-107607281D01*
X125084450Y-107597633D01*
X125106621Y-107580621D01*
X125123626Y-107558459D01*
X125180052Y-107517259D01*
X125249798Y-107513104D01*
X125310719Y-107547316D01*
X125320366Y-107558450D01*
X125337379Y-107580621D01*
X125452375Y-107668861D01*
X125586291Y-107724330D01*
X125713280Y-107741048D01*
X125729999Y-107743250D01*
X125730000Y-107743250D01*
X125730001Y-107743250D01*
X125744977Y-107741278D01*
X125873709Y-107724330D01*
X126007625Y-107668861D01*
X126122621Y-107580621D01*
X126210861Y-107465625D01*
X126266330Y-107331709D01*
X126285250Y-107188000D01*
X126266330Y-107044291D01*
X126210861Y-106910375D01*
X126122621Y-106795379D01*
X126007625Y-106707139D01*
X126007624Y-106707138D01*
X126007622Y-106707137D01*
X125873712Y-106651671D01*
X125873710Y-106651670D01*
X125873709Y-106651670D01*
X125801854Y-106642210D01*
X125730001Y-106632750D01*
X125729999Y-106632750D01*
X125586291Y-106651670D01*
X125586287Y-106651671D01*
X125452377Y-106707137D01*
X125406376Y-106742435D01*
X125337379Y-106795379D01*
X125337377Y-106795380D01*
X125337376Y-106795382D01*
X125320374Y-106817539D01*
X125263946Y-106858741D01*
X125194200Y-106862894D01*
X125133280Y-106828681D01*
X125123626Y-106817539D01*
X125106623Y-106795382D01*
X125106621Y-106795379D01*
X124991625Y-106707139D01*
X124991624Y-106707138D01*
X124991622Y-106707137D01*
X124857712Y-106651671D01*
X124857710Y-106651670D01*
X124857709Y-106651670D01*
X124785854Y-106642210D01*
X124714001Y-106632750D01*
X124713999Y-106632750D01*
X124570291Y-106651670D01*
X124570287Y-106651671D01*
X124436377Y-106707137D01*
X124321379Y-106795379D01*
X124233137Y-106910377D01*
X124177671Y-107044287D01*
X124177670Y-107044291D01*
X124158750Y-107187999D01*
X112569250Y-107187999D01*
X112550330Y-107044291D01*
X112494861Y-106910375D01*
X112406621Y-106795379D01*
X112291625Y-106707139D01*
X112291624Y-106707138D01*
X112291622Y-106707137D01*
X112157712Y-106651671D01*
X112157710Y-106651670D01*
X112157709Y-106651670D01*
X112085854Y-106642210D01*
X112014001Y-106632750D01*
X112013999Y-106632750D01*
X111870291Y-106651670D01*
X111870287Y-106651671D01*
X111736377Y-106707137D01*
X111621379Y-106795379D01*
X111533137Y-106910377D01*
X111477671Y-107044287D01*
X111477670Y-107044291D01*
X111458750Y-107187999D01*
X103614647Y-107187999D01*
X103660330Y-107077709D01*
X103671283Y-106994508D01*
X103699549Y-106930613D01*
X103757874Y-106892142D01*
X103827738Y-106891311D01*
X103856226Y-106903310D01*
X103862370Y-106906857D01*
X103862375Y-106906861D01*
X103996291Y-106962330D01*
X104123280Y-106979048D01*
X104139999Y-106981250D01*
X104140000Y-106981250D01*
X104140001Y-106981250D01*
X104154977Y-106979278D01*
X104283709Y-106962330D01*
X104417625Y-106906861D01*
X104532621Y-106818621D01*
X104620861Y-106703625D01*
X104676330Y-106569709D01*
X104695250Y-106426000D01*
X116284750Y-106426000D01*
X116297701Y-106524374D01*
X116303670Y-106569708D01*
X116303671Y-106569712D01*
X116359137Y-106703622D01*
X116359138Y-106703624D01*
X116359139Y-106703625D01*
X116447379Y-106818621D01*
X116562375Y-106906861D01*
X116562376Y-106906861D01*
X116562377Y-106906862D01*
X116607013Y-106925350D01*
X116696291Y-106962330D01*
X116823280Y-106979048D01*
X116839999Y-106981250D01*
X116840000Y-106981250D01*
X116840001Y-106981250D01*
X116854977Y-106979278D01*
X116983709Y-106962330D01*
X117117625Y-106906861D01*
X117232621Y-106818621D01*
X117320861Y-106703625D01*
X117376330Y-106569709D01*
X117395250Y-106426000D01*
X117376330Y-106282291D01*
X117320861Y-106148375D01*
X117232621Y-106033379D01*
X117117625Y-105945139D01*
X117117624Y-105945138D01*
X117117622Y-105945137D01*
X116983712Y-105889671D01*
X116983710Y-105889670D01*
X116983709Y-105889670D01*
X116911854Y-105880210D01*
X116840001Y-105870750D01*
X116839999Y-105870750D01*
X116696291Y-105889670D01*
X116696287Y-105889671D01*
X116562377Y-105945137D01*
X116447379Y-106033379D01*
X116359137Y-106148377D01*
X116303671Y-106282287D01*
X116303670Y-106282291D01*
X116284750Y-106426000D01*
X104695250Y-106426000D01*
X104676330Y-106282291D01*
X104620861Y-106148375D01*
X104532621Y-106033379D01*
X104417625Y-105945139D01*
X104417624Y-105945138D01*
X104417622Y-105945137D01*
X104283712Y-105889671D01*
X104283710Y-105889670D01*
X104283709Y-105889670D01*
X104211854Y-105880210D01*
X104140001Y-105870750D01*
X104139999Y-105870750D01*
X103996291Y-105889670D01*
X103996287Y-105889671D01*
X103862380Y-105945136D01*
X103856220Y-105948693D01*
X103788319Y-105965163D01*
X103722293Y-105942310D01*
X103679103Y-105887387D01*
X103671283Y-105857489D01*
X103668238Y-105834362D01*
X103660330Y-105774291D01*
X103604861Y-105640375D01*
X103516621Y-105525379D01*
X103516619Y-105525378D01*
X103516619Y-105525377D01*
X103504705Y-105516235D01*
X103490551Y-105505374D01*
X103449349Y-105448948D01*
X103445194Y-105379202D01*
X103479406Y-105318282D01*
X103541123Y-105285529D01*
X103566038Y-105283000D01*
X125103895Y-105283000D01*
X125170934Y-105302685D01*
X125216689Y-105355489D01*
X125218431Y-105359489D01*
X125249139Y-105433625D01*
X125337379Y-105548621D01*
X125452375Y-105636861D01*
X125452376Y-105636861D01*
X125452377Y-105636862D01*
X125497013Y-105655350D01*
X125586291Y-105692330D01*
X125713280Y-105709048D01*
X125729999Y-105711250D01*
X125730000Y-105711250D01*
X125730001Y-105711250D01*
X125744977Y-105709278D01*
X125873709Y-105692330D01*
X126007625Y-105636861D01*
X126122621Y-105548621D01*
X126210861Y-105433625D01*
X126241545Y-105359544D01*
X126285384Y-105305145D01*
X126351678Y-105283079D01*
X126356105Y-105283000D01*
X133161962Y-105283000D01*
X133229001Y-105302685D01*
X133274756Y-105355489D01*
X133284700Y-105424647D01*
X133255675Y-105488203D01*
X133237451Y-105505373D01*
X133229376Y-105511568D01*
X133211380Y-105525377D01*
X133123137Y-105640377D01*
X133067671Y-105774287D01*
X133067670Y-105774291D01*
X133048750Y-105917999D01*
X133048750Y-105918000D01*
X133067670Y-106061708D01*
X133067671Y-106061712D01*
X133123137Y-106195622D01*
X133123138Y-106195624D01*
X133123139Y-106195625D01*
X133211379Y-106310621D01*
X133211382Y-106310623D01*
X133233539Y-106327626D01*
X133274741Y-106384054D01*
X133278894Y-106453800D01*
X133244681Y-106514720D01*
X133233539Y-106524374D01*
X133211382Y-106541376D01*
X133211380Y-106541377D01*
X133211379Y-106541379D01*
X133158435Y-106610376D01*
X133123137Y-106656377D01*
X133067671Y-106790287D01*
X133067670Y-106790291D01*
X133048750Y-106933999D01*
X133048750Y-106934000D01*
X133067670Y-107077708D01*
X133067671Y-107077712D01*
X133123137Y-107211622D01*
X133123138Y-107211624D01*
X133123139Y-107211625D01*
X133211379Y-107326621D01*
X133326375Y-107414861D01*
X133460291Y-107470330D01*
X133587280Y-107487048D01*
X133603999Y-107489250D01*
X133604000Y-107489250D01*
X133604001Y-107489250D01*
X133618977Y-107487278D01*
X133747709Y-107470330D01*
X133881625Y-107414861D01*
X133996621Y-107326621D01*
X134084861Y-107211625D01*
X134140330Y-107077709D01*
X134159250Y-106934000D01*
X134140330Y-106790291D01*
X134084861Y-106656375D01*
X133996621Y-106541379D01*
X133974459Y-106524373D01*
X133933259Y-106467948D01*
X133929104Y-106398202D01*
X133963316Y-106337281D01*
X133974450Y-106327633D01*
X133996621Y-106310621D01*
X134013626Y-106288459D01*
X134070052Y-106247259D01*
X134139798Y-106243104D01*
X134200719Y-106277316D01*
X134210366Y-106288450D01*
X134227379Y-106310621D01*
X134342375Y-106398861D01*
X134476291Y-106454330D01*
X134603280Y-106471048D01*
X134619999Y-106473250D01*
X134620000Y-106473250D01*
X134620001Y-106473250D01*
X134634977Y-106471278D01*
X134763709Y-106454330D01*
X134897625Y-106398861D01*
X135012621Y-106310621D01*
X135100861Y-106195625D01*
X135156330Y-106061709D01*
X135175250Y-105918000D01*
X135156330Y-105774291D01*
X135100861Y-105640375D01*
X135012621Y-105525379D01*
X135012619Y-105525378D01*
X135012619Y-105525377D01*
X135000705Y-105516235D01*
X134986551Y-105505374D01*
X134945349Y-105448948D01*
X134941194Y-105379202D01*
X134975406Y-105318282D01*
X135037123Y-105285529D01*
X135062038Y-105283000D01*
X136989638Y-105283000D01*
X137056677Y-105302685D01*
X137077319Y-105319319D01*
X137504681Y-105746681D01*
X137538166Y-105808004D01*
X137541000Y-105834362D01*
X137541000Y-109093000D01*
X137041000Y-109093000D01*
X117282038Y-109093000D01*
X117214999Y-109073315D01*
X117169244Y-109020511D01*
X117159300Y-108951353D01*
X117188325Y-108887797D01*
X117206548Y-108870626D01*
X117232621Y-108850621D01*
X117320861Y-108735625D01*
X117376330Y-108601709D01*
X117395250Y-108458000D01*
X117376330Y-108314291D01*
X117320861Y-108180375D01*
X117232621Y-108065379D01*
X117117625Y-107977139D01*
X117117624Y-107977138D01*
X117117622Y-107977137D01*
X116983712Y-107921671D01*
X116983710Y-107921670D01*
X116983709Y-107921670D01*
X116911854Y-107912210D01*
X116840001Y-107902750D01*
X116839999Y-107902750D01*
X116696291Y-107921670D01*
X116696287Y-107921671D01*
X116562377Y-107977137D01*
X116447379Y-108065379D01*
X116359137Y-108180377D01*
X116303671Y-108314287D01*
X116303670Y-108314291D01*
X116284750Y-108457999D01*
X116284750Y-108458000D01*
X116303670Y-108601708D01*
X116303671Y-108601712D01*
X116359137Y-108735622D01*
X116359138Y-108735624D01*
X116359139Y-108735625D01*
X116447379Y-108850621D01*
X116473448Y-108870625D01*
X116514651Y-108927052D01*
X116518806Y-108996798D01*
X116484594Y-109057718D01*
X116422877Y-109090471D01*
X116397962Y-109093000D01*
X104582038Y-109093000D01*
X104514999Y-109073315D01*
X104469244Y-109020511D01*
X104459300Y-108951353D01*
X104488325Y-108887797D01*
X104506548Y-108870626D01*
X104532621Y-108850621D01*
X104620861Y-108735625D01*
X104676330Y-108601709D01*
X104695250Y-108458000D01*
X104676330Y-108314291D01*
X104620861Y-108180375D01*
X104532621Y-108065379D01*
X104417625Y-107977139D01*
X104417624Y-107977138D01*
X104417622Y-107977137D01*
X104283712Y-107921671D01*
X104283710Y-107921670D01*
X104283709Y-107921670D01*
X104211854Y-107912210D01*
X104140001Y-107902750D01*
X104139999Y-107902750D01*
X103996291Y-107921670D01*
X103996287Y-107921671D01*
X103862377Y-107977137D01*
X103747379Y-108065379D01*
X103659137Y-108180377D01*
X103603671Y-108314287D01*
X103603670Y-108314291D01*
X103584750Y-108457999D01*
X103584750Y-108458000D01*
X103603670Y-108601708D01*
X103603671Y-108601712D01*
X103659137Y-108735622D01*
X103659138Y-108735624D01*
X103659139Y-108735625D01*
X103747379Y-108850621D01*
X103773448Y-108870625D01*
X103814651Y-108927052D01*
X103818806Y-108996798D01*
X103784594Y-109057718D01*
X103722877Y-109090471D01*
X103697962Y-109093000D01*
X87490862Y-109093000D01*
X87423823Y-109073315D01*
X87403181Y-109056681D01*
X87158319Y-108811819D01*
X87124834Y-108750496D01*
X87122000Y-108724138D01*
X87122000Y-107187999D01*
X94694750Y-107187999D01*
X94694750Y-107188000D01*
X94713670Y-107331708D01*
X94713671Y-107331712D01*
X94769137Y-107465622D01*
X94769138Y-107465624D01*
X94769139Y-107465625D01*
X94857379Y-107580621D01*
X94972375Y-107668861D01*
X95106291Y-107724330D01*
X95233280Y-107741048D01*
X95249999Y-107743250D01*
X95250000Y-107743250D01*
X95250001Y-107743250D01*
X95264977Y-107741278D01*
X95393709Y-107724330D01*
X95527625Y-107668861D01*
X95642621Y-107580621D01*
X95730861Y-107465625D01*
X95786330Y-107331709D01*
X95805250Y-107188000D01*
X95786330Y-107044291D01*
X95730861Y-106910375D01*
X95642621Y-106795379D01*
X95527625Y-106707139D01*
X95527624Y-106707138D01*
X95527622Y-106707137D01*
X95393712Y-106651671D01*
X95393710Y-106651670D01*
X95393709Y-106651670D01*
X95321854Y-106642210D01*
X95250001Y-106632750D01*
X95249999Y-106632750D01*
X95106291Y-106651670D01*
X95106287Y-106651671D01*
X94972377Y-106707137D01*
X94857379Y-106795379D01*
X94769137Y-106910377D01*
X94713671Y-107044287D01*
X94713670Y-107044291D01*
X94694750Y-107187999D01*
X87122000Y-107187999D01*
X87122000Y-105834362D01*
X87141685Y-105767323D01*
X87158319Y-105746681D01*
X87585681Y-105319319D01*
X87647004Y-105285834D01*
X87673362Y-105283000D01*
X93610380Y-105283000D01*
X93677419Y-105302685D01*
G37*
%TD.AperFunction*%
%TD*%
%TA.AperFunction,Conductor*%
%TO.N,V_{in}*%
G36*
X143256000Y-124206000D02*
G01*
X142756000Y-124206000D01*
X141724000Y-124206000D01*
X141224000Y-124206000D01*
X141224000Y-122471362D01*
X141243685Y-122404323D01*
X141260319Y-122383681D01*
X141687681Y-121956319D01*
X141749004Y-121922834D01*
X141775362Y-121920000D01*
X143256000Y-121920000D01*
X143256000Y-124206000D01*
G37*
%TD.AperFunction*%
%TD*%
%TA.AperFunction,Conductor*%
%TO.N,V_{in}*%
G36*
X97051677Y-121939685D02*
G01*
X97072319Y-121956319D01*
X97499681Y-122383681D01*
X97533166Y-122445004D01*
X97536000Y-122471362D01*
X97536000Y-124206000D01*
X97036000Y-124206000D01*
X96004000Y-124206000D01*
X95504000Y-124206000D01*
X95504000Y-122471362D01*
X95523685Y-122404323D01*
X95540319Y-122383681D01*
X95967681Y-121956319D01*
X96029004Y-121922834D01*
X96055362Y-121920000D01*
X96984638Y-121920000D01*
X97051677Y-121939685D01*
G37*
%TD.AperFunction*%
%TD*%
%TA.AperFunction,Conductor*%
%TO.N,+3V3*%
G36*
X116332000Y-101981000D02*
G01*
X104582038Y-101981000D01*
X104514999Y-101961315D01*
X104469244Y-101908511D01*
X104459300Y-101839353D01*
X104488325Y-101775797D01*
X104506548Y-101758626D01*
X104532621Y-101738621D01*
X104620861Y-101623625D01*
X104676330Y-101489709D01*
X104695250Y-101346000D01*
X104676330Y-101202291D01*
X104620861Y-101068375D01*
X104532621Y-100953379D01*
X104417625Y-100865139D01*
X104417624Y-100865138D01*
X104417622Y-100865137D01*
X104283712Y-100809671D01*
X104283710Y-100809670D01*
X104283709Y-100809670D01*
X104211854Y-100800210D01*
X104140001Y-100790750D01*
X104139999Y-100790750D01*
X103996291Y-100809670D01*
X103996287Y-100809671D01*
X103862377Y-100865137D01*
X103747379Y-100953379D01*
X103659137Y-101068377D01*
X103603671Y-101202287D01*
X103603670Y-101202291D01*
X103584750Y-101345999D01*
X103584750Y-101346000D01*
X103603670Y-101489708D01*
X103603671Y-101489712D01*
X103659137Y-101623622D01*
X103659138Y-101623624D01*
X103659139Y-101623625D01*
X103747379Y-101738621D01*
X103773448Y-101758625D01*
X103814651Y-101815052D01*
X103818806Y-101884798D01*
X103784594Y-101945718D01*
X103722877Y-101978471D01*
X103697962Y-101981000D01*
X95876105Y-101981000D01*
X95809066Y-101961315D01*
X95763311Y-101908511D01*
X95761568Y-101904510D01*
X95730861Y-101830375D01*
X95642621Y-101715379D01*
X95527625Y-101627139D01*
X95527624Y-101627138D01*
X95527622Y-101627137D01*
X95393712Y-101571671D01*
X95393710Y-101571670D01*
X95393709Y-101571670D01*
X95321854Y-101562210D01*
X95250001Y-101552750D01*
X95249999Y-101552750D01*
X95106291Y-101571670D01*
X95106287Y-101571671D01*
X94972377Y-101627137D01*
X94857379Y-101715379D01*
X94769139Y-101830374D01*
X94769139Y-101830375D01*
X94738454Y-101904455D01*
X94694616Y-101958855D01*
X94628322Y-101980921D01*
X94623895Y-101981000D01*
X87673362Y-101981000D01*
X87606323Y-101961315D01*
X87585681Y-101944681D01*
X87158319Y-101517319D01*
X87124834Y-101455996D01*
X87122000Y-101429638D01*
X87122000Y-100075999D01*
X94694750Y-100075999D01*
X94694750Y-100076000D01*
X94713670Y-100219708D01*
X94713671Y-100219712D01*
X94769137Y-100353622D01*
X94769138Y-100353624D01*
X94769139Y-100353625D01*
X94857379Y-100468621D01*
X94972375Y-100556861D01*
X94972376Y-100556861D01*
X94972377Y-100556862D01*
X95017013Y-100575350D01*
X95106291Y-100612330D01*
X95233280Y-100629048D01*
X95249999Y-100631250D01*
X95250000Y-100631250D01*
X95250001Y-100631250D01*
X95264977Y-100629278D01*
X95393709Y-100612330D01*
X95527625Y-100556861D01*
X95642621Y-100468621D01*
X95730861Y-100353625D01*
X95786330Y-100219709D01*
X95805250Y-100076000D01*
X95786330Y-99932291D01*
X95730861Y-99798375D01*
X95642621Y-99683379D01*
X95527625Y-99595139D01*
X95527624Y-99595138D01*
X95527622Y-99595137D01*
X95393712Y-99539671D01*
X95393710Y-99539670D01*
X95393709Y-99539670D01*
X95321854Y-99530210D01*
X95250001Y-99520750D01*
X95249999Y-99520750D01*
X95106291Y-99539670D01*
X95106287Y-99539671D01*
X94972377Y-99595137D01*
X94857379Y-99683379D01*
X94769137Y-99798377D01*
X94713671Y-99932287D01*
X94713670Y-99932291D01*
X94694750Y-100075999D01*
X87122000Y-100075999D01*
X87122000Y-98849362D01*
X87141685Y-98782323D01*
X87158319Y-98761681D01*
X87585681Y-98334319D01*
X87647004Y-98300834D01*
X87673362Y-98298000D01*
X116332000Y-98298000D01*
X116332000Y-101981000D01*
G37*
%TD.AperFunction*%
%TA.AperFunction,Conductor*%
G36*
X134131504Y-98317685D02*
G01*
X134177259Y-98370489D01*
X134187203Y-98439647D01*
X134162841Y-98497485D01*
X134148776Y-98515814D01*
X134139137Y-98528377D01*
X134083671Y-98662287D01*
X134083670Y-98662291D01*
X134064750Y-98805999D01*
X134064750Y-98806000D01*
X134083670Y-98949708D01*
X134083671Y-98949712D01*
X134139137Y-99083622D01*
X134139138Y-99083624D01*
X134139139Y-99083625D01*
X134227379Y-99198621D01*
X134342375Y-99286861D01*
X134476291Y-99342330D01*
X134603280Y-99359048D01*
X134619999Y-99361250D01*
X134620000Y-99361250D01*
X134620001Y-99361250D01*
X134634977Y-99359278D01*
X134763709Y-99342330D01*
X134897625Y-99286861D01*
X135012621Y-99198621D01*
X135100861Y-99083625D01*
X135156330Y-98949709D01*
X135175250Y-98806000D01*
X135156330Y-98662291D01*
X135100861Y-98528375D01*
X135077158Y-98497485D01*
X135051965Y-98432317D01*
X135066003Y-98363873D01*
X135114817Y-98313883D01*
X135175535Y-98298000D01*
X136989638Y-98298000D01*
X137056677Y-98317685D01*
X137077319Y-98334319D01*
X137504681Y-98761681D01*
X137538166Y-98823004D01*
X137541000Y-98849362D01*
X137541000Y-101429638D01*
X137521315Y-101496677D01*
X137504681Y-101517319D01*
X137077319Y-101944681D01*
X137015996Y-101978166D01*
X136989638Y-101981000D01*
X126356105Y-101981000D01*
X126289066Y-101961315D01*
X126243311Y-101908511D01*
X126241568Y-101904510D01*
X126210861Y-101830375D01*
X126122621Y-101715379D01*
X126007625Y-101627139D01*
X126007624Y-101627138D01*
X126007622Y-101627137D01*
X125873712Y-101571671D01*
X125873710Y-101571670D01*
X125873709Y-101571670D01*
X125801854Y-101562210D01*
X125730001Y-101552750D01*
X125729999Y-101552750D01*
X125586291Y-101571670D01*
X125586287Y-101571671D01*
X125452377Y-101627137D01*
X125337379Y-101715379D01*
X125249139Y-101830374D01*
X125249139Y-101830375D01*
X125218454Y-101904455D01*
X125174616Y-101958855D01*
X125108322Y-101980921D01*
X125103895Y-101981000D01*
X120904000Y-101981000D01*
X120904000Y-100837999D01*
X134064750Y-100837999D01*
X134064750Y-100838000D01*
X134083670Y-100981708D01*
X134083671Y-100981712D01*
X134139137Y-101115622D01*
X134139138Y-101115624D01*
X134139139Y-101115625D01*
X134227379Y-101230621D01*
X134342375Y-101318861D01*
X134476291Y-101374330D01*
X134603280Y-101391048D01*
X134619999Y-101393250D01*
X134620000Y-101393250D01*
X134620001Y-101393250D01*
X134634977Y-101391278D01*
X134763709Y-101374330D01*
X134897625Y-101318861D01*
X135012621Y-101230621D01*
X135100861Y-101115625D01*
X135156330Y-100981709D01*
X135175250Y-100838000D01*
X135156330Y-100694291D01*
X135100861Y-100560375D01*
X135012621Y-100445379D01*
X134897625Y-100357139D01*
X134897624Y-100357138D01*
X134897622Y-100357137D01*
X134763712Y-100301671D01*
X134763710Y-100301670D01*
X134763709Y-100301670D01*
X134691854Y-100292210D01*
X134620001Y-100282750D01*
X134619999Y-100282750D01*
X134476291Y-100301670D01*
X134476287Y-100301671D01*
X134342377Y-100357137D01*
X134227379Y-100445379D01*
X134139137Y-100560377D01*
X134083671Y-100694287D01*
X134083670Y-100694291D01*
X134064750Y-100837999D01*
X120904000Y-100837999D01*
X120904000Y-100075999D01*
X125174750Y-100075999D01*
X125174750Y-100076000D01*
X125193670Y-100219708D01*
X125193671Y-100219712D01*
X125249137Y-100353622D01*
X125249138Y-100353624D01*
X125249139Y-100353625D01*
X125337379Y-100468621D01*
X125452375Y-100556861D01*
X125452376Y-100556861D01*
X125452377Y-100556862D01*
X125497013Y-100575350D01*
X125586291Y-100612330D01*
X125713280Y-100629048D01*
X125729999Y-100631250D01*
X125730000Y-100631250D01*
X125730001Y-100631250D01*
X125744977Y-100629278D01*
X125873709Y-100612330D01*
X126007625Y-100556861D01*
X126122621Y-100468621D01*
X126210861Y-100353625D01*
X126266330Y-100219709D01*
X126285250Y-100076000D01*
X126266330Y-99932291D01*
X126210861Y-99798375D01*
X126122621Y-99683379D01*
X126007625Y-99595139D01*
X126007624Y-99595138D01*
X126007622Y-99595137D01*
X125873712Y-99539671D01*
X125873710Y-99539670D01*
X125873709Y-99539670D01*
X125801854Y-99530210D01*
X125730001Y-99520750D01*
X125729999Y-99520750D01*
X125586291Y-99539670D01*
X125586287Y-99539671D01*
X125452377Y-99595137D01*
X125337379Y-99683379D01*
X125249137Y-99798377D01*
X125193671Y-99932287D01*
X125193670Y-99932291D01*
X125174750Y-100075999D01*
X120904000Y-100075999D01*
X120904000Y-98298000D01*
X134064465Y-98298000D01*
X134131504Y-98317685D01*
G37*
%TD.AperFunction*%
%TD*%
%TA.AperFunction,Conductor*%
%TO.N,+5V*%
G36*
X118129677Y-58566685D02*
G01*
X118150319Y-58583319D01*
X118327681Y-58760681D01*
X118361166Y-58822004D01*
X118364000Y-58848362D01*
X118364000Y-59690000D01*
X117348000Y-59690000D01*
X117348000Y-61595000D01*
X114173000Y-61595000D01*
X114173000Y-59690000D01*
X112776000Y-59690000D01*
X112776000Y-58848362D01*
X112795685Y-58781323D01*
X112812319Y-58760681D01*
X112989681Y-58583319D01*
X113051004Y-58549834D01*
X113077362Y-58547000D01*
X118062638Y-58547000D01*
X118129677Y-58566685D01*
G37*
%TD.AperFunction*%
%TD*%
%TA.AperFunction,Conductor*%
%TO.N,+3V3*%
G36*
X119380000Y-97798000D02*
G01*
X119880000Y-98298000D01*
X120904000Y-98298000D01*
X120904000Y-101981000D01*
X116332000Y-101981000D01*
X116332000Y-98298000D01*
X117356000Y-98298000D01*
X117854270Y-97798003D01*
X117747028Y-66805317D01*
X117747682Y-66802000D01*
X119380000Y-66802000D01*
X119380000Y-97798000D01*
G37*
%TD.AperFunction*%
%TD*%
%TA.AperFunction,Conductor*%
%TO.N,V_{in}*%
G36*
X139596677Y-53867685D02*
G01*
X139617319Y-53884319D01*
X140044681Y-54311681D01*
X140078166Y-54373004D01*
X140081000Y-54399362D01*
X140081000Y-67195381D01*
X140440699Y-68042674D01*
X140440700Y-68042675D01*
X140440701Y-68042677D01*
X147196150Y-74565180D01*
X147224159Y-74605928D01*
X147564140Y-75406774D01*
X147574000Y-75455230D01*
X147574000Y-123935334D01*
X147564561Y-123982787D01*
X147229885Y-124790766D01*
X147203005Y-124830994D01*
X146420994Y-125613005D01*
X146380766Y-125639885D01*
X145572788Y-125974561D01*
X145525335Y-125984000D01*
X143256000Y-125984000D01*
X143256000Y-121920000D01*
X144026000Y-121920000D01*
X144816619Y-121513133D01*
X145505381Y-120548867D01*
X145796000Y-119642000D01*
X145796000Y-76446000D01*
X145445534Y-75589386D01*
X142113000Y-72198386D01*
X138797556Y-68824776D01*
X138771232Y-68784817D01*
X138439234Y-67973341D01*
X138430000Y-67926387D01*
X138430000Y-54399362D01*
X138449685Y-54332323D01*
X138466319Y-54311681D01*
X138893681Y-53884319D01*
X138955004Y-53850834D01*
X138981362Y-53848000D01*
X139529638Y-53848000D01*
X139596677Y-53867685D01*
G37*
%TD.AperFunction*%
%TD*%
M02*
