%TF.GenerationSoftware,KiCad,Pcbnew,8.0.6*%
%TF.CreationDate,2024-12-18T16:17:05-08:00*%
%TF.ProjectId,pico-analyzer,7069636f-2d61-46e6-916c-797a65722e6b,1.0*%
%TF.SameCoordinates,Original*%
%TF.FileFunction,Copper,L4,Bot*%
%TF.FilePolarity,Positive*%
%FSLAX46Y46*%
G04 Gerber Fmt 4.6, Leading zero omitted, Abs format (unit mm)*
G04 Created by KiCad (PCBNEW 8.0.6) date 2024-12-18 16:17:05*
%MOMM*%
%LPD*%
G01*
G04 APERTURE LIST*
%TA.AperFunction,ComponentPad*%
%ADD10O,1.000000X1.800000*%
%TD*%
%TA.AperFunction,ComponentPad*%
%ADD11O,1.000000X2.200000*%
%TD*%
%TA.AperFunction,ComponentPad*%
%ADD12R,1.700000X1.700000*%
%TD*%
%TA.AperFunction,ComponentPad*%
%ADD13O,1.700000X1.700000*%
%TD*%
%TA.AperFunction,ComponentPad*%
%ADD14C,1.700000*%
%TD*%
%TA.AperFunction,ComponentPad*%
%ADD15R,1.300000X1.300000*%
%TD*%
%TA.AperFunction,ComponentPad*%
%ADD16C,1.300000*%
%TD*%
%TA.AperFunction,ComponentPad*%
%ADD17C,1.800000*%
%TD*%
%TA.AperFunction,ViaPad*%
%ADD18C,0.600000*%
%TD*%
G04 APERTURE END LIST*
D10*
%TO.P,J5,S1,SHIELD*%
%TO.N,GND*%
X119890000Y-56901200D03*
D11*
X119890000Y-52901200D03*
D10*
X111250000Y-56901200D03*
D11*
X111250000Y-52901200D03*
%TD*%
D12*
%TO.P,J1,1,Pin_1*%
%TO.N,/Level Translation/C0*%
X88890000Y-120396000D03*
D13*
%TO.P,J1,2,Pin_2*%
%TO.N,/Level Translation/C1*%
X88890000Y-122936000D03*
%TO.P,J1,3,Pin_3*%
%TO.N,/Level Translation/C2*%
X91430000Y-120396000D03*
%TO.P,J1,4,Pin_4*%
%TO.N,/Level Translation/C3*%
X91430000Y-122936000D03*
%TO.P,J1,5,Pin_5*%
%TO.N,/Level Translation/C4*%
X93970000Y-120396000D03*
%TO.P,J1,6,Pin_6*%
%TO.N,/Level Translation/C5*%
X93970000Y-122936000D03*
D14*
%TO.P,J1,7,Pin_7*%
%TO.N,GND*%
X96510000Y-120396000D03*
D13*
%TO.P,J1,8,Pin_8*%
%TO.N,V_{in}*%
X96510000Y-122936000D03*
%TD*%
D12*
%TO.P,J4,1,Pin_1*%
%TO.N,/Level Translation/C18*%
X134610000Y-120396000D03*
D13*
%TO.P,J4,2,Pin_2*%
%TO.N,/Level Translation/C19*%
X134610000Y-122936000D03*
%TO.P,J4,3,Pin_3*%
%TO.N,/Level Translation/C20*%
X137150000Y-120396000D03*
%TO.P,J4,4,Pin_4*%
%TO.N,/Level Translation/C21*%
X137150000Y-122936000D03*
%TO.P,J4,5,Pin_5*%
%TO.N,/Level Translation/C22*%
X139690000Y-120396000D03*
%TO.P,J4,6,Pin_6*%
%TO.N,/Level Translation/C23*%
X139690000Y-122936000D03*
D14*
%TO.P,J4,7,Pin_7*%
%TO.N,GND*%
X142230000Y-120396000D03*
D13*
%TO.P,J4,8,Pin_8*%
%TO.N,V_{in}*%
X142230000Y-122936000D03*
%TD*%
D12*
%TO.P,J2,1,Pin_1*%
%TO.N,/Level Translation/C6*%
X104130000Y-120396000D03*
D13*
%TO.P,J2,2,Pin_2*%
%TO.N,/Level Translation/C7*%
X104130000Y-122936000D03*
%TO.P,J2,3,Pin_3*%
%TO.N,/Level Translation/C8*%
X106670000Y-120396000D03*
%TO.P,J2,4,Pin_4*%
%TO.N,/Level Translation/C9*%
X106670000Y-122936000D03*
%TO.P,J2,5,Pin_5*%
%TO.N,/Level Translation/C10*%
X109210000Y-120396000D03*
%TO.P,J2,6,Pin_6*%
%TO.N,/Level Translation/C11*%
X109210000Y-122936000D03*
D14*
%TO.P,J2,7,Pin_7*%
%TO.N,GND*%
X111750000Y-120396000D03*
D13*
%TO.P,J2,8,Pin_8*%
%TO.N,V_{in}*%
X111750000Y-122936000D03*
%TD*%
D12*
%TO.P,J3,1,Pin_1*%
%TO.N,/Level Translation/C12*%
X119370000Y-120396000D03*
D13*
%TO.P,J3,2,Pin_2*%
%TO.N,/Level Translation/C13*%
X119370000Y-122936000D03*
%TO.P,J3,3,Pin_3*%
%TO.N,/Level Translation/C14*%
X121910000Y-120396000D03*
%TO.P,J3,4,Pin_4*%
%TO.N,/Level Translation/C15*%
X121910000Y-122936000D03*
%TO.P,J3,5,Pin_5*%
%TO.N,/Level Translation/C16*%
X124450000Y-120396000D03*
%TO.P,J3,6,Pin_6*%
%TO.N,/Level Translation/C17*%
X124450000Y-122936000D03*
D14*
%TO.P,J3,7,Pin_7*%
%TO.N,GND*%
X126990000Y-120396000D03*
D13*
%TO.P,J3,8,Pin_8*%
%TO.N,V_{in}*%
X126990000Y-122936000D03*
%TD*%
D15*
%TO.P,SW1,1,1*%
%TO.N,V_{in}*%
X139255000Y-54950000D03*
D16*
%TO.P,SW1,2,2*%
%TO.N,V_{ref}*%
X135255000Y-54950000D03*
%TO.P,SW1,3,3*%
%TO.N,+3V3*%
X133255000Y-54950000D03*
%TO.P,SW1,4,4*%
%TO.N,+5V*%
X131255000Y-54950000D03*
%TO.P,SW1,5,5*%
%TO.N,V_{in}*%
X139255000Y-57450000D03*
%TO.P,SW1,6,6*%
%TO.N,V_{ref}*%
X135255000Y-57450000D03*
%TO.P,SW1,7,7*%
%TO.N,+3V3*%
X133255000Y-57450000D03*
%TO.P,SW1,8,8*%
%TO.N,+5V*%
X131255000Y-57450000D03*
D17*
%TO.P,SW1,MH1*%
%TO.N,N/C*%
X141355000Y-56200000D03*
%TO.P,SW1,MH2*%
X129155000Y-56200000D03*
%TD*%
D18*
%TO.N,+5V*%
X117348000Y-58928000D03*
X120142000Y-62230000D03*
X113157000Y-59690000D03*
X113792000Y-58928000D03*
X113157000Y-58928000D03*
X117983000Y-59690000D03*
X113792000Y-59690000D03*
X120142000Y-62992000D03*
X90805000Y-60579000D03*
X117348000Y-59690000D03*
X117983000Y-58928000D03*
X90805000Y-61468000D03*
X121031000Y-62230000D03*
X121031000Y-62992000D03*
%TO.N,GND*%
X112014000Y-108204000D03*
X104140000Y-101346000D03*
X90805000Y-64389000D03*
X112141000Y-58928000D03*
X111379000Y-58928000D03*
X120523000Y-59690000D03*
X104140000Y-106426000D03*
X110617000Y-59690000D03*
X134620000Y-100838000D03*
X94234000Y-105664000D03*
X134620000Y-98806000D03*
X112141000Y-59690000D03*
X142494000Y-105664000D03*
X87249000Y-64389000D03*
X95250000Y-102108000D03*
X110617000Y-58928000D03*
X133604000Y-105918000D03*
X133604000Y-106934000D03*
X86233000Y-64389000D03*
X120523000Y-58928000D03*
X124079000Y-62230000D03*
X119761000Y-59690000D03*
X95250000Y-107188000D03*
X86360000Y-98806000D03*
X103124000Y-105918000D03*
X95250000Y-100076000D03*
X104140000Y-103378000D03*
X111379000Y-59690000D03*
X86360000Y-100838000D03*
X124079000Y-62992000D03*
X103124000Y-106934000D03*
X90805000Y-62738000D03*
X124714000Y-108204000D03*
X134620000Y-105918000D03*
X116840000Y-106426000D03*
X116840000Y-108458000D03*
X124714000Y-107188000D03*
X94234000Y-104648000D03*
X125730000Y-105156000D03*
X118999000Y-59690000D03*
X86360000Y-105918000D03*
X125730000Y-100076000D03*
X95250000Y-105156000D03*
X118999000Y-58928000D03*
X86360000Y-103886000D03*
X134620000Y-103886000D03*
X104140000Y-108458000D03*
X124968000Y-62230000D03*
X142494000Y-104648000D03*
X125730000Y-107188000D03*
X112014000Y-107188000D03*
X119761000Y-58928000D03*
X124968000Y-62992000D03*
X125730000Y-102108000D03*
%TO.N,+3V3*%
X88646000Y-98806000D03*
X127254000Y-100076000D03*
X118110000Y-62230000D03*
X105664000Y-101346000D03*
X118110000Y-62992000D03*
X128016000Y-100076000D03*
X118999000Y-62992000D03*
X118999000Y-62230000D03*
X136144000Y-98806000D03*
X106426000Y-101346000D03*
X119126000Y-101346000D03*
X87884000Y-98806000D03*
X97536000Y-100076000D03*
X114300000Y-101346000D03*
X136906000Y-98806000D03*
X141351000Y-97536000D03*
X96774000Y-100076000D03*
X118364000Y-101346000D03*
%TO.N,V_{ref}*%
X136144000Y-105918000D03*
X88646000Y-105918000D03*
X105664000Y-108458000D03*
X128016000Y-107188000D03*
X106426000Y-108458000D03*
X87884000Y-105918000D03*
X118364000Y-108458000D03*
X96774000Y-107188000D03*
X119126000Y-108458000D03*
X127254000Y-107188000D03*
X136906000Y-105918000D03*
X97536000Y-107188000D03*
%TD*%
%TA.AperFunction,Conductor*%
%TO.N,GND*%
G36*
X145416559Y-51000549D02*
G01*
X145997372Y-51018802D01*
X146003579Y-51019192D01*
X146580581Y-51073734D01*
X146586751Y-51074514D01*
X147159168Y-51165176D01*
X147165258Y-51166338D01*
X147730885Y-51292770D01*
X147736893Y-51294313D01*
X148293447Y-51456007D01*
X148299352Y-51457926D01*
X148844657Y-51654247D01*
X148850407Y-51656523D01*
X149351526Y-51873377D01*
X149382325Y-51886705D01*
X149387952Y-51889353D01*
X149904367Y-52152479D01*
X149909783Y-52155458D01*
X150408634Y-52450477D01*
X150413885Y-52453809D01*
X150893230Y-52779572D01*
X150898262Y-52783228D01*
X151356198Y-53138440D01*
X151360990Y-53142404D01*
X151795719Y-53525669D01*
X151800253Y-53529926D01*
X152210073Y-53939746D01*
X152214330Y-53944280D01*
X152597595Y-54379009D01*
X152601559Y-54383801D01*
X152956771Y-54841737D01*
X152960427Y-54846769D01*
X153286190Y-55326114D01*
X153289522Y-55331365D01*
X153562507Y-55792958D01*
X153584532Y-55830199D01*
X153587529Y-55835649D01*
X153850646Y-56352047D01*
X153853294Y-56357674D01*
X154083469Y-56889576D01*
X154085758Y-56895359D01*
X154282071Y-57440642D01*
X154283993Y-57446557D01*
X154445684Y-58003098D01*
X154447231Y-58009122D01*
X154573659Y-58574732D01*
X154574824Y-58580841D01*
X154665485Y-59153248D01*
X154666265Y-59159418D01*
X154720807Y-59736420D01*
X154721197Y-59742627D01*
X154739451Y-60323440D01*
X154739500Y-60326550D01*
X154739500Y-117473449D01*
X154739451Y-117476559D01*
X154721197Y-118057372D01*
X154720807Y-118063579D01*
X154666265Y-118640581D01*
X154665485Y-118646751D01*
X154574824Y-119219158D01*
X154573659Y-119225267D01*
X154447231Y-119790877D01*
X154445684Y-119796901D01*
X154283993Y-120353442D01*
X154282071Y-120359357D01*
X154085758Y-120904640D01*
X154083469Y-120910423D01*
X153853294Y-121442325D01*
X153850646Y-121447952D01*
X153587529Y-121964350D01*
X153584532Y-121969800D01*
X153289522Y-122468634D01*
X153286190Y-122473885D01*
X152960427Y-122953230D01*
X152956771Y-122958262D01*
X152601559Y-123416198D01*
X152597595Y-123420990D01*
X152214330Y-123855719D01*
X152210073Y-123860253D01*
X151800253Y-124270073D01*
X151795719Y-124274330D01*
X151360990Y-124657595D01*
X151356198Y-124661559D01*
X150898262Y-125016771D01*
X150893230Y-125020427D01*
X150413885Y-125346190D01*
X150408634Y-125349522D01*
X149909800Y-125644532D01*
X149904350Y-125647529D01*
X149387952Y-125910646D01*
X149382325Y-125913294D01*
X148850423Y-126143469D01*
X148844640Y-126145758D01*
X148299357Y-126342071D01*
X148293442Y-126343993D01*
X147736901Y-126505684D01*
X147730877Y-126507231D01*
X147165267Y-126633659D01*
X147159158Y-126634824D01*
X146586751Y-126725485D01*
X146580581Y-126726265D01*
X146003579Y-126780807D01*
X145997372Y-126781197D01*
X145416559Y-126799451D01*
X145413449Y-126799500D01*
X85726551Y-126799500D01*
X85723441Y-126799451D01*
X85142627Y-126781197D01*
X85136420Y-126780807D01*
X84559418Y-126726265D01*
X84553248Y-126725485D01*
X83980841Y-126634824D01*
X83974732Y-126633659D01*
X83409122Y-126507231D01*
X83403098Y-126505684D01*
X82846557Y-126343993D01*
X82840642Y-126342071D01*
X82295359Y-126145758D01*
X82289576Y-126143469D01*
X81757674Y-125913294D01*
X81752047Y-125910646D01*
X81235649Y-125647529D01*
X81230199Y-125644532D01*
X81024265Y-125522743D01*
X80731365Y-125349522D01*
X80726114Y-125346190D01*
X80246769Y-125020427D01*
X80241737Y-125016771D01*
X79783801Y-124661559D01*
X79779009Y-124657595D01*
X79344280Y-124274330D01*
X79339746Y-124270073D01*
X78929926Y-123860253D01*
X78925669Y-123855719D01*
X78542404Y-123420990D01*
X78538440Y-123416198D01*
X78183228Y-122958262D01*
X78179572Y-122953230D01*
X78167860Y-122935996D01*
X87834417Y-122935996D01*
X87834417Y-122936003D01*
X87854698Y-123141929D01*
X87854699Y-123141934D01*
X87914768Y-123339954D01*
X88012316Y-123522452D01*
X88143585Y-123682404D01*
X88143590Y-123682410D01*
X88143595Y-123682414D01*
X88303547Y-123813683D01*
X88303548Y-123813683D01*
X88303550Y-123813685D01*
X88486046Y-123911232D01*
X88623997Y-123953078D01*
X88684065Y-123971300D01*
X88684070Y-123971301D01*
X88889997Y-123991583D01*
X88890000Y-123991583D01*
X88890003Y-123991583D01*
X89095929Y-123971301D01*
X89095934Y-123971300D01*
X89293954Y-123911232D01*
X89476450Y-123813685D01*
X89636410Y-123682410D01*
X89767685Y-123522450D01*
X89865232Y-123339954D01*
X89925300Y-123141934D01*
X89925301Y-123141929D01*
X89945583Y-122936003D01*
X89945583Y-122935996D01*
X90374417Y-122935996D01*
X90374417Y-122936003D01*
X90394698Y-123141929D01*
X90394699Y-123141934D01*
X90454768Y-123339954D01*
X90552316Y-123522452D01*
X90683585Y-123682404D01*
X90683590Y-123682410D01*
X90683595Y-123682414D01*
X90843547Y-123813683D01*
X90843548Y-123813683D01*
X90843550Y-123813685D01*
X91026046Y-123911232D01*
X91163997Y-123953078D01*
X91224065Y-123971300D01*
X91224070Y-123971301D01*
X91429997Y-123991583D01*
X91430000Y-123991583D01*
X91430003Y-123991583D01*
X91635929Y-123971301D01*
X91635934Y-123971300D01*
X91833954Y-123911232D01*
X92016450Y-123813685D01*
X92176410Y-123682410D01*
X92307685Y-123522450D01*
X92405232Y-123339954D01*
X92465300Y-123141934D01*
X92465301Y-123141929D01*
X92485583Y-122936003D01*
X92485583Y-122935996D01*
X92914417Y-122935996D01*
X92914417Y-122936003D01*
X92934698Y-123141929D01*
X92934699Y-123141934D01*
X92994768Y-123339954D01*
X93092316Y-123522452D01*
X93223585Y-123682404D01*
X93223590Y-123682410D01*
X93223595Y-123682414D01*
X93383547Y-123813683D01*
X93383548Y-123813683D01*
X93383550Y-123813685D01*
X93566046Y-123911232D01*
X93703997Y-123953078D01*
X93764065Y-123971300D01*
X93764070Y-123971301D01*
X93969997Y-123991583D01*
X93970000Y-123991583D01*
X93970003Y-123991583D01*
X94175929Y-123971301D01*
X94175934Y-123971300D01*
X94373954Y-123911232D01*
X94556450Y-123813685D01*
X94716410Y-123682410D01*
X94847685Y-123522450D01*
X94945232Y-123339954D01*
X95005300Y-123141934D01*
X95005301Y-123141929D01*
X95025583Y-122936003D01*
X95025583Y-122935996D01*
X95454417Y-122935996D01*
X95454417Y-122936003D01*
X95474698Y-123141929D01*
X95474699Y-123141934D01*
X95534768Y-123339954D01*
X95632316Y-123522452D01*
X95763585Y-123682404D01*
X95763590Y-123682410D01*
X95763595Y-123682414D01*
X95923547Y-123813683D01*
X95923548Y-123813683D01*
X95923550Y-123813685D01*
X96106046Y-123911232D01*
X96243997Y-123953078D01*
X96304065Y-123971300D01*
X96304070Y-123971301D01*
X96509997Y-123991583D01*
X96510000Y-123991583D01*
X96510003Y-123991583D01*
X96715929Y-123971301D01*
X96715934Y-123971300D01*
X96913954Y-123911232D01*
X97096450Y-123813685D01*
X97256410Y-123682410D01*
X97387685Y-123522450D01*
X97485232Y-123339954D01*
X97545300Y-123141934D01*
X97545301Y-123141929D01*
X97565583Y-122936003D01*
X97565583Y-122935996D01*
X103074417Y-122935996D01*
X103074417Y-122936003D01*
X103094698Y-123141929D01*
X103094699Y-123141934D01*
X103154768Y-123339954D01*
X103252316Y-123522452D01*
X103383585Y-123682404D01*
X103383590Y-123682410D01*
X103383595Y-123682414D01*
X103543547Y-123813683D01*
X103543548Y-123813683D01*
X103543550Y-123813685D01*
X103726046Y-123911232D01*
X103863997Y-123953078D01*
X103924065Y-123971300D01*
X103924070Y-123971301D01*
X104129997Y-123991583D01*
X104130000Y-123991583D01*
X104130003Y-123991583D01*
X104335929Y-123971301D01*
X104335934Y-123971300D01*
X104533954Y-123911232D01*
X104716450Y-123813685D01*
X104876410Y-123682410D01*
X105007685Y-123522450D01*
X105105232Y-123339954D01*
X105165300Y-123141934D01*
X105165301Y-123141929D01*
X105185583Y-122936003D01*
X105185583Y-122935996D01*
X105614417Y-122935996D01*
X105614417Y-122936003D01*
X105634698Y-123141929D01*
X105634699Y-123141934D01*
X105694768Y-123339954D01*
X105792316Y-123522452D01*
X105923585Y-123682404D01*
X105923590Y-123682410D01*
X105923595Y-123682414D01*
X106083547Y-123813683D01*
X106083548Y-123813683D01*
X106083550Y-123813685D01*
X106266046Y-123911232D01*
X106403997Y-123953078D01*
X106464065Y-123971300D01*
X106464070Y-123971301D01*
X106669997Y-123991583D01*
X106670000Y-123991583D01*
X106670003Y-123991583D01*
X106875929Y-123971301D01*
X106875934Y-123971300D01*
X107073954Y-123911232D01*
X107256450Y-123813685D01*
X107416410Y-123682410D01*
X107547685Y-123522450D01*
X107645232Y-123339954D01*
X107705300Y-123141934D01*
X107705301Y-123141929D01*
X107725583Y-122936003D01*
X107725583Y-122935996D01*
X108154417Y-122935996D01*
X108154417Y-122936003D01*
X108174698Y-123141929D01*
X108174699Y-123141934D01*
X108234768Y-123339954D01*
X108332316Y-123522452D01*
X108463585Y-123682404D01*
X108463590Y-123682410D01*
X108463595Y-123682414D01*
X108623547Y-123813683D01*
X108623548Y-123813683D01*
X108623550Y-123813685D01*
X108806046Y-123911232D01*
X108943997Y-123953078D01*
X109004065Y-123971300D01*
X109004070Y-123971301D01*
X109209997Y-123991583D01*
X109210000Y-123991583D01*
X109210003Y-123991583D01*
X109415929Y-123971301D01*
X109415934Y-123971300D01*
X109613954Y-123911232D01*
X109796450Y-123813685D01*
X109956410Y-123682410D01*
X110087685Y-123522450D01*
X110185232Y-123339954D01*
X110245300Y-123141934D01*
X110245301Y-123141929D01*
X110265583Y-122936003D01*
X110265583Y-122935996D01*
X110694417Y-122935996D01*
X110694417Y-122936003D01*
X110714698Y-123141929D01*
X110714699Y-123141934D01*
X110774768Y-123339954D01*
X110872316Y-123522452D01*
X111003585Y-123682404D01*
X111003590Y-123682410D01*
X111003595Y-123682414D01*
X111163547Y-123813683D01*
X111163548Y-123813683D01*
X111163550Y-123813685D01*
X111346046Y-123911232D01*
X111483997Y-123953078D01*
X111544065Y-123971300D01*
X111544070Y-123971301D01*
X111749997Y-123991583D01*
X111750000Y-123991583D01*
X111750003Y-123991583D01*
X111955929Y-123971301D01*
X111955934Y-123971300D01*
X112153954Y-123911232D01*
X112336450Y-123813685D01*
X112496410Y-123682410D01*
X112627685Y-123522450D01*
X112725232Y-123339954D01*
X112785300Y-123141934D01*
X112785301Y-123141929D01*
X112805583Y-122936003D01*
X112805583Y-122935996D01*
X118314417Y-122935996D01*
X118314417Y-122936003D01*
X118334698Y-123141929D01*
X118334699Y-123141934D01*
X118394768Y-123339954D01*
X118492316Y-123522452D01*
X118623585Y-123682404D01*
X118623590Y-123682410D01*
X118623595Y-123682414D01*
X118783547Y-123813683D01*
X118783548Y-123813683D01*
X118783550Y-123813685D01*
X118966046Y-123911232D01*
X119103997Y-123953078D01*
X119164065Y-123971300D01*
X119164070Y-123971301D01*
X119369997Y-123991583D01*
X119370000Y-123991583D01*
X119370003Y-123991583D01*
X119575929Y-123971301D01*
X119575934Y-123971300D01*
X119773954Y-123911232D01*
X119956450Y-123813685D01*
X120116410Y-123682410D01*
X120247685Y-123522450D01*
X120345232Y-123339954D01*
X120405300Y-123141934D01*
X120405301Y-123141929D01*
X120425583Y-122936003D01*
X120425583Y-122935996D01*
X120854417Y-122935996D01*
X120854417Y-122936003D01*
X120874698Y-123141929D01*
X120874699Y-123141934D01*
X120934768Y-123339954D01*
X121032316Y-123522452D01*
X121163585Y-123682404D01*
X121163590Y-123682410D01*
X121163595Y-123682414D01*
X121323547Y-123813683D01*
X121323548Y-123813683D01*
X121323550Y-123813685D01*
X121506046Y-123911232D01*
X121643997Y-123953078D01*
X121704065Y-123971300D01*
X121704070Y-123971301D01*
X121909997Y-123991583D01*
X121910000Y-123991583D01*
X121910003Y-123991583D01*
X122115929Y-123971301D01*
X122115934Y-123971300D01*
X122313954Y-123911232D01*
X122496450Y-123813685D01*
X122656410Y-123682410D01*
X122787685Y-123522450D01*
X122885232Y-123339954D01*
X122945300Y-123141934D01*
X122945301Y-123141929D01*
X122965583Y-122936003D01*
X122965583Y-122935996D01*
X123394417Y-122935996D01*
X123394417Y-122936003D01*
X123414698Y-123141929D01*
X123414699Y-123141934D01*
X123474768Y-123339954D01*
X123572316Y-123522452D01*
X123703585Y-123682404D01*
X123703590Y-123682410D01*
X123703595Y-123682414D01*
X123863547Y-123813683D01*
X123863548Y-123813683D01*
X123863550Y-123813685D01*
X124046046Y-123911232D01*
X124183997Y-123953078D01*
X124244065Y-123971300D01*
X124244070Y-123971301D01*
X124449997Y-123991583D01*
X124450000Y-123991583D01*
X124450003Y-123991583D01*
X124655929Y-123971301D01*
X124655934Y-123971300D01*
X124853954Y-123911232D01*
X125036450Y-123813685D01*
X125196410Y-123682410D01*
X125327685Y-123522450D01*
X125425232Y-123339954D01*
X125485300Y-123141934D01*
X125485301Y-123141929D01*
X125505583Y-122936003D01*
X125505583Y-122935996D01*
X125934417Y-122935996D01*
X125934417Y-122936003D01*
X125954698Y-123141929D01*
X125954699Y-123141934D01*
X126014768Y-123339954D01*
X126112316Y-123522452D01*
X126243585Y-123682404D01*
X126243590Y-123682410D01*
X126243595Y-123682414D01*
X126403547Y-123813683D01*
X126403548Y-123813683D01*
X126403550Y-123813685D01*
X126586046Y-123911232D01*
X126723997Y-123953078D01*
X126784065Y-123971300D01*
X126784070Y-123971301D01*
X126989997Y-123991583D01*
X126990000Y-123991583D01*
X126990003Y-123991583D01*
X127195929Y-123971301D01*
X127195934Y-123971300D01*
X127393954Y-123911232D01*
X127576450Y-123813685D01*
X127736410Y-123682410D01*
X127867685Y-123522450D01*
X127965232Y-123339954D01*
X128025300Y-123141934D01*
X128025301Y-123141929D01*
X128045583Y-122936003D01*
X128045583Y-122935996D01*
X133554417Y-122935996D01*
X133554417Y-122936003D01*
X133574698Y-123141929D01*
X133574699Y-123141934D01*
X133634768Y-123339954D01*
X133732316Y-123522452D01*
X133863585Y-123682404D01*
X133863590Y-123682410D01*
X133863595Y-123682414D01*
X134023547Y-123813683D01*
X134023548Y-123813683D01*
X134023550Y-123813685D01*
X134206046Y-123911232D01*
X134343997Y-123953078D01*
X134404065Y-123971300D01*
X134404070Y-123971301D01*
X134609997Y-123991583D01*
X134610000Y-123991583D01*
X134610003Y-123991583D01*
X134815929Y-123971301D01*
X134815934Y-123971300D01*
X135013954Y-123911232D01*
X135196450Y-123813685D01*
X135356410Y-123682410D01*
X135487685Y-123522450D01*
X135585232Y-123339954D01*
X135645300Y-123141934D01*
X135645301Y-123141929D01*
X135665583Y-122936003D01*
X135665583Y-122935996D01*
X136094417Y-122935996D01*
X136094417Y-122936003D01*
X136114698Y-123141929D01*
X136114699Y-123141934D01*
X136174768Y-123339954D01*
X136272316Y-123522452D01*
X136403585Y-123682404D01*
X136403590Y-123682410D01*
X136403595Y-123682414D01*
X136563547Y-123813683D01*
X136563548Y-123813683D01*
X136563550Y-123813685D01*
X136746046Y-123911232D01*
X136883997Y-123953078D01*
X136944065Y-123971300D01*
X136944070Y-123971301D01*
X137149997Y-123991583D01*
X137150000Y-123991583D01*
X137150003Y-123991583D01*
X137355929Y-123971301D01*
X137355934Y-123971300D01*
X137553954Y-123911232D01*
X137736450Y-123813685D01*
X137896410Y-123682410D01*
X138027685Y-123522450D01*
X138125232Y-123339954D01*
X138185300Y-123141934D01*
X138185301Y-123141929D01*
X138205583Y-122936003D01*
X138205583Y-122935996D01*
X138634417Y-122935996D01*
X138634417Y-122936003D01*
X138654698Y-123141929D01*
X138654699Y-123141934D01*
X138714768Y-123339954D01*
X138812316Y-123522452D01*
X138943585Y-123682404D01*
X138943590Y-123682410D01*
X138943595Y-123682414D01*
X139103547Y-123813683D01*
X139103548Y-123813683D01*
X139103550Y-123813685D01*
X139286046Y-123911232D01*
X139423997Y-123953078D01*
X139484065Y-123971300D01*
X139484070Y-123971301D01*
X139689997Y-123991583D01*
X139690000Y-123991583D01*
X139690003Y-123991583D01*
X139895929Y-123971301D01*
X139895934Y-123971300D01*
X140093954Y-123911232D01*
X140276450Y-123813685D01*
X140436410Y-123682410D01*
X140567685Y-123522450D01*
X140665232Y-123339954D01*
X140725300Y-123141934D01*
X140725301Y-123141929D01*
X140745583Y-122936003D01*
X140745583Y-122935996D01*
X141174417Y-122935996D01*
X141174417Y-122936003D01*
X141194698Y-123141929D01*
X141194699Y-123141934D01*
X141254768Y-123339954D01*
X141352316Y-123522452D01*
X141483585Y-123682404D01*
X141483590Y-123682410D01*
X141483595Y-123682414D01*
X141643547Y-123813683D01*
X141643548Y-123813683D01*
X141643550Y-123813685D01*
X141826046Y-123911232D01*
X141963997Y-123953078D01*
X142024065Y-123971300D01*
X142024070Y-123971301D01*
X142229997Y-123991583D01*
X142230000Y-123991583D01*
X142230003Y-123991583D01*
X142435929Y-123971301D01*
X142435934Y-123971300D01*
X142633954Y-123911232D01*
X142816450Y-123813685D01*
X142976410Y-123682410D01*
X143107685Y-123522450D01*
X143205232Y-123339954D01*
X143265300Y-123141934D01*
X143265301Y-123141929D01*
X143285583Y-122936003D01*
X143285583Y-122935996D01*
X143265301Y-122730070D01*
X143265300Y-122730065D01*
X143247078Y-122669997D01*
X143205232Y-122532046D01*
X143107685Y-122349550D01*
X142976410Y-122189590D01*
X142976404Y-122189585D01*
X142816452Y-122058316D01*
X142633954Y-121960768D01*
X142435934Y-121900699D01*
X142435929Y-121900698D01*
X142230003Y-121880417D01*
X142229997Y-121880417D01*
X142024070Y-121900698D01*
X142024065Y-121900699D01*
X141826045Y-121960768D01*
X141643547Y-122058316D01*
X141483595Y-122189585D01*
X141483585Y-122189595D01*
X141352316Y-122349547D01*
X141254768Y-122532045D01*
X141194699Y-122730065D01*
X141194698Y-122730070D01*
X141174417Y-122935996D01*
X140745583Y-122935996D01*
X140725301Y-122730070D01*
X140725300Y-122730065D01*
X140707078Y-122669997D01*
X140665232Y-122532046D01*
X140567685Y-122349550D01*
X140436410Y-122189590D01*
X140436404Y-122189585D01*
X140276452Y-122058316D01*
X140093954Y-121960768D01*
X139895934Y-121900699D01*
X139895929Y-121900698D01*
X139690003Y-121880417D01*
X139689997Y-121880417D01*
X139484070Y-121900698D01*
X139484065Y-121900699D01*
X139286045Y-121960768D01*
X139103547Y-122058316D01*
X138943595Y-122189585D01*
X138943585Y-122189595D01*
X138812316Y-122349547D01*
X138714768Y-122532045D01*
X138654699Y-122730065D01*
X138654698Y-122730070D01*
X138634417Y-122935996D01*
X138205583Y-122935996D01*
X138185301Y-122730070D01*
X138185300Y-122730065D01*
X138167078Y-122669997D01*
X138125232Y-122532046D01*
X138027685Y-122349550D01*
X137896410Y-122189590D01*
X137896404Y-122189585D01*
X137736452Y-122058316D01*
X137553954Y-121960768D01*
X137355934Y-121900699D01*
X137355929Y-121900698D01*
X137150003Y-121880417D01*
X137149997Y-121880417D01*
X136944070Y-121900698D01*
X136944065Y-121900699D01*
X136746045Y-121960768D01*
X136563547Y-122058316D01*
X136403595Y-122189585D01*
X136403585Y-122189595D01*
X136272316Y-122349547D01*
X136174768Y-122532045D01*
X136114699Y-122730065D01*
X136114698Y-122730070D01*
X136094417Y-122935996D01*
X135665583Y-122935996D01*
X135645301Y-122730070D01*
X135645300Y-122730065D01*
X135627078Y-122669997D01*
X135585232Y-122532046D01*
X135487685Y-122349550D01*
X135356410Y-122189590D01*
X135356404Y-122189585D01*
X135196452Y-122058316D01*
X135013954Y-121960768D01*
X134815934Y-121900699D01*
X134815929Y-121900698D01*
X134610003Y-121880417D01*
X134609997Y-121880417D01*
X134404070Y-121900698D01*
X134404065Y-121900699D01*
X134206045Y-121960768D01*
X134023547Y-122058316D01*
X133863595Y-122189585D01*
X133863585Y-122189595D01*
X133732316Y-122349547D01*
X133634768Y-122532045D01*
X133574699Y-122730065D01*
X133574698Y-122730070D01*
X133554417Y-122935996D01*
X128045583Y-122935996D01*
X128025301Y-122730070D01*
X128025300Y-122730065D01*
X128007078Y-122669997D01*
X127965232Y-122532046D01*
X127867685Y-122349550D01*
X127736410Y-122189590D01*
X127736404Y-122189585D01*
X127576452Y-122058316D01*
X127393954Y-121960768D01*
X127195934Y-121900699D01*
X127195929Y-121900698D01*
X126990003Y-121880417D01*
X126989997Y-121880417D01*
X126784070Y-121900698D01*
X126784065Y-121900699D01*
X126586045Y-121960768D01*
X126403547Y-122058316D01*
X126243595Y-122189585D01*
X126243585Y-122189595D01*
X126112316Y-122349547D01*
X126014768Y-122532045D01*
X125954699Y-122730065D01*
X125954698Y-122730070D01*
X125934417Y-122935996D01*
X125505583Y-122935996D01*
X125485301Y-122730070D01*
X125485300Y-122730065D01*
X125467078Y-122669997D01*
X125425232Y-122532046D01*
X125327685Y-122349550D01*
X125196410Y-122189590D01*
X125196404Y-122189585D01*
X125036452Y-122058316D01*
X124853954Y-121960768D01*
X124655934Y-121900699D01*
X124655929Y-121900698D01*
X124450003Y-121880417D01*
X124449997Y-121880417D01*
X124244070Y-121900698D01*
X124244065Y-121900699D01*
X124046045Y-121960768D01*
X123863547Y-122058316D01*
X123703595Y-122189585D01*
X123703585Y-122189595D01*
X123572316Y-122349547D01*
X123474768Y-122532045D01*
X123414699Y-122730065D01*
X123414698Y-122730070D01*
X123394417Y-122935996D01*
X122965583Y-122935996D01*
X122945301Y-122730070D01*
X122945300Y-122730065D01*
X122927078Y-122669997D01*
X122885232Y-122532046D01*
X122787685Y-122349550D01*
X122656410Y-122189590D01*
X122656404Y-122189585D01*
X122496452Y-122058316D01*
X122313954Y-121960768D01*
X122115934Y-121900699D01*
X122115929Y-121900698D01*
X121910003Y-121880417D01*
X121909997Y-121880417D01*
X121704070Y-121900698D01*
X121704065Y-121900699D01*
X121506045Y-121960768D01*
X121323547Y-122058316D01*
X121163595Y-122189585D01*
X121163585Y-122189595D01*
X121032316Y-122349547D01*
X120934768Y-122532045D01*
X120874699Y-122730065D01*
X120874698Y-122730070D01*
X120854417Y-122935996D01*
X120425583Y-122935996D01*
X120405301Y-122730070D01*
X120405300Y-122730065D01*
X120387078Y-122669997D01*
X120345232Y-122532046D01*
X120247685Y-122349550D01*
X120116410Y-122189590D01*
X120116404Y-122189585D01*
X119956452Y-122058316D01*
X119773954Y-121960768D01*
X119575934Y-121900699D01*
X119575929Y-121900698D01*
X119370003Y-121880417D01*
X119369997Y-121880417D01*
X119164070Y-121900698D01*
X119164065Y-121900699D01*
X118966045Y-121960768D01*
X118783547Y-122058316D01*
X118623595Y-122189585D01*
X118623585Y-122189595D01*
X118492316Y-122349547D01*
X118394768Y-122532045D01*
X118334699Y-122730065D01*
X118334698Y-122730070D01*
X118314417Y-122935996D01*
X112805583Y-122935996D01*
X112785301Y-122730070D01*
X112785300Y-122730065D01*
X112767078Y-122669997D01*
X112725232Y-122532046D01*
X112627685Y-122349550D01*
X112496410Y-122189590D01*
X112496404Y-122189585D01*
X112336452Y-122058316D01*
X112153954Y-121960768D01*
X111955934Y-121900699D01*
X111955929Y-121900698D01*
X111750003Y-121880417D01*
X111749997Y-121880417D01*
X111544070Y-121900698D01*
X111544065Y-121900699D01*
X111346045Y-121960768D01*
X111163547Y-122058316D01*
X111003595Y-122189585D01*
X111003585Y-122189595D01*
X110872316Y-122349547D01*
X110774768Y-122532045D01*
X110714699Y-122730065D01*
X110714698Y-122730070D01*
X110694417Y-122935996D01*
X110265583Y-122935996D01*
X110245301Y-122730070D01*
X110245300Y-122730065D01*
X110227078Y-122669997D01*
X110185232Y-122532046D01*
X110087685Y-122349550D01*
X109956410Y-122189590D01*
X109956404Y-122189585D01*
X109796452Y-122058316D01*
X109613954Y-121960768D01*
X109415934Y-121900699D01*
X109415929Y-121900698D01*
X109210003Y-121880417D01*
X109209997Y-121880417D01*
X109004070Y-121900698D01*
X109004065Y-121900699D01*
X108806045Y-121960768D01*
X108623547Y-122058316D01*
X108463595Y-122189585D01*
X108463585Y-122189595D01*
X108332316Y-122349547D01*
X108234768Y-122532045D01*
X108174699Y-122730065D01*
X108174698Y-122730070D01*
X108154417Y-122935996D01*
X107725583Y-122935996D01*
X107705301Y-122730070D01*
X107705300Y-122730065D01*
X107687078Y-122669997D01*
X107645232Y-122532046D01*
X107547685Y-122349550D01*
X107416410Y-122189590D01*
X107416404Y-122189585D01*
X107256452Y-122058316D01*
X107073954Y-121960768D01*
X106875934Y-121900699D01*
X106875929Y-121900698D01*
X106670003Y-121880417D01*
X106669997Y-121880417D01*
X106464070Y-121900698D01*
X106464065Y-121900699D01*
X106266045Y-121960768D01*
X106083547Y-122058316D01*
X105923595Y-122189585D01*
X105923585Y-122189595D01*
X105792316Y-122349547D01*
X105694768Y-122532045D01*
X105634699Y-122730065D01*
X105634698Y-122730070D01*
X105614417Y-122935996D01*
X105185583Y-122935996D01*
X105165301Y-122730070D01*
X105165300Y-122730065D01*
X105147078Y-122669997D01*
X105105232Y-122532046D01*
X105007685Y-122349550D01*
X104876410Y-122189590D01*
X104876404Y-122189585D01*
X104716452Y-122058316D01*
X104533954Y-121960768D01*
X104335934Y-121900699D01*
X104335929Y-121900698D01*
X104130003Y-121880417D01*
X104129997Y-121880417D01*
X103924070Y-121900698D01*
X103924065Y-121900699D01*
X103726045Y-121960768D01*
X103543547Y-122058316D01*
X103383595Y-122189585D01*
X103383585Y-122189595D01*
X103252316Y-122349547D01*
X103154768Y-122532045D01*
X103094699Y-122730065D01*
X103094698Y-122730070D01*
X103074417Y-122935996D01*
X97565583Y-122935996D01*
X97545301Y-122730070D01*
X97545300Y-122730065D01*
X97527078Y-122669997D01*
X97485232Y-122532046D01*
X97387685Y-122349550D01*
X97256410Y-122189590D01*
X97256404Y-122189585D01*
X97096452Y-122058316D01*
X96913954Y-121960768D01*
X96715934Y-121900699D01*
X96715929Y-121900698D01*
X96510003Y-121880417D01*
X96509997Y-121880417D01*
X96304070Y-121900698D01*
X96304065Y-121900699D01*
X96106045Y-121960768D01*
X95923547Y-122058316D01*
X95763595Y-122189585D01*
X95763585Y-122189595D01*
X95632316Y-122349547D01*
X95534768Y-122532045D01*
X95474699Y-122730065D01*
X95474698Y-122730070D01*
X95454417Y-122935996D01*
X95025583Y-122935996D01*
X95005301Y-122730070D01*
X95005300Y-122730065D01*
X94987078Y-122669997D01*
X94945232Y-122532046D01*
X94847685Y-122349550D01*
X94716410Y-122189590D01*
X94716404Y-122189585D01*
X94556452Y-122058316D01*
X94373954Y-121960768D01*
X94175934Y-121900699D01*
X94175929Y-121900698D01*
X93970003Y-121880417D01*
X93969997Y-121880417D01*
X93764070Y-121900698D01*
X93764065Y-121900699D01*
X93566045Y-121960768D01*
X93383547Y-122058316D01*
X93223595Y-122189585D01*
X93223585Y-122189595D01*
X93092316Y-122349547D01*
X92994768Y-122532045D01*
X92934699Y-122730065D01*
X92934698Y-122730070D01*
X92914417Y-122935996D01*
X92485583Y-122935996D01*
X92465301Y-122730070D01*
X92465300Y-122730065D01*
X92447078Y-122669997D01*
X92405232Y-122532046D01*
X92307685Y-122349550D01*
X92176410Y-122189590D01*
X92176404Y-122189585D01*
X92016452Y-122058316D01*
X91833954Y-121960768D01*
X91635934Y-121900699D01*
X91635929Y-121900698D01*
X91430003Y-121880417D01*
X91429997Y-121880417D01*
X91224070Y-121900698D01*
X91224065Y-121900699D01*
X91026045Y-121960768D01*
X90843547Y-122058316D01*
X90683595Y-122189585D01*
X90683585Y-122189595D01*
X90552316Y-122349547D01*
X90454768Y-122532045D01*
X90394699Y-122730065D01*
X90394698Y-122730070D01*
X90374417Y-122935996D01*
X89945583Y-122935996D01*
X89925301Y-122730070D01*
X89925300Y-122730065D01*
X89907078Y-122669997D01*
X89865232Y-122532046D01*
X89767685Y-122349550D01*
X89636410Y-122189590D01*
X89636404Y-122189585D01*
X89476452Y-122058316D01*
X89293954Y-121960768D01*
X89095934Y-121900699D01*
X89095929Y-121900698D01*
X88890003Y-121880417D01*
X88889997Y-121880417D01*
X88684070Y-121900698D01*
X88684065Y-121900699D01*
X88486045Y-121960768D01*
X88303547Y-122058316D01*
X88143595Y-122189585D01*
X88143585Y-122189595D01*
X88012316Y-122349547D01*
X87914768Y-122532045D01*
X87854699Y-122730065D01*
X87854698Y-122730070D01*
X87834417Y-122935996D01*
X78167860Y-122935996D01*
X77853809Y-122473885D01*
X77850477Y-122468634D01*
X77685448Y-122189585D01*
X77555458Y-121969783D01*
X77552479Y-121964367D01*
X77289353Y-121447952D01*
X77286705Y-121442325D01*
X77213727Y-121273683D01*
X77056523Y-120910407D01*
X77054247Y-120904657D01*
X76857926Y-120359352D01*
X76856006Y-120353442D01*
X76849246Y-120330174D01*
X76694313Y-119796893D01*
X76692768Y-119790877D01*
X76633618Y-119526253D01*
X87839500Y-119526253D01*
X87839500Y-121265746D01*
X87839501Y-121265758D01*
X87851132Y-121324227D01*
X87851134Y-121324233D01*
X87891668Y-121384895D01*
X87895448Y-121390552D01*
X87961769Y-121434867D01*
X87999263Y-121442325D01*
X88020241Y-121446498D01*
X88020246Y-121446498D01*
X88020252Y-121446500D01*
X88020253Y-121446500D01*
X89759747Y-121446500D01*
X89759748Y-121446500D01*
X89818231Y-121434867D01*
X89884552Y-121390552D01*
X89928867Y-121324231D01*
X89940500Y-121265748D01*
X89940500Y-120395996D01*
X90374417Y-120395996D01*
X90374417Y-120396003D01*
X90394698Y-120601929D01*
X90394699Y-120601934D01*
X90454768Y-120799954D01*
X90552316Y-120982452D01*
X90683585Y-121142404D01*
X90683590Y-121142410D01*
X90683595Y-121142414D01*
X90843547Y-121273683D01*
X90843548Y-121273683D01*
X90843550Y-121273685D01*
X91026046Y-121371232D01*
X91163997Y-121413078D01*
X91224065Y-121431300D01*
X91224070Y-121431301D01*
X91429997Y-121451583D01*
X91430000Y-121451583D01*
X91430003Y-121451583D01*
X91635929Y-121431301D01*
X91635934Y-121431300D01*
X91833954Y-121371232D01*
X92016450Y-121273685D01*
X92176410Y-121142410D01*
X92307685Y-120982450D01*
X92405232Y-120799954D01*
X92465300Y-120601934D01*
X92465301Y-120601929D01*
X92485583Y-120396003D01*
X92485583Y-120395996D01*
X92914417Y-120395996D01*
X92914417Y-120396003D01*
X92934698Y-120601929D01*
X92934699Y-120601934D01*
X92994768Y-120799954D01*
X93092316Y-120982452D01*
X93223585Y-121142404D01*
X93223590Y-121142410D01*
X93223595Y-121142414D01*
X93383547Y-121273683D01*
X93383548Y-121273683D01*
X93383550Y-121273685D01*
X93566046Y-121371232D01*
X93703997Y-121413078D01*
X93764065Y-121431300D01*
X93764070Y-121431301D01*
X93969997Y-121451583D01*
X93970000Y-121451583D01*
X93970003Y-121451583D01*
X94175929Y-121431301D01*
X94175934Y-121431300D01*
X94373954Y-121371232D01*
X94556450Y-121273685D01*
X94716410Y-121142410D01*
X94847685Y-120982450D01*
X94945232Y-120799954D01*
X95005300Y-120601934D01*
X95005301Y-120601929D01*
X95025583Y-120396003D01*
X95025583Y-120396000D01*
X95405287Y-120396000D01*
X95424097Y-120598989D01*
X95479887Y-120795070D01*
X95570751Y-120977551D01*
X95572532Y-120979911D01*
X96027036Y-120525406D01*
X96044075Y-120588993D01*
X96109901Y-120703007D01*
X96202993Y-120796099D01*
X96317007Y-120861925D01*
X96380590Y-120878962D01*
X95929312Y-121330241D01*
X96017581Y-121384895D01*
X96017586Y-121384898D01*
X96207683Y-121458541D01*
X96408070Y-121496000D01*
X96611930Y-121496000D01*
X96812316Y-121458541D01*
X97002415Y-121384897D01*
X97002416Y-121384897D01*
X97090686Y-121330241D01*
X96639407Y-120878962D01*
X96702993Y-120861925D01*
X96817007Y-120796099D01*
X96910099Y-120703007D01*
X96975925Y-120588993D01*
X96992962Y-120525407D01*
X97447466Y-120979911D01*
X97449245Y-120977556D01*
X97449249Y-120977549D01*
X97540112Y-120795070D01*
X97595902Y-120598989D01*
X97614712Y-120396000D01*
X97595902Y-120193010D01*
X97540112Y-119996929D01*
X97449249Y-119814450D01*
X97449244Y-119814441D01*
X97447466Y-119812087D01*
X96992962Y-120266590D01*
X96975925Y-120203007D01*
X96910099Y-120088993D01*
X96817007Y-119995901D01*
X96702993Y-119930075D01*
X96639406Y-119913036D01*
X97026190Y-119526253D01*
X103079500Y-119526253D01*
X103079500Y-121265746D01*
X103079501Y-121265758D01*
X103091132Y-121324227D01*
X103091134Y-121324233D01*
X103131668Y-121384895D01*
X103135448Y-121390552D01*
X103201769Y-121434867D01*
X103239263Y-121442325D01*
X103260241Y-121446498D01*
X103260246Y-121446498D01*
X103260252Y-121446500D01*
X103260253Y-121446500D01*
X104999747Y-121446500D01*
X104999748Y-121446500D01*
X105058231Y-121434867D01*
X105124552Y-121390552D01*
X105168867Y-121324231D01*
X105180500Y-121265748D01*
X105180500Y-120395996D01*
X105614417Y-120395996D01*
X105614417Y-120396003D01*
X105634698Y-120601929D01*
X105634699Y-120601934D01*
X105694768Y-120799954D01*
X105792316Y-120982452D01*
X105923585Y-121142404D01*
X105923590Y-121142410D01*
X105923595Y-121142414D01*
X106083547Y-121273683D01*
X106083548Y-121273683D01*
X106083550Y-121273685D01*
X106266046Y-121371232D01*
X106403997Y-121413078D01*
X106464065Y-121431300D01*
X106464070Y-121431301D01*
X106669997Y-121451583D01*
X106670000Y-121451583D01*
X106670003Y-121451583D01*
X106875929Y-121431301D01*
X106875934Y-121431300D01*
X107073954Y-121371232D01*
X107256450Y-121273685D01*
X107416410Y-121142410D01*
X107547685Y-120982450D01*
X107645232Y-120799954D01*
X107705300Y-120601934D01*
X107705301Y-120601929D01*
X107725583Y-120396003D01*
X107725583Y-120395996D01*
X108154417Y-120395996D01*
X108154417Y-120396003D01*
X108174698Y-120601929D01*
X108174699Y-120601934D01*
X108234768Y-120799954D01*
X108332316Y-120982452D01*
X108463585Y-121142404D01*
X108463590Y-121142410D01*
X108463595Y-121142414D01*
X108623547Y-121273683D01*
X108623548Y-121273683D01*
X108623550Y-121273685D01*
X108806046Y-121371232D01*
X108943997Y-121413078D01*
X109004065Y-121431300D01*
X109004070Y-121431301D01*
X109209997Y-121451583D01*
X109210000Y-121451583D01*
X109210003Y-121451583D01*
X109415929Y-121431301D01*
X109415934Y-121431300D01*
X109613954Y-121371232D01*
X109796450Y-121273685D01*
X109956410Y-121142410D01*
X110087685Y-120982450D01*
X110185232Y-120799954D01*
X110245300Y-120601934D01*
X110245301Y-120601929D01*
X110265583Y-120396003D01*
X110265583Y-120396000D01*
X110645287Y-120396000D01*
X110664097Y-120598989D01*
X110719887Y-120795070D01*
X110810751Y-120977551D01*
X110812532Y-120979911D01*
X111267036Y-120525406D01*
X111284075Y-120588993D01*
X111349901Y-120703007D01*
X111442993Y-120796099D01*
X111557007Y-120861925D01*
X111620590Y-120878962D01*
X111169312Y-121330241D01*
X111257581Y-121384895D01*
X111257586Y-121384898D01*
X111447683Y-121458541D01*
X111648070Y-121496000D01*
X111851930Y-121496000D01*
X112052316Y-121458541D01*
X112242415Y-121384897D01*
X112242416Y-121384897D01*
X112330686Y-121330241D01*
X111879407Y-120878962D01*
X111942993Y-120861925D01*
X112057007Y-120796099D01*
X112150099Y-120703007D01*
X112215925Y-120588993D01*
X112232962Y-120525407D01*
X112687466Y-120979911D01*
X112689245Y-120977556D01*
X112689249Y-120977549D01*
X112780112Y-120795070D01*
X112835902Y-120598989D01*
X112854712Y-120396000D01*
X112835902Y-120193010D01*
X112780112Y-119996929D01*
X112689249Y-119814450D01*
X112689244Y-119814441D01*
X112687466Y-119812087D01*
X112232962Y-120266590D01*
X112215925Y-120203007D01*
X112150099Y-120088993D01*
X112057007Y-119995901D01*
X111942993Y-119930075D01*
X111879406Y-119913036D01*
X112266190Y-119526253D01*
X118319500Y-119526253D01*
X118319500Y-121265746D01*
X118319501Y-121265758D01*
X118331132Y-121324227D01*
X118331134Y-121324233D01*
X118371668Y-121384895D01*
X118375448Y-121390552D01*
X118441769Y-121434867D01*
X118479263Y-121442325D01*
X118500241Y-121446498D01*
X118500246Y-121446498D01*
X118500252Y-121446500D01*
X118500253Y-121446500D01*
X120239747Y-121446500D01*
X120239748Y-121446500D01*
X120298231Y-121434867D01*
X120364552Y-121390552D01*
X120408867Y-121324231D01*
X120420500Y-121265748D01*
X120420500Y-120395996D01*
X120854417Y-120395996D01*
X120854417Y-120396003D01*
X120874698Y-120601929D01*
X120874699Y-120601934D01*
X120934768Y-120799954D01*
X121032316Y-120982452D01*
X121163585Y-121142404D01*
X121163590Y-121142410D01*
X121163595Y-121142414D01*
X121323547Y-121273683D01*
X121323548Y-121273683D01*
X121323550Y-121273685D01*
X121506046Y-121371232D01*
X121643997Y-121413078D01*
X121704065Y-121431300D01*
X121704070Y-121431301D01*
X121909997Y-121451583D01*
X121910000Y-121451583D01*
X121910003Y-121451583D01*
X122115929Y-121431301D01*
X122115934Y-121431300D01*
X122313954Y-121371232D01*
X122496450Y-121273685D01*
X122656410Y-121142410D01*
X122787685Y-120982450D01*
X122885232Y-120799954D01*
X122945300Y-120601934D01*
X122945301Y-120601929D01*
X122965583Y-120396003D01*
X122965583Y-120395996D01*
X123394417Y-120395996D01*
X123394417Y-120396003D01*
X123414698Y-120601929D01*
X123414699Y-120601934D01*
X123474768Y-120799954D01*
X123572316Y-120982452D01*
X123703585Y-121142404D01*
X123703590Y-121142410D01*
X123703595Y-121142414D01*
X123863547Y-121273683D01*
X123863548Y-121273683D01*
X123863550Y-121273685D01*
X124046046Y-121371232D01*
X124183997Y-121413078D01*
X124244065Y-121431300D01*
X124244070Y-121431301D01*
X124449997Y-121451583D01*
X124450000Y-121451583D01*
X124450003Y-121451583D01*
X124655929Y-121431301D01*
X124655934Y-121431300D01*
X124853954Y-121371232D01*
X125036450Y-121273685D01*
X125196410Y-121142410D01*
X125327685Y-120982450D01*
X125425232Y-120799954D01*
X125485300Y-120601934D01*
X125485301Y-120601929D01*
X125505583Y-120396003D01*
X125505583Y-120396000D01*
X125885287Y-120396000D01*
X125904097Y-120598989D01*
X125959887Y-120795070D01*
X126050751Y-120977551D01*
X126052532Y-120979911D01*
X126507036Y-120525406D01*
X126524075Y-120588993D01*
X126589901Y-120703007D01*
X126682993Y-120796099D01*
X126797007Y-120861925D01*
X126860590Y-120878962D01*
X126409312Y-121330241D01*
X126497581Y-121384895D01*
X126497586Y-121384898D01*
X126687683Y-121458541D01*
X126888070Y-121496000D01*
X127091930Y-121496000D01*
X127292316Y-121458541D01*
X127482415Y-121384897D01*
X127482416Y-121384897D01*
X127570686Y-121330241D01*
X127119407Y-120878962D01*
X127182993Y-120861925D01*
X127297007Y-120796099D01*
X127390099Y-120703007D01*
X127455925Y-120588993D01*
X127472962Y-120525407D01*
X127927466Y-120979911D01*
X127929245Y-120977556D01*
X127929249Y-120977549D01*
X128020112Y-120795070D01*
X128075902Y-120598989D01*
X128094712Y-120396000D01*
X128075902Y-120193010D01*
X128020112Y-119996929D01*
X127929249Y-119814450D01*
X127929244Y-119814441D01*
X127927466Y-119812087D01*
X127472962Y-120266590D01*
X127455925Y-120203007D01*
X127390099Y-120088993D01*
X127297007Y-119995901D01*
X127182993Y-119930075D01*
X127119406Y-119913036D01*
X127506190Y-119526253D01*
X133559500Y-119526253D01*
X133559500Y-121265746D01*
X133559501Y-121265758D01*
X133571132Y-121324227D01*
X133571134Y-121324233D01*
X133611668Y-121384895D01*
X133615448Y-121390552D01*
X133681769Y-121434867D01*
X133719263Y-121442325D01*
X133740241Y-121446498D01*
X133740246Y-121446498D01*
X133740252Y-121446500D01*
X133740253Y-121446500D01*
X135479747Y-121446500D01*
X135479748Y-121446500D01*
X135538231Y-121434867D01*
X135604552Y-121390552D01*
X135648867Y-121324231D01*
X135660500Y-121265748D01*
X135660500Y-120395996D01*
X136094417Y-120395996D01*
X136094417Y-120396003D01*
X136114698Y-120601929D01*
X136114699Y-120601934D01*
X136174768Y-120799954D01*
X136272316Y-120982452D01*
X136403585Y-121142404D01*
X136403590Y-121142410D01*
X136403595Y-121142414D01*
X136563547Y-121273683D01*
X136563548Y-121273683D01*
X136563550Y-121273685D01*
X136746046Y-121371232D01*
X136883997Y-121413078D01*
X136944065Y-121431300D01*
X136944070Y-121431301D01*
X137149997Y-121451583D01*
X137150000Y-121451583D01*
X137150003Y-121451583D01*
X137355929Y-121431301D01*
X137355934Y-121431300D01*
X137553954Y-121371232D01*
X137736450Y-121273685D01*
X137896410Y-121142410D01*
X138027685Y-120982450D01*
X138125232Y-120799954D01*
X138185300Y-120601934D01*
X138185301Y-120601929D01*
X138205583Y-120396003D01*
X138205583Y-120395996D01*
X138634417Y-120395996D01*
X138634417Y-120396003D01*
X138654698Y-120601929D01*
X138654699Y-120601934D01*
X138714768Y-120799954D01*
X138812316Y-120982452D01*
X138943585Y-121142404D01*
X138943590Y-121142410D01*
X138943595Y-121142414D01*
X139103547Y-121273683D01*
X139103548Y-121273683D01*
X139103550Y-121273685D01*
X139286046Y-121371232D01*
X139423997Y-121413078D01*
X139484065Y-121431300D01*
X139484070Y-121431301D01*
X139689997Y-121451583D01*
X139690000Y-121451583D01*
X139690003Y-121451583D01*
X139895929Y-121431301D01*
X139895934Y-121431300D01*
X140093954Y-121371232D01*
X140276450Y-121273685D01*
X140436410Y-121142410D01*
X140567685Y-120982450D01*
X140665232Y-120799954D01*
X140725300Y-120601934D01*
X140725301Y-120601929D01*
X140745583Y-120396003D01*
X140745583Y-120396000D01*
X141125287Y-120396000D01*
X141144097Y-120598989D01*
X141199887Y-120795070D01*
X141290751Y-120977551D01*
X141292532Y-120979911D01*
X141747036Y-120525406D01*
X141764075Y-120588993D01*
X141829901Y-120703007D01*
X141922993Y-120796099D01*
X142037007Y-120861925D01*
X142100590Y-120878962D01*
X141649312Y-121330241D01*
X141737581Y-121384895D01*
X141737586Y-121384898D01*
X141927683Y-121458541D01*
X142128070Y-121496000D01*
X142331930Y-121496000D01*
X142532316Y-121458541D01*
X142722415Y-121384897D01*
X142722416Y-121384897D01*
X142810686Y-121330241D01*
X142359407Y-120878962D01*
X142422993Y-120861925D01*
X142537007Y-120796099D01*
X142630099Y-120703007D01*
X142695925Y-120588993D01*
X142712962Y-120525407D01*
X143167466Y-120979911D01*
X143169245Y-120977556D01*
X143169249Y-120977549D01*
X143260112Y-120795070D01*
X143315902Y-120598989D01*
X143334712Y-120396000D01*
X143315902Y-120193010D01*
X143260112Y-119996929D01*
X143169249Y-119814450D01*
X143169244Y-119814441D01*
X143167466Y-119812087D01*
X142712962Y-120266590D01*
X142695925Y-120203007D01*
X142630099Y-120088993D01*
X142537007Y-119995901D01*
X142422993Y-119930075D01*
X142359406Y-119913036D01*
X142810686Y-119461757D01*
X142722418Y-119407104D01*
X142722413Y-119407101D01*
X142532316Y-119333458D01*
X142331930Y-119296000D01*
X142128070Y-119296000D01*
X141927683Y-119333458D01*
X141737586Y-119407101D01*
X141737584Y-119407102D01*
X141649312Y-119461757D01*
X142100592Y-119913037D01*
X142037007Y-119930075D01*
X141922993Y-119995901D01*
X141829901Y-120088993D01*
X141764075Y-120203007D01*
X141747037Y-120266591D01*
X141292533Y-119812087D01*
X141290753Y-119814445D01*
X141290750Y-119814449D01*
X141199887Y-119996929D01*
X141144097Y-120193010D01*
X141125287Y-120396000D01*
X140745583Y-120396000D01*
X140745583Y-120395996D01*
X140725301Y-120190070D01*
X140725300Y-120190065D01*
X140694640Y-120088993D01*
X140665232Y-119992046D01*
X140567685Y-119809550D01*
X140557304Y-119796901D01*
X140436414Y-119649595D01*
X140436410Y-119649590D01*
X140436404Y-119649585D01*
X140276452Y-119518316D01*
X140093954Y-119420768D01*
X139895934Y-119360699D01*
X139895929Y-119360698D01*
X139690003Y-119340417D01*
X139689997Y-119340417D01*
X139484070Y-119360698D01*
X139484065Y-119360699D01*
X139286045Y-119420768D01*
X139103547Y-119518316D01*
X138943595Y-119649585D01*
X138943585Y-119649595D01*
X138812316Y-119809547D01*
X138714768Y-119992045D01*
X138654699Y-120190065D01*
X138654698Y-120190070D01*
X138634417Y-120395996D01*
X138205583Y-120395996D01*
X138185301Y-120190070D01*
X138185300Y-120190065D01*
X138154640Y-120088993D01*
X138125232Y-119992046D01*
X138027685Y-119809550D01*
X138017304Y-119796901D01*
X137896414Y-119649595D01*
X137896410Y-119649590D01*
X137896404Y-119649585D01*
X137736452Y-119518316D01*
X137553954Y-119420768D01*
X137355934Y-119360699D01*
X137355929Y-119360698D01*
X137150003Y-119340417D01*
X137149997Y-119340417D01*
X136944070Y-119360698D01*
X136944065Y-119360699D01*
X136746045Y-119420768D01*
X136563547Y-119518316D01*
X136403595Y-119649585D01*
X136403585Y-119649595D01*
X136272316Y-119809547D01*
X136174768Y-119992045D01*
X136114699Y-120190065D01*
X136114698Y-120190070D01*
X136094417Y-120395996D01*
X135660500Y-120395996D01*
X135660500Y-119526252D01*
X135658921Y-119518316D01*
X135657711Y-119512231D01*
X135648867Y-119467769D01*
X135604552Y-119401448D01*
X135604548Y-119401445D01*
X135538233Y-119357134D01*
X135538231Y-119357133D01*
X135538228Y-119357132D01*
X135538227Y-119357132D01*
X135479758Y-119345501D01*
X135479748Y-119345500D01*
X133740252Y-119345500D01*
X133740251Y-119345500D01*
X133740241Y-119345501D01*
X133681772Y-119357132D01*
X133681766Y-119357134D01*
X133615451Y-119401445D01*
X133615445Y-119401451D01*
X133571134Y-119467766D01*
X133571132Y-119467772D01*
X133559501Y-119526241D01*
X133559500Y-119526253D01*
X127506190Y-119526253D01*
X127570686Y-119461757D01*
X127482418Y-119407104D01*
X127482413Y-119407101D01*
X127292316Y-119333458D01*
X127091930Y-119296000D01*
X126888070Y-119296000D01*
X126687683Y-119333458D01*
X126497586Y-119407101D01*
X126497584Y-119407102D01*
X126409312Y-119461757D01*
X126860592Y-119913037D01*
X126797007Y-119930075D01*
X126682993Y-119995901D01*
X126589901Y-120088993D01*
X126524075Y-120203007D01*
X126507037Y-120266591D01*
X126052533Y-119812087D01*
X126050753Y-119814445D01*
X126050750Y-119814449D01*
X125959887Y-119996929D01*
X125904097Y-120193010D01*
X125885287Y-120396000D01*
X125505583Y-120396000D01*
X125505583Y-120395996D01*
X125485301Y-120190070D01*
X125485300Y-120190065D01*
X125454640Y-120088993D01*
X125425232Y-119992046D01*
X125327685Y-119809550D01*
X125317304Y-119796901D01*
X125196414Y-119649595D01*
X125196410Y-119649590D01*
X125196404Y-119649585D01*
X125036452Y-119518316D01*
X124853954Y-119420768D01*
X124655934Y-119360699D01*
X124655929Y-119360698D01*
X124450003Y-119340417D01*
X124449997Y-119340417D01*
X124244070Y-119360698D01*
X124244065Y-119360699D01*
X124046045Y-119420768D01*
X123863547Y-119518316D01*
X123703595Y-119649585D01*
X123703585Y-119649595D01*
X123572316Y-119809547D01*
X123474768Y-119992045D01*
X123414699Y-120190065D01*
X123414698Y-120190070D01*
X123394417Y-120395996D01*
X122965583Y-120395996D01*
X122945301Y-120190070D01*
X122945300Y-120190065D01*
X122914640Y-120088993D01*
X122885232Y-119992046D01*
X122787685Y-119809550D01*
X122777304Y-119796901D01*
X122656414Y-119649595D01*
X122656410Y-119649590D01*
X122656404Y-119649585D01*
X122496452Y-119518316D01*
X122313954Y-119420768D01*
X122115934Y-119360699D01*
X122115929Y-119360698D01*
X121910003Y-119340417D01*
X121909997Y-119340417D01*
X121704070Y-119360698D01*
X121704065Y-119360699D01*
X121506045Y-119420768D01*
X121323547Y-119518316D01*
X121163595Y-119649585D01*
X121163585Y-119649595D01*
X121032316Y-119809547D01*
X120934768Y-119992045D01*
X120874699Y-120190065D01*
X120874698Y-120190070D01*
X120854417Y-120395996D01*
X120420500Y-120395996D01*
X120420500Y-119526252D01*
X120418921Y-119518316D01*
X120417711Y-119512231D01*
X120408867Y-119467769D01*
X120364552Y-119401448D01*
X120364548Y-119401445D01*
X120298233Y-119357134D01*
X120298231Y-119357133D01*
X120298228Y-119357132D01*
X120298227Y-119357132D01*
X120239758Y-119345501D01*
X120239748Y-119345500D01*
X118500252Y-119345500D01*
X118500251Y-119345500D01*
X118500241Y-119345501D01*
X118441772Y-119357132D01*
X118441766Y-119357134D01*
X118375451Y-119401445D01*
X118375445Y-119401451D01*
X118331134Y-119467766D01*
X118331132Y-119467772D01*
X118319501Y-119526241D01*
X118319500Y-119526253D01*
X112266190Y-119526253D01*
X112330686Y-119461757D01*
X112242418Y-119407104D01*
X112242413Y-119407101D01*
X112052316Y-119333458D01*
X111851930Y-119296000D01*
X111648070Y-119296000D01*
X111447683Y-119333458D01*
X111257586Y-119407101D01*
X111257584Y-119407102D01*
X111169312Y-119461757D01*
X111620592Y-119913037D01*
X111557007Y-119930075D01*
X111442993Y-119995901D01*
X111349901Y-120088993D01*
X111284075Y-120203007D01*
X111267037Y-120266591D01*
X110812533Y-119812087D01*
X110810753Y-119814445D01*
X110810750Y-119814449D01*
X110719887Y-119996929D01*
X110664097Y-120193010D01*
X110645287Y-120396000D01*
X110265583Y-120396000D01*
X110265583Y-120395996D01*
X110245301Y-120190070D01*
X110245300Y-120190065D01*
X110214640Y-120088993D01*
X110185232Y-119992046D01*
X110087685Y-119809550D01*
X110077304Y-119796901D01*
X109956414Y-119649595D01*
X109956410Y-119649590D01*
X109956404Y-119649585D01*
X109796452Y-119518316D01*
X109613954Y-119420768D01*
X109415934Y-119360699D01*
X109415929Y-119360698D01*
X109210003Y-119340417D01*
X109209997Y-119340417D01*
X109004070Y-119360698D01*
X109004065Y-119360699D01*
X108806045Y-119420768D01*
X108623547Y-119518316D01*
X108463595Y-119649585D01*
X108463585Y-119649595D01*
X108332316Y-119809547D01*
X108234768Y-119992045D01*
X108174699Y-120190065D01*
X108174698Y-120190070D01*
X108154417Y-120395996D01*
X107725583Y-120395996D01*
X107705301Y-120190070D01*
X107705300Y-120190065D01*
X107674640Y-120088993D01*
X107645232Y-119992046D01*
X107547685Y-119809550D01*
X107537304Y-119796901D01*
X107416414Y-119649595D01*
X107416410Y-119649590D01*
X107416404Y-119649585D01*
X107256452Y-119518316D01*
X107073954Y-119420768D01*
X106875934Y-119360699D01*
X106875929Y-119360698D01*
X106670003Y-119340417D01*
X106669997Y-119340417D01*
X106464070Y-119360698D01*
X106464065Y-119360699D01*
X106266045Y-119420768D01*
X106083547Y-119518316D01*
X105923595Y-119649585D01*
X105923585Y-119649595D01*
X105792316Y-119809547D01*
X105694768Y-119992045D01*
X105634699Y-120190065D01*
X105634698Y-120190070D01*
X105614417Y-120395996D01*
X105180500Y-120395996D01*
X105180500Y-119526252D01*
X105178921Y-119518316D01*
X105177711Y-119512231D01*
X105168867Y-119467769D01*
X105124552Y-119401448D01*
X105124548Y-119401445D01*
X105058233Y-119357134D01*
X105058231Y-119357133D01*
X105058228Y-119357132D01*
X105058227Y-119357132D01*
X104999758Y-119345501D01*
X104999748Y-119345500D01*
X103260252Y-119345500D01*
X103260251Y-119345500D01*
X103260241Y-119345501D01*
X103201772Y-119357132D01*
X103201766Y-119357134D01*
X103135451Y-119401445D01*
X103135445Y-119401451D01*
X103091134Y-119467766D01*
X103091132Y-119467772D01*
X103079501Y-119526241D01*
X103079500Y-119526253D01*
X97026190Y-119526253D01*
X97090686Y-119461757D01*
X97002418Y-119407104D01*
X97002413Y-119407101D01*
X96812316Y-119333458D01*
X96611930Y-119296000D01*
X96408070Y-119296000D01*
X96207683Y-119333458D01*
X96017586Y-119407101D01*
X96017584Y-119407102D01*
X95929312Y-119461757D01*
X96380592Y-119913037D01*
X96317007Y-119930075D01*
X96202993Y-119995901D01*
X96109901Y-120088993D01*
X96044075Y-120203007D01*
X96027037Y-120266591D01*
X95572533Y-119812087D01*
X95570753Y-119814445D01*
X95570750Y-119814449D01*
X95479887Y-119996929D01*
X95424097Y-120193010D01*
X95405287Y-120396000D01*
X95025583Y-120396000D01*
X95025583Y-120395996D01*
X95005301Y-120190070D01*
X95005300Y-120190065D01*
X94974640Y-120088993D01*
X94945232Y-119992046D01*
X94847685Y-119809550D01*
X94837304Y-119796901D01*
X94716414Y-119649595D01*
X94716410Y-119649590D01*
X94716404Y-119649585D01*
X94556452Y-119518316D01*
X94373954Y-119420768D01*
X94175934Y-119360699D01*
X94175929Y-119360698D01*
X93970003Y-119340417D01*
X93969997Y-119340417D01*
X93764070Y-119360698D01*
X93764065Y-119360699D01*
X93566045Y-119420768D01*
X93383547Y-119518316D01*
X93223595Y-119649585D01*
X93223585Y-119649595D01*
X93092316Y-119809547D01*
X92994768Y-119992045D01*
X92934699Y-120190065D01*
X92934698Y-120190070D01*
X92914417Y-120395996D01*
X92485583Y-120395996D01*
X92465301Y-120190070D01*
X92465300Y-120190065D01*
X92434640Y-120088993D01*
X92405232Y-119992046D01*
X92307685Y-119809550D01*
X92297304Y-119796901D01*
X92176414Y-119649595D01*
X92176410Y-119649590D01*
X92176404Y-119649585D01*
X92016452Y-119518316D01*
X91833954Y-119420768D01*
X91635934Y-119360699D01*
X91635929Y-119360698D01*
X91430003Y-119340417D01*
X91429997Y-119340417D01*
X91224070Y-119360698D01*
X91224065Y-119360699D01*
X91026045Y-119420768D01*
X90843547Y-119518316D01*
X90683595Y-119649585D01*
X90683585Y-119649595D01*
X90552316Y-119809547D01*
X90454768Y-119992045D01*
X90394699Y-120190065D01*
X90394698Y-120190070D01*
X90374417Y-120395996D01*
X89940500Y-120395996D01*
X89940500Y-119526252D01*
X89938921Y-119518316D01*
X89937711Y-119512231D01*
X89928867Y-119467769D01*
X89884552Y-119401448D01*
X89884548Y-119401445D01*
X89818233Y-119357134D01*
X89818231Y-119357133D01*
X89818228Y-119357132D01*
X89818227Y-119357132D01*
X89759758Y-119345501D01*
X89759748Y-119345500D01*
X88020252Y-119345500D01*
X88020251Y-119345500D01*
X88020241Y-119345501D01*
X87961772Y-119357132D01*
X87961766Y-119357134D01*
X87895451Y-119401445D01*
X87895445Y-119401451D01*
X87851134Y-119467766D01*
X87851132Y-119467772D01*
X87839501Y-119526241D01*
X87839500Y-119526253D01*
X76633618Y-119526253D01*
X76633618Y-119526252D01*
X76566338Y-119225258D01*
X76565175Y-119219158D01*
X76474514Y-118646751D01*
X76473734Y-118640581D01*
X76419192Y-118063579D01*
X76418802Y-118057372D01*
X76400549Y-117476559D01*
X76400500Y-117473449D01*
X76400500Y-114197644D01*
X79979500Y-114197644D01*
X79979500Y-114402355D01*
X80011521Y-114604529D01*
X80074780Y-114799219D01*
X80167712Y-114981609D01*
X80167714Y-114981613D01*
X80288029Y-115147213D01*
X80288031Y-115147215D01*
X80288034Y-115147219D01*
X80432781Y-115291966D01*
X80432784Y-115291968D01*
X80432786Y-115291970D01*
X80598386Y-115412285D01*
X80598390Y-115412287D01*
X80780781Y-115505220D01*
X80975466Y-115568477D01*
X80975467Y-115568477D01*
X80975470Y-115568478D01*
X81177645Y-115600500D01*
X81177648Y-115600500D01*
X81382355Y-115600500D01*
X81584529Y-115568478D01*
X81584530Y-115568477D01*
X81584534Y-115568477D01*
X81779219Y-115505220D01*
X81961610Y-115412287D01*
X82127219Y-115291966D01*
X82271966Y-115147219D01*
X82392287Y-114981610D01*
X82485220Y-114799219D01*
X82548477Y-114604534D01*
X82580500Y-114402352D01*
X82580500Y-114197648D01*
X82580500Y-114197644D01*
X148559500Y-114197644D01*
X148559500Y-114402355D01*
X148591521Y-114604529D01*
X148654780Y-114799219D01*
X148747712Y-114981609D01*
X148747714Y-114981613D01*
X148868029Y-115147213D01*
X148868031Y-115147215D01*
X148868034Y-115147219D01*
X149012781Y-115291966D01*
X149012784Y-115291968D01*
X149012786Y-115291970D01*
X149178386Y-115412285D01*
X149178390Y-115412287D01*
X149360781Y-115505220D01*
X149555466Y-115568477D01*
X149555467Y-115568477D01*
X149555470Y-115568478D01*
X149757645Y-115600500D01*
X149757648Y-115600500D01*
X149962355Y-115600500D01*
X150164529Y-115568478D01*
X150164530Y-115568477D01*
X150164534Y-115568477D01*
X150359219Y-115505220D01*
X150541610Y-115412287D01*
X150707219Y-115291966D01*
X150851966Y-115147219D01*
X150972287Y-114981610D01*
X151065220Y-114799219D01*
X151128477Y-114604534D01*
X151160500Y-114402352D01*
X151160500Y-114197648D01*
X151160500Y-114197644D01*
X151128478Y-113995470D01*
X151128477Y-113995466D01*
X151065220Y-113800781D01*
X150972287Y-113618390D01*
X150972285Y-113618386D01*
X150851970Y-113452786D01*
X150851968Y-113452784D01*
X150851966Y-113452781D01*
X150707219Y-113308034D01*
X150707215Y-113308031D01*
X150707213Y-113308029D01*
X150541613Y-113187714D01*
X150541609Y-113187712D01*
X150359219Y-113094780D01*
X150164529Y-113031521D01*
X149962355Y-112999500D01*
X149962352Y-112999500D01*
X149757648Y-112999500D01*
X149757645Y-112999500D01*
X149555470Y-113031521D01*
X149360780Y-113094780D01*
X149178390Y-113187712D01*
X149178386Y-113187714D01*
X149012786Y-113308029D01*
X148868029Y-113452786D01*
X148747714Y-113618386D01*
X148747712Y-113618390D01*
X148654780Y-113800780D01*
X148591521Y-113995470D01*
X148559500Y-114197644D01*
X82580500Y-114197644D01*
X82548478Y-113995470D01*
X82548477Y-113995466D01*
X82485220Y-113800781D01*
X82392287Y-113618390D01*
X82392285Y-113618386D01*
X82271970Y-113452786D01*
X82271968Y-113452784D01*
X82271966Y-113452781D01*
X82127219Y-113308034D01*
X82127215Y-113308031D01*
X82127213Y-113308029D01*
X81961613Y-113187714D01*
X81961609Y-113187712D01*
X81779219Y-113094780D01*
X81584529Y-113031521D01*
X81382355Y-112999500D01*
X81382352Y-112999500D01*
X81177648Y-112999500D01*
X81177645Y-112999500D01*
X80975470Y-113031521D01*
X80780780Y-113094780D01*
X80598390Y-113187712D01*
X80598386Y-113187714D01*
X80432786Y-113308029D01*
X80288029Y-113452786D01*
X80167714Y-113618386D01*
X80167712Y-113618390D01*
X80074780Y-113800780D01*
X80011521Y-113995470D01*
X79979500Y-114197644D01*
X76400500Y-114197644D01*
X76400500Y-108457997D01*
X105158353Y-108457997D01*
X105158353Y-108458002D01*
X105178834Y-108600456D01*
X105238622Y-108731371D01*
X105238623Y-108731373D01*
X105332872Y-108840143D01*
X105332873Y-108840144D01*
X105336522Y-108842489D01*
X105453947Y-108917953D01*
X105560403Y-108949211D01*
X105592035Y-108958499D01*
X105592036Y-108958499D01*
X105592039Y-108958500D01*
X105592041Y-108958500D01*
X105735959Y-108958500D01*
X105735961Y-108958500D01*
X105874053Y-108917953D01*
X105991478Y-108842488D01*
X106050652Y-108826934D01*
X106098520Y-108842487D01*
X106215947Y-108917953D01*
X106322403Y-108949211D01*
X106354035Y-108958499D01*
X106354036Y-108958499D01*
X106354039Y-108958500D01*
X106354041Y-108958500D01*
X106497959Y-108958500D01*
X106497961Y-108958500D01*
X106636053Y-108917953D01*
X106757128Y-108840143D01*
X106851377Y-108731373D01*
X106911165Y-108600457D01*
X106931647Y-108458000D01*
X106931647Y-108457997D01*
X117858353Y-108457997D01*
X117858353Y-108458002D01*
X117878834Y-108600456D01*
X117938622Y-108731371D01*
X117938623Y-108731373D01*
X118032872Y-108840143D01*
X118032873Y-108840144D01*
X118036522Y-108842489D01*
X118153947Y-108917953D01*
X118260403Y-108949211D01*
X118292035Y-108958499D01*
X118292036Y-108958499D01*
X118292039Y-108958500D01*
X118292041Y-108958500D01*
X118435959Y-108958500D01*
X118435961Y-108958500D01*
X118574053Y-108917953D01*
X118691478Y-108842488D01*
X118750652Y-108826934D01*
X118798520Y-108842487D01*
X118915947Y-108917953D01*
X119022403Y-108949211D01*
X119054035Y-108958499D01*
X119054036Y-108958499D01*
X119054039Y-108958500D01*
X119054041Y-108958500D01*
X119197959Y-108958500D01*
X119197961Y-108958500D01*
X119336053Y-108917953D01*
X119457128Y-108840143D01*
X119551377Y-108731373D01*
X119611165Y-108600457D01*
X119631647Y-108458000D01*
X119611165Y-108315543D01*
X119551377Y-108184627D01*
X119457128Y-108075857D01*
X119457127Y-108075856D01*
X119457126Y-108075855D01*
X119336057Y-107998049D01*
X119336054Y-107998047D01*
X119336053Y-107998047D01*
X119336050Y-107998046D01*
X119197964Y-107957500D01*
X119197961Y-107957500D01*
X119054039Y-107957500D01*
X119054035Y-107957500D01*
X118915949Y-107998046D01*
X118915942Y-107998049D01*
X118798523Y-108073510D01*
X118739348Y-108089065D01*
X118691477Y-108073510D01*
X118574057Y-107998049D01*
X118574054Y-107998047D01*
X118574053Y-107998047D01*
X118574050Y-107998046D01*
X118435964Y-107957500D01*
X118435961Y-107957500D01*
X118292039Y-107957500D01*
X118292035Y-107957500D01*
X118153949Y-107998046D01*
X118153942Y-107998049D01*
X118032873Y-108075855D01*
X117938622Y-108184628D01*
X117878834Y-108315543D01*
X117858353Y-108457997D01*
X106931647Y-108457997D01*
X106911165Y-108315543D01*
X106851377Y-108184627D01*
X106757128Y-108075857D01*
X106757127Y-108075856D01*
X106757126Y-108075855D01*
X106636057Y-107998049D01*
X106636054Y-107998047D01*
X106636053Y-107998047D01*
X106636050Y-107998046D01*
X106497964Y-107957500D01*
X106497961Y-107957500D01*
X106354039Y-107957500D01*
X106354035Y-107957500D01*
X106215949Y-107998046D01*
X106215942Y-107998049D01*
X106098523Y-108073510D01*
X106039348Y-108089065D01*
X105991477Y-108073510D01*
X105874057Y-107998049D01*
X105874054Y-107998047D01*
X105874053Y-107998047D01*
X105874050Y-107998046D01*
X105735964Y-107957500D01*
X105735961Y-107957500D01*
X105592039Y-107957500D01*
X105592035Y-107957500D01*
X105453949Y-107998046D01*
X105453942Y-107998049D01*
X105332873Y-108075855D01*
X105238622Y-108184628D01*
X105178834Y-108315543D01*
X105158353Y-108457997D01*
X76400500Y-108457997D01*
X76400500Y-107187997D01*
X96268353Y-107187997D01*
X96268353Y-107188002D01*
X96288834Y-107330456D01*
X96348622Y-107461371D01*
X96348623Y-107461373D01*
X96442872Y-107570143D01*
X96442873Y-107570144D01*
X96446522Y-107572489D01*
X96563947Y-107647953D01*
X96670403Y-107679211D01*
X96702035Y-107688499D01*
X96702036Y-107688499D01*
X96702039Y-107688500D01*
X96702041Y-107688500D01*
X96845959Y-107688500D01*
X96845961Y-107688500D01*
X96984053Y-107647953D01*
X97101478Y-107572488D01*
X97160652Y-107556934D01*
X97208520Y-107572487D01*
X97325947Y-107647953D01*
X97432403Y-107679211D01*
X97464035Y-107688499D01*
X97464036Y-107688499D01*
X97464039Y-107688500D01*
X97464041Y-107688500D01*
X97607959Y-107688500D01*
X97607961Y-107688500D01*
X97746053Y-107647953D01*
X97867128Y-107570143D01*
X97961377Y-107461373D01*
X98021165Y-107330457D01*
X98041647Y-107188000D01*
X98041647Y-107187997D01*
X126748353Y-107187997D01*
X126748353Y-107188002D01*
X126768834Y-107330456D01*
X126828622Y-107461371D01*
X126828623Y-107461373D01*
X126922872Y-107570143D01*
X126922873Y-107570144D01*
X126926522Y-107572489D01*
X127043947Y-107647953D01*
X127150403Y-107679211D01*
X127182035Y-107688499D01*
X127182036Y-107688499D01*
X127182039Y-107688500D01*
X127182041Y-107688500D01*
X127325959Y-107688500D01*
X127325961Y-107688500D01*
X127464053Y-107647953D01*
X127581478Y-107572488D01*
X127640652Y-107556934D01*
X127688520Y-107572487D01*
X127805947Y-107647953D01*
X127912403Y-107679211D01*
X127944035Y-107688499D01*
X127944036Y-107688499D01*
X127944039Y-107688500D01*
X127944041Y-107688500D01*
X128087959Y-107688500D01*
X128087961Y-107688500D01*
X128226053Y-107647953D01*
X128347128Y-107570143D01*
X128441377Y-107461373D01*
X128501165Y-107330457D01*
X128521647Y-107188000D01*
X128501165Y-107045543D01*
X128441377Y-106914627D01*
X128347128Y-106805857D01*
X128347127Y-106805856D01*
X128347126Y-106805855D01*
X128226057Y-106728049D01*
X128226054Y-106728047D01*
X128226053Y-106728047D01*
X128226050Y-106728046D01*
X128087964Y-106687500D01*
X128087961Y-106687500D01*
X127944039Y-106687500D01*
X127944035Y-106687500D01*
X127805949Y-106728046D01*
X127805942Y-106728049D01*
X127688523Y-106803510D01*
X127629348Y-106819065D01*
X127581477Y-106803510D01*
X127464057Y-106728049D01*
X127464054Y-106728047D01*
X127464053Y-106728047D01*
X127464050Y-106728046D01*
X127325964Y-106687500D01*
X127325961Y-106687500D01*
X127182039Y-106687500D01*
X127182035Y-106687500D01*
X127043949Y-106728046D01*
X127043942Y-106728049D01*
X126922873Y-106805855D01*
X126828622Y-106914628D01*
X126768834Y-107045543D01*
X126748353Y-107187997D01*
X98041647Y-107187997D01*
X98021165Y-107045543D01*
X97961377Y-106914627D01*
X97867128Y-106805857D01*
X97867127Y-106805856D01*
X97867126Y-106805855D01*
X97746057Y-106728049D01*
X97746054Y-106728047D01*
X97746053Y-106728047D01*
X97746050Y-106728046D01*
X97607964Y-106687500D01*
X97607961Y-106687500D01*
X97464039Y-106687500D01*
X97464035Y-106687500D01*
X97325949Y-106728046D01*
X97325942Y-106728049D01*
X97208523Y-106803510D01*
X97149348Y-106819065D01*
X97101477Y-106803510D01*
X96984057Y-106728049D01*
X96984054Y-106728047D01*
X96984053Y-106728047D01*
X96984050Y-106728046D01*
X96845964Y-106687500D01*
X96845961Y-106687500D01*
X96702039Y-106687500D01*
X96702035Y-106687500D01*
X96563949Y-106728046D01*
X96563942Y-106728049D01*
X96442873Y-106805855D01*
X96348622Y-106914628D01*
X96288834Y-107045543D01*
X96268353Y-107187997D01*
X76400500Y-107187997D01*
X76400500Y-105917997D01*
X87378353Y-105917997D01*
X87378353Y-105918002D01*
X87398834Y-106060456D01*
X87458622Y-106191371D01*
X87458623Y-106191373D01*
X87552872Y-106300143D01*
X87552873Y-106300144D01*
X87556522Y-106302489D01*
X87673947Y-106377953D01*
X87780403Y-106409211D01*
X87812035Y-106418499D01*
X87812036Y-106418499D01*
X87812039Y-106418500D01*
X87812041Y-106418500D01*
X87955959Y-106418500D01*
X87955961Y-106418500D01*
X88094053Y-106377953D01*
X88211478Y-106302488D01*
X88270652Y-106286934D01*
X88318520Y-106302487D01*
X88435947Y-106377953D01*
X88542403Y-106409211D01*
X88574035Y-106418499D01*
X88574036Y-106418499D01*
X88574039Y-106418500D01*
X88574041Y-106418500D01*
X88717959Y-106418500D01*
X88717961Y-106418500D01*
X88856053Y-106377953D01*
X88977128Y-106300143D01*
X89071377Y-106191373D01*
X89131165Y-106060457D01*
X89151647Y-105918000D01*
X89151647Y-105917997D01*
X135638353Y-105917997D01*
X135638353Y-105918002D01*
X135658834Y-106060456D01*
X135718622Y-106191371D01*
X135718623Y-106191373D01*
X135812872Y-106300143D01*
X135812873Y-106300144D01*
X135816522Y-106302489D01*
X135933947Y-106377953D01*
X136040403Y-106409211D01*
X136072035Y-106418499D01*
X136072036Y-106418499D01*
X136072039Y-106418500D01*
X136072041Y-106418500D01*
X136215959Y-106418500D01*
X136215961Y-106418500D01*
X136354053Y-106377953D01*
X136471478Y-106302488D01*
X136530652Y-106286934D01*
X136578520Y-106302487D01*
X136695947Y-106377953D01*
X136802403Y-106409211D01*
X136834035Y-106418499D01*
X136834036Y-106418499D01*
X136834039Y-106418500D01*
X136834041Y-106418500D01*
X136977959Y-106418500D01*
X136977961Y-106418500D01*
X137116053Y-106377953D01*
X137237128Y-106300143D01*
X137331377Y-106191373D01*
X137391165Y-106060457D01*
X137411647Y-105918000D01*
X137391165Y-105775543D01*
X137331377Y-105644627D01*
X137237128Y-105535857D01*
X137237127Y-105535856D01*
X137237126Y-105535855D01*
X137116057Y-105458049D01*
X137116054Y-105458047D01*
X137116053Y-105458047D01*
X137116050Y-105458046D01*
X136977964Y-105417500D01*
X136977961Y-105417500D01*
X136834039Y-105417500D01*
X136834035Y-105417500D01*
X136695949Y-105458046D01*
X136695942Y-105458049D01*
X136578523Y-105533510D01*
X136519348Y-105549065D01*
X136471477Y-105533510D01*
X136354057Y-105458049D01*
X136354054Y-105458047D01*
X136354053Y-105458047D01*
X136354050Y-105458046D01*
X136215964Y-105417500D01*
X136215961Y-105417500D01*
X136072039Y-105417500D01*
X136072035Y-105417500D01*
X135933949Y-105458046D01*
X135933942Y-105458049D01*
X135812873Y-105535855D01*
X135718622Y-105644628D01*
X135658834Y-105775543D01*
X135638353Y-105917997D01*
X89151647Y-105917997D01*
X89131165Y-105775543D01*
X89071377Y-105644627D01*
X88977128Y-105535857D01*
X88977127Y-105535856D01*
X88977126Y-105535855D01*
X88856057Y-105458049D01*
X88856054Y-105458047D01*
X88856053Y-105458047D01*
X88856050Y-105458046D01*
X88717964Y-105417500D01*
X88717961Y-105417500D01*
X88574039Y-105417500D01*
X88574035Y-105417500D01*
X88435949Y-105458046D01*
X88435942Y-105458049D01*
X88318523Y-105533510D01*
X88259348Y-105549065D01*
X88211477Y-105533510D01*
X88094057Y-105458049D01*
X88094054Y-105458047D01*
X88094053Y-105458047D01*
X88094050Y-105458046D01*
X87955964Y-105417500D01*
X87955961Y-105417500D01*
X87812039Y-105417500D01*
X87812035Y-105417500D01*
X87673949Y-105458046D01*
X87673942Y-105458049D01*
X87552873Y-105535855D01*
X87458622Y-105644628D01*
X87398834Y-105775543D01*
X87378353Y-105917997D01*
X76400500Y-105917997D01*
X76400500Y-101345997D01*
X105158353Y-101345997D01*
X105158353Y-101346002D01*
X105178834Y-101488456D01*
X105238622Y-101619371D01*
X105238623Y-101619373D01*
X105332872Y-101728143D01*
X105332873Y-101728144D01*
X105336522Y-101730489D01*
X105453947Y-101805953D01*
X105560403Y-101837211D01*
X105592035Y-101846499D01*
X105592036Y-101846499D01*
X105592039Y-101846500D01*
X105592041Y-101846500D01*
X105735959Y-101846500D01*
X105735961Y-101846500D01*
X105874053Y-101805953D01*
X105991478Y-101730488D01*
X106050652Y-101714934D01*
X106098520Y-101730487D01*
X106215947Y-101805953D01*
X106322403Y-101837211D01*
X106354035Y-101846499D01*
X106354036Y-101846499D01*
X106354039Y-101846500D01*
X106354041Y-101846500D01*
X106497959Y-101846500D01*
X106497961Y-101846500D01*
X106636053Y-101805953D01*
X106757128Y-101728143D01*
X106851377Y-101619373D01*
X106911165Y-101488457D01*
X106931647Y-101346000D01*
X106931647Y-101345997D01*
X113794353Y-101345997D01*
X113794353Y-101346002D01*
X113814834Y-101488456D01*
X113874622Y-101619371D01*
X113874623Y-101619373D01*
X113968872Y-101728143D01*
X113968873Y-101728144D01*
X113972522Y-101730489D01*
X114089947Y-101805953D01*
X114196403Y-101837211D01*
X114228035Y-101846499D01*
X114228036Y-101846499D01*
X114228039Y-101846500D01*
X114228041Y-101846500D01*
X114371959Y-101846500D01*
X114371961Y-101846500D01*
X114510053Y-101805953D01*
X114631128Y-101728143D01*
X114725377Y-101619373D01*
X114785165Y-101488457D01*
X114805647Y-101346000D01*
X114805647Y-101345997D01*
X117858353Y-101345997D01*
X117858353Y-101346002D01*
X117878834Y-101488456D01*
X117938622Y-101619371D01*
X117938623Y-101619373D01*
X118032872Y-101728143D01*
X118032873Y-101728144D01*
X118036522Y-101730489D01*
X118153947Y-101805953D01*
X118260403Y-101837211D01*
X118292035Y-101846499D01*
X118292036Y-101846499D01*
X118292039Y-101846500D01*
X118292041Y-101846500D01*
X118435959Y-101846500D01*
X118435961Y-101846500D01*
X118574053Y-101805953D01*
X118691478Y-101730488D01*
X118750652Y-101714934D01*
X118798520Y-101730487D01*
X118915947Y-101805953D01*
X119022403Y-101837211D01*
X119054035Y-101846499D01*
X119054036Y-101846499D01*
X119054039Y-101846500D01*
X119054041Y-101846500D01*
X119197959Y-101846500D01*
X119197961Y-101846500D01*
X119336053Y-101805953D01*
X119457128Y-101728143D01*
X119551377Y-101619373D01*
X119611165Y-101488457D01*
X119631647Y-101346000D01*
X119611165Y-101203543D01*
X119551377Y-101072627D01*
X119457128Y-100963857D01*
X119457127Y-100963856D01*
X119457126Y-100963855D01*
X119336057Y-100886049D01*
X119336054Y-100886047D01*
X119336053Y-100886047D01*
X119336050Y-100886046D01*
X119197964Y-100845500D01*
X119197961Y-100845500D01*
X119054039Y-100845500D01*
X119054035Y-100845500D01*
X118915949Y-100886046D01*
X118915942Y-100886049D01*
X118798523Y-100961510D01*
X118739348Y-100977065D01*
X118691477Y-100961510D01*
X118574057Y-100886049D01*
X118574054Y-100886047D01*
X118574053Y-100886047D01*
X118574050Y-100886046D01*
X118435964Y-100845500D01*
X118435961Y-100845500D01*
X118292039Y-100845500D01*
X118292035Y-100845500D01*
X118153949Y-100886046D01*
X118153942Y-100886049D01*
X118032873Y-100963855D01*
X117938622Y-101072628D01*
X117878834Y-101203543D01*
X117858353Y-101345997D01*
X114805647Y-101345997D01*
X114785165Y-101203543D01*
X114725377Y-101072627D01*
X114631128Y-100963857D01*
X114631127Y-100963856D01*
X114631126Y-100963855D01*
X114510057Y-100886049D01*
X114510054Y-100886047D01*
X114510053Y-100886047D01*
X114510050Y-100886046D01*
X114371964Y-100845500D01*
X114371961Y-100845500D01*
X114228039Y-100845500D01*
X114228035Y-100845500D01*
X114089949Y-100886046D01*
X114089942Y-100886049D01*
X113968873Y-100963855D01*
X113874622Y-101072628D01*
X113814834Y-101203543D01*
X113794353Y-101345997D01*
X106931647Y-101345997D01*
X106911165Y-101203543D01*
X106851377Y-101072627D01*
X106757128Y-100963857D01*
X106757127Y-100963856D01*
X106757126Y-100963855D01*
X106636057Y-100886049D01*
X106636054Y-100886047D01*
X106636053Y-100886047D01*
X106636050Y-100886046D01*
X106497964Y-100845500D01*
X106497961Y-100845500D01*
X106354039Y-100845500D01*
X106354035Y-100845500D01*
X106215949Y-100886046D01*
X106215942Y-100886049D01*
X106098523Y-100961510D01*
X106039348Y-100977065D01*
X105991477Y-100961510D01*
X105874057Y-100886049D01*
X105874054Y-100886047D01*
X105874053Y-100886047D01*
X105874050Y-100886046D01*
X105735964Y-100845500D01*
X105735961Y-100845500D01*
X105592039Y-100845500D01*
X105592035Y-100845500D01*
X105453949Y-100886046D01*
X105453942Y-100886049D01*
X105332873Y-100963855D01*
X105238622Y-101072628D01*
X105178834Y-101203543D01*
X105158353Y-101345997D01*
X76400500Y-101345997D01*
X76400500Y-100075997D01*
X96268353Y-100075997D01*
X96268353Y-100076002D01*
X96288834Y-100218456D01*
X96348622Y-100349371D01*
X96348623Y-100349373D01*
X96442872Y-100458143D01*
X96442873Y-100458144D01*
X96446522Y-100460489D01*
X96563947Y-100535953D01*
X96670403Y-100567211D01*
X96702035Y-100576499D01*
X96702036Y-100576499D01*
X96702039Y-100576500D01*
X96702041Y-100576500D01*
X96845959Y-100576500D01*
X96845961Y-100576500D01*
X96984053Y-100535953D01*
X97101478Y-100460488D01*
X97160652Y-100444934D01*
X97208520Y-100460487D01*
X97325947Y-100535953D01*
X97432403Y-100567211D01*
X97464035Y-100576499D01*
X97464036Y-100576499D01*
X97464039Y-100576500D01*
X97464041Y-100576500D01*
X97607959Y-100576500D01*
X97607961Y-100576500D01*
X97746053Y-100535953D01*
X97867128Y-100458143D01*
X97961377Y-100349373D01*
X98021165Y-100218457D01*
X98041647Y-100076000D01*
X98041647Y-100075997D01*
X126748353Y-100075997D01*
X126748353Y-100076002D01*
X126768834Y-100218456D01*
X126828622Y-100349371D01*
X126828623Y-100349373D01*
X126922872Y-100458143D01*
X126922873Y-100458144D01*
X126926522Y-100460489D01*
X127043947Y-100535953D01*
X127150403Y-100567211D01*
X127182035Y-100576499D01*
X127182036Y-100576499D01*
X127182039Y-100576500D01*
X127182041Y-100576500D01*
X127325959Y-100576500D01*
X127325961Y-100576500D01*
X127464053Y-100535953D01*
X127581478Y-100460488D01*
X127640652Y-100444934D01*
X127688520Y-100460487D01*
X127805947Y-100535953D01*
X127912403Y-100567211D01*
X127944035Y-100576499D01*
X127944036Y-100576499D01*
X127944039Y-100576500D01*
X127944041Y-100576500D01*
X128087959Y-100576500D01*
X128087961Y-100576500D01*
X128226053Y-100535953D01*
X128347128Y-100458143D01*
X128441377Y-100349373D01*
X128501165Y-100218457D01*
X128521647Y-100076000D01*
X128501165Y-99933543D01*
X128441377Y-99802627D01*
X128347128Y-99693857D01*
X128347127Y-99693856D01*
X128347126Y-99693855D01*
X128226057Y-99616049D01*
X128226054Y-99616047D01*
X128226053Y-99616047D01*
X128226050Y-99616046D01*
X128087964Y-99575500D01*
X128087961Y-99575500D01*
X127944039Y-99575500D01*
X127944035Y-99575500D01*
X127805949Y-99616046D01*
X127805942Y-99616049D01*
X127688523Y-99691510D01*
X127629348Y-99707065D01*
X127581477Y-99691510D01*
X127464057Y-99616049D01*
X127464054Y-99616047D01*
X127464053Y-99616047D01*
X127464050Y-99616046D01*
X127325964Y-99575500D01*
X127325961Y-99575500D01*
X127182039Y-99575500D01*
X127182035Y-99575500D01*
X127043949Y-99616046D01*
X127043942Y-99616049D01*
X126922873Y-99693855D01*
X126828622Y-99802628D01*
X126768834Y-99933543D01*
X126748353Y-100075997D01*
X98041647Y-100075997D01*
X98021165Y-99933543D01*
X97961377Y-99802627D01*
X97867128Y-99693857D01*
X97867127Y-99693856D01*
X97867126Y-99693855D01*
X97746057Y-99616049D01*
X97746054Y-99616047D01*
X97746053Y-99616047D01*
X97746050Y-99616046D01*
X97607964Y-99575500D01*
X97607961Y-99575500D01*
X97464039Y-99575500D01*
X97464035Y-99575500D01*
X97325949Y-99616046D01*
X97325942Y-99616049D01*
X97208523Y-99691510D01*
X97149348Y-99707065D01*
X97101477Y-99691510D01*
X96984057Y-99616049D01*
X96984054Y-99616047D01*
X96984053Y-99616047D01*
X96984050Y-99616046D01*
X96845964Y-99575500D01*
X96845961Y-99575500D01*
X96702039Y-99575500D01*
X96702035Y-99575500D01*
X96563949Y-99616046D01*
X96563942Y-99616049D01*
X96442873Y-99693855D01*
X96348622Y-99802628D01*
X96288834Y-99933543D01*
X96268353Y-100075997D01*
X76400500Y-100075997D01*
X76400500Y-98805997D01*
X87378353Y-98805997D01*
X87378353Y-98806002D01*
X87398834Y-98948456D01*
X87458622Y-99079371D01*
X87458623Y-99079373D01*
X87552872Y-99188143D01*
X87552873Y-99188144D01*
X87556522Y-99190489D01*
X87673947Y-99265953D01*
X87780403Y-99297211D01*
X87812035Y-99306499D01*
X87812036Y-99306499D01*
X87812039Y-99306500D01*
X87812041Y-99306500D01*
X87955959Y-99306500D01*
X87955961Y-99306500D01*
X88094053Y-99265953D01*
X88211478Y-99190488D01*
X88270652Y-99174934D01*
X88318520Y-99190487D01*
X88435947Y-99265953D01*
X88542403Y-99297211D01*
X88574035Y-99306499D01*
X88574036Y-99306499D01*
X88574039Y-99306500D01*
X88574041Y-99306500D01*
X88717959Y-99306500D01*
X88717961Y-99306500D01*
X88856053Y-99265953D01*
X88977128Y-99188143D01*
X89071377Y-99079373D01*
X89131165Y-98948457D01*
X89151647Y-98806000D01*
X89151647Y-98805997D01*
X135638353Y-98805997D01*
X135638353Y-98806002D01*
X135658834Y-98948456D01*
X135718622Y-99079371D01*
X135718623Y-99079373D01*
X135812872Y-99188143D01*
X135812873Y-99188144D01*
X135816522Y-99190489D01*
X135933947Y-99265953D01*
X136040403Y-99297211D01*
X136072035Y-99306499D01*
X136072036Y-99306499D01*
X136072039Y-99306500D01*
X136072041Y-99306500D01*
X136215959Y-99306500D01*
X136215961Y-99306500D01*
X136354053Y-99265953D01*
X136471478Y-99190488D01*
X136530652Y-99174934D01*
X136578520Y-99190487D01*
X136695947Y-99265953D01*
X136802403Y-99297211D01*
X136834035Y-99306499D01*
X136834036Y-99306499D01*
X136834039Y-99306500D01*
X136834041Y-99306500D01*
X136977959Y-99306500D01*
X136977961Y-99306500D01*
X137116053Y-99265953D01*
X137237128Y-99188143D01*
X137331377Y-99079373D01*
X137391165Y-98948457D01*
X137411647Y-98806000D01*
X137391165Y-98663543D01*
X137331377Y-98532627D01*
X137237128Y-98423857D01*
X137237127Y-98423856D01*
X137237126Y-98423855D01*
X137116057Y-98346049D01*
X137116054Y-98346047D01*
X137116053Y-98346047D01*
X137116050Y-98346046D01*
X136977964Y-98305500D01*
X136977961Y-98305500D01*
X136834039Y-98305500D01*
X136834035Y-98305500D01*
X136695949Y-98346046D01*
X136695942Y-98346049D01*
X136578523Y-98421510D01*
X136519348Y-98437065D01*
X136471477Y-98421510D01*
X136354057Y-98346049D01*
X136354054Y-98346047D01*
X136354053Y-98346047D01*
X136354050Y-98346046D01*
X136215964Y-98305500D01*
X136215961Y-98305500D01*
X136072039Y-98305500D01*
X136072035Y-98305500D01*
X135933949Y-98346046D01*
X135933942Y-98346049D01*
X135812873Y-98423855D01*
X135718622Y-98532628D01*
X135658834Y-98663543D01*
X135638353Y-98805997D01*
X89151647Y-98805997D01*
X89131165Y-98663543D01*
X89071377Y-98532627D01*
X88977128Y-98423857D01*
X88977127Y-98423856D01*
X88977126Y-98423855D01*
X88856057Y-98346049D01*
X88856054Y-98346047D01*
X88856053Y-98346047D01*
X88856050Y-98346046D01*
X88717964Y-98305500D01*
X88717961Y-98305500D01*
X88574039Y-98305500D01*
X88574035Y-98305500D01*
X88435949Y-98346046D01*
X88435942Y-98346049D01*
X88318523Y-98421510D01*
X88259348Y-98437065D01*
X88211477Y-98421510D01*
X88094057Y-98346049D01*
X88094054Y-98346047D01*
X88094053Y-98346047D01*
X88094050Y-98346046D01*
X87955964Y-98305500D01*
X87955961Y-98305500D01*
X87812039Y-98305500D01*
X87812035Y-98305500D01*
X87673949Y-98346046D01*
X87673942Y-98346049D01*
X87552873Y-98423855D01*
X87458622Y-98532628D01*
X87398834Y-98663543D01*
X87378353Y-98805997D01*
X76400500Y-98805997D01*
X76400500Y-97535997D01*
X140845353Y-97535997D01*
X140845353Y-97536002D01*
X140865834Y-97678456D01*
X140925622Y-97809371D01*
X140925623Y-97809373D01*
X141019872Y-97918143D01*
X141019873Y-97918144D01*
X141140942Y-97995950D01*
X141140947Y-97995953D01*
X141247403Y-98027211D01*
X141279035Y-98036499D01*
X141279036Y-98036499D01*
X141279039Y-98036500D01*
X141279041Y-98036500D01*
X141422959Y-98036500D01*
X141422961Y-98036500D01*
X141561053Y-97995953D01*
X141682128Y-97918143D01*
X141776377Y-97809373D01*
X141836165Y-97678457D01*
X141856647Y-97536000D01*
X141836165Y-97393543D01*
X141776377Y-97262627D01*
X141682128Y-97153857D01*
X141682127Y-97153856D01*
X141682126Y-97153855D01*
X141561057Y-97076049D01*
X141561054Y-97076047D01*
X141561053Y-97076047D01*
X141561050Y-97076046D01*
X141422964Y-97035500D01*
X141422961Y-97035500D01*
X141279039Y-97035500D01*
X141279035Y-97035500D01*
X141140949Y-97076046D01*
X141140942Y-97076049D01*
X141019873Y-97153855D01*
X140925622Y-97262628D01*
X140865834Y-97393543D01*
X140845353Y-97535997D01*
X76400500Y-97535997D01*
X76400500Y-63397644D01*
X79979500Y-63397644D01*
X79979500Y-63602355D01*
X80011521Y-63804529D01*
X80074780Y-63999219D01*
X80167712Y-64181609D01*
X80167714Y-64181613D01*
X80288029Y-64347213D01*
X80288031Y-64347215D01*
X80288034Y-64347219D01*
X80432781Y-64491966D01*
X80432784Y-64491968D01*
X80432786Y-64491970D01*
X80598386Y-64612285D01*
X80598390Y-64612287D01*
X80780781Y-64705220D01*
X80975466Y-64768477D01*
X80975467Y-64768477D01*
X80975470Y-64768478D01*
X81177645Y-64800500D01*
X81177648Y-64800500D01*
X81382355Y-64800500D01*
X81584529Y-64768478D01*
X81584530Y-64768477D01*
X81584534Y-64768477D01*
X81779219Y-64705220D01*
X81961610Y-64612287D01*
X82127219Y-64491966D01*
X82271966Y-64347219D01*
X82392287Y-64181610D01*
X82485220Y-63999219D01*
X82548477Y-63804534D01*
X82580500Y-63602352D01*
X82580500Y-63397648D01*
X82580500Y-63397644D01*
X82548478Y-63195470D01*
X82528654Y-63134457D01*
X82485220Y-63000781D01*
X82392287Y-62818390D01*
X82392285Y-62818386D01*
X82271970Y-62652786D01*
X82271968Y-62652784D01*
X82271966Y-62652781D01*
X82127219Y-62508034D01*
X82127215Y-62508031D01*
X82127213Y-62508029D01*
X81961613Y-62387714D01*
X81961609Y-62387712D01*
X81779219Y-62294780D01*
X81584529Y-62231521D01*
X81574907Y-62229997D01*
X117604353Y-62229997D01*
X117604353Y-62230002D01*
X117624834Y-62372456D01*
X117684623Y-62503373D01*
X117721705Y-62546170D01*
X117745522Y-62602530D01*
X117731663Y-62662125D01*
X117721705Y-62675830D01*
X117684623Y-62718626D01*
X117624834Y-62849543D01*
X117604353Y-62991997D01*
X117604353Y-62992002D01*
X117624834Y-63134456D01*
X117684622Y-63265371D01*
X117684623Y-63265373D01*
X117740320Y-63329651D01*
X117778873Y-63374144D01*
X117899942Y-63451950D01*
X117899947Y-63451953D01*
X118006403Y-63483211D01*
X118038035Y-63492499D01*
X118038036Y-63492499D01*
X118038039Y-63492500D01*
X118038041Y-63492500D01*
X118181959Y-63492500D01*
X118181961Y-63492500D01*
X118320053Y-63451953D01*
X118441128Y-63374143D01*
X118479680Y-63329650D01*
X118532076Y-63298054D01*
X118593037Y-63303289D01*
X118629320Y-63329651D01*
X118667871Y-63374142D01*
X118667872Y-63374143D01*
X118704446Y-63397648D01*
X118788947Y-63451953D01*
X118895403Y-63483211D01*
X118927035Y-63492499D01*
X118927036Y-63492499D01*
X118927039Y-63492500D01*
X118927041Y-63492500D01*
X119070959Y-63492500D01*
X119070961Y-63492500D01*
X119209053Y-63451953D01*
X119330128Y-63374143D01*
X119424377Y-63265373D01*
X119480447Y-63142599D01*
X119521819Y-63097522D01*
X119581786Y-63085371D01*
X119637442Y-63110789D01*
X119660553Y-63142599D01*
X119716622Y-63265371D01*
X119716623Y-63265373D01*
X119772320Y-63329651D01*
X119810873Y-63374144D01*
X119931942Y-63451950D01*
X119931947Y-63451953D01*
X120038403Y-63483211D01*
X120070035Y-63492499D01*
X120070036Y-63492499D01*
X120070039Y-63492500D01*
X120070041Y-63492500D01*
X120213959Y-63492500D01*
X120213961Y-63492500D01*
X120352053Y-63451953D01*
X120473128Y-63374143D01*
X120511680Y-63329650D01*
X120564076Y-63298054D01*
X120625037Y-63303289D01*
X120661320Y-63329651D01*
X120699871Y-63374142D01*
X120699872Y-63374143D01*
X120736446Y-63397648D01*
X120820947Y-63451953D01*
X120927403Y-63483211D01*
X120959035Y-63492499D01*
X120959036Y-63492499D01*
X120959039Y-63492500D01*
X120959041Y-63492500D01*
X121102959Y-63492500D01*
X121102961Y-63492500D01*
X121241053Y-63451953D01*
X121325560Y-63397644D01*
X148559500Y-63397644D01*
X148559500Y-63602355D01*
X148591521Y-63804529D01*
X148654780Y-63999219D01*
X148747712Y-64181609D01*
X148747714Y-64181613D01*
X148868029Y-64347213D01*
X148868031Y-64347215D01*
X148868034Y-64347219D01*
X149012781Y-64491966D01*
X149012784Y-64491968D01*
X149012786Y-64491970D01*
X149178386Y-64612285D01*
X149178390Y-64612287D01*
X149360781Y-64705220D01*
X149555466Y-64768477D01*
X149555467Y-64768477D01*
X149555470Y-64768478D01*
X149757645Y-64800500D01*
X149757648Y-64800500D01*
X149962355Y-64800500D01*
X150164529Y-64768478D01*
X150164530Y-64768477D01*
X150164534Y-64768477D01*
X150359219Y-64705220D01*
X150541610Y-64612287D01*
X150707219Y-64491966D01*
X150851966Y-64347219D01*
X150972287Y-64181610D01*
X151065220Y-63999219D01*
X151128477Y-63804534D01*
X151160500Y-63602352D01*
X151160500Y-63397648D01*
X151160500Y-63397644D01*
X151128478Y-63195470D01*
X151108654Y-63134457D01*
X151065220Y-63000781D01*
X150972287Y-62818390D01*
X150972285Y-62818386D01*
X150851970Y-62652786D01*
X150851968Y-62652784D01*
X150851966Y-62652781D01*
X150707219Y-62508034D01*
X150707215Y-62508031D01*
X150707213Y-62508029D01*
X150541613Y-62387714D01*
X150541609Y-62387712D01*
X150359219Y-62294780D01*
X150164529Y-62231521D01*
X149962355Y-62199500D01*
X149962352Y-62199500D01*
X149757648Y-62199500D01*
X149757645Y-62199500D01*
X149555470Y-62231521D01*
X149360780Y-62294780D01*
X149178390Y-62387712D01*
X149178386Y-62387714D01*
X149012786Y-62508029D01*
X148868029Y-62652786D01*
X148747714Y-62818386D01*
X148747712Y-62818390D01*
X148654780Y-63000780D01*
X148591521Y-63195470D01*
X148559500Y-63397644D01*
X121325560Y-63397644D01*
X121362128Y-63374143D01*
X121456377Y-63265373D01*
X121516165Y-63134457D01*
X121523222Y-63085371D01*
X121536647Y-62992002D01*
X121536647Y-62991997D01*
X121516165Y-62849543D01*
X121456377Y-62718628D01*
X121456377Y-62718627D01*
X121419292Y-62675829D01*
X121395476Y-62619472D01*
X121409334Y-62559877D01*
X121419293Y-62546170D01*
X121456377Y-62503373D01*
X121516165Y-62372457D01*
X121536428Y-62231523D01*
X121536647Y-62230002D01*
X121536647Y-62229997D01*
X121516165Y-62087543D01*
X121461799Y-61968500D01*
X121456377Y-61956627D01*
X121362128Y-61847857D01*
X121362127Y-61847856D01*
X121362126Y-61847855D01*
X121241057Y-61770049D01*
X121241054Y-61770047D01*
X121241053Y-61770047D01*
X121241050Y-61770046D01*
X121102964Y-61729500D01*
X121102961Y-61729500D01*
X120959039Y-61729500D01*
X120959035Y-61729500D01*
X120820949Y-61770046D01*
X120820942Y-61770049D01*
X120699872Y-61847856D01*
X120699870Y-61847858D01*
X120661319Y-61892349D01*
X120608923Y-61923945D01*
X120547962Y-61918709D01*
X120511681Y-61892349D01*
X120473129Y-61847858D01*
X120473127Y-61847856D01*
X120352057Y-61770049D01*
X120352054Y-61770047D01*
X120352053Y-61770047D01*
X120352050Y-61770046D01*
X120213964Y-61729500D01*
X120213961Y-61729500D01*
X120070039Y-61729500D01*
X120070035Y-61729500D01*
X119931949Y-61770046D01*
X119931942Y-61770049D01*
X119810873Y-61847855D01*
X119716622Y-61956628D01*
X119660553Y-62079400D01*
X119619181Y-62124477D01*
X119559214Y-62136628D01*
X119503558Y-62111210D01*
X119480447Y-62079400D01*
X119429799Y-61968500D01*
X119424377Y-61956627D01*
X119330128Y-61847857D01*
X119330127Y-61847856D01*
X119330126Y-61847855D01*
X119209057Y-61770049D01*
X119209054Y-61770047D01*
X119209053Y-61770047D01*
X119209050Y-61770046D01*
X119070964Y-61729500D01*
X119070961Y-61729500D01*
X118927039Y-61729500D01*
X118927035Y-61729500D01*
X118788949Y-61770046D01*
X118788942Y-61770049D01*
X118667872Y-61847856D01*
X118667870Y-61847858D01*
X118629319Y-61892349D01*
X118576923Y-61923945D01*
X118515962Y-61918709D01*
X118479681Y-61892349D01*
X118441129Y-61847858D01*
X118441127Y-61847856D01*
X118320057Y-61770049D01*
X118320054Y-61770047D01*
X118320053Y-61770047D01*
X118320050Y-61770046D01*
X118181964Y-61729500D01*
X118181961Y-61729500D01*
X118038039Y-61729500D01*
X118038035Y-61729500D01*
X117899949Y-61770046D01*
X117899942Y-61770049D01*
X117778873Y-61847855D01*
X117684622Y-61956628D01*
X117624834Y-62087543D01*
X117604353Y-62229997D01*
X81574907Y-62229997D01*
X81382355Y-62199500D01*
X81382352Y-62199500D01*
X81177648Y-62199500D01*
X81177645Y-62199500D01*
X80975470Y-62231521D01*
X80780780Y-62294780D01*
X80598390Y-62387712D01*
X80598386Y-62387714D01*
X80432786Y-62508029D01*
X80288029Y-62652786D01*
X80167714Y-62818386D01*
X80167712Y-62818390D01*
X80074780Y-63000780D01*
X80011521Y-63195470D01*
X79979500Y-63397644D01*
X76400500Y-63397644D01*
X76400500Y-60578997D01*
X90299353Y-60578997D01*
X90299353Y-60579002D01*
X90319834Y-60721456D01*
X90379622Y-60852371D01*
X90379623Y-60852373D01*
X90446029Y-60929010D01*
X90471728Y-60958669D01*
X90495545Y-61015029D01*
X90481686Y-61074624D01*
X90471728Y-61088331D01*
X90379622Y-61194628D01*
X90319834Y-61325543D01*
X90299353Y-61467997D01*
X90299353Y-61468002D01*
X90319834Y-61610456D01*
X90374201Y-61729500D01*
X90379623Y-61741373D01*
X90471890Y-61847856D01*
X90473873Y-61850144D01*
X90539546Y-61892349D01*
X90594947Y-61927953D01*
X90692603Y-61956627D01*
X90733035Y-61968499D01*
X90733036Y-61968499D01*
X90733039Y-61968500D01*
X90733041Y-61968500D01*
X90876959Y-61968500D01*
X90876961Y-61968500D01*
X91015053Y-61927953D01*
X91136128Y-61850143D01*
X91230377Y-61741373D01*
X91290165Y-61610457D01*
X91310647Y-61468000D01*
X91290165Y-61325543D01*
X91230377Y-61194627D01*
X91138272Y-61088331D01*
X91114454Y-61031972D01*
X91128313Y-60972376D01*
X91138272Y-60958669D01*
X91158625Y-60935179D01*
X91230377Y-60852373D01*
X91290165Y-60721457D01*
X91310647Y-60579000D01*
X91290165Y-60436543D01*
X91230377Y-60305627D01*
X91136128Y-60196857D01*
X91136127Y-60196856D01*
X91136126Y-60196855D01*
X91015057Y-60119049D01*
X91015054Y-60119047D01*
X91015053Y-60119047D01*
X91015050Y-60119046D01*
X90876964Y-60078500D01*
X90876961Y-60078500D01*
X90733039Y-60078500D01*
X90733035Y-60078500D01*
X90594949Y-60119046D01*
X90594942Y-60119049D01*
X90473873Y-60196855D01*
X90379622Y-60305628D01*
X90319834Y-60436543D01*
X90299353Y-60578997D01*
X76400500Y-60578997D01*
X76400500Y-60326550D01*
X76400549Y-60323440D01*
X76418802Y-59742627D01*
X76419192Y-59736420D01*
X76473734Y-59159418D01*
X76474514Y-59153248D01*
X76510191Y-58927997D01*
X112651353Y-58927997D01*
X112651353Y-58928002D01*
X112671834Y-59070456D01*
X112731623Y-59201373D01*
X112768705Y-59244170D01*
X112792522Y-59300530D01*
X112778663Y-59360125D01*
X112768705Y-59373830D01*
X112731623Y-59416626D01*
X112671834Y-59547543D01*
X112651353Y-59689997D01*
X112651353Y-59690002D01*
X112671834Y-59832456D01*
X112731622Y-59963371D01*
X112731623Y-59963373D01*
X112825872Y-60072143D01*
X112825873Y-60072144D01*
X112898856Y-60119047D01*
X112946947Y-60149953D01*
X113053403Y-60181211D01*
X113085035Y-60190499D01*
X113085036Y-60190499D01*
X113085039Y-60190500D01*
X113085041Y-60190500D01*
X113228959Y-60190500D01*
X113228961Y-60190500D01*
X113367053Y-60149953D01*
X113420978Y-60115297D01*
X113480151Y-60099743D01*
X113528021Y-60115297D01*
X113581947Y-60149953D01*
X113688403Y-60181211D01*
X113720035Y-60190499D01*
X113720036Y-60190499D01*
X113720039Y-60190500D01*
X113720041Y-60190500D01*
X113863959Y-60190500D01*
X113863961Y-60190500D01*
X114002053Y-60149953D01*
X114123128Y-60072143D01*
X114217377Y-59963373D01*
X114277165Y-59832457D01*
X114283992Y-59784971D01*
X114297647Y-59690002D01*
X114297647Y-59689997D01*
X114277165Y-59547543D01*
X114217377Y-59416628D01*
X114217377Y-59416627D01*
X114180292Y-59373829D01*
X114156476Y-59317472D01*
X114170334Y-59257877D01*
X114180293Y-59244170D01*
X114217377Y-59201373D01*
X114277165Y-59070457D01*
X114297647Y-58928000D01*
X114297647Y-58927997D01*
X116842353Y-58927997D01*
X116842353Y-58928002D01*
X116862834Y-59070456D01*
X116922623Y-59201373D01*
X116959705Y-59244170D01*
X116983522Y-59300530D01*
X116969663Y-59360125D01*
X116959705Y-59373830D01*
X116922623Y-59416626D01*
X116862834Y-59547543D01*
X116842353Y-59689997D01*
X116842353Y-59690002D01*
X116862834Y-59832456D01*
X116922622Y-59963371D01*
X116922623Y-59963373D01*
X117016872Y-60072143D01*
X117016873Y-60072144D01*
X117089856Y-60119047D01*
X117137947Y-60149953D01*
X117244403Y-60181211D01*
X117276035Y-60190499D01*
X117276036Y-60190499D01*
X117276039Y-60190500D01*
X117276041Y-60190500D01*
X117419959Y-60190500D01*
X117419961Y-60190500D01*
X117558053Y-60149953D01*
X117611978Y-60115297D01*
X117671151Y-60099743D01*
X117719021Y-60115297D01*
X117772947Y-60149953D01*
X117879403Y-60181211D01*
X117911035Y-60190499D01*
X117911036Y-60190499D01*
X117911039Y-60190500D01*
X117911041Y-60190500D01*
X118054959Y-60190500D01*
X118054961Y-60190500D01*
X118193053Y-60149953D01*
X118314128Y-60072143D01*
X118408377Y-59963373D01*
X118468165Y-59832457D01*
X118474992Y-59784971D01*
X118488647Y-59690002D01*
X118488647Y-59689997D01*
X118468165Y-59547543D01*
X118408377Y-59416628D01*
X118408377Y-59416627D01*
X118371292Y-59373829D01*
X118347476Y-59317472D01*
X118361334Y-59257877D01*
X118371293Y-59244170D01*
X118408377Y-59201373D01*
X118468165Y-59070457D01*
X118488647Y-58928000D01*
X118468165Y-58785543D01*
X118408377Y-58654627D01*
X118314128Y-58545857D01*
X118314127Y-58545856D01*
X118314126Y-58545855D01*
X118193057Y-58468049D01*
X118193054Y-58468047D01*
X118193053Y-58468047D01*
X118193050Y-58468046D01*
X118054964Y-58427500D01*
X118054961Y-58427500D01*
X117911039Y-58427500D01*
X117911035Y-58427500D01*
X117772948Y-58468046D01*
X117719022Y-58502702D01*
X117659847Y-58518255D01*
X117611978Y-58502702D01*
X117558051Y-58468046D01*
X117419964Y-58427500D01*
X117419961Y-58427500D01*
X117276039Y-58427500D01*
X117276035Y-58427500D01*
X117137949Y-58468046D01*
X117137942Y-58468049D01*
X117016873Y-58545855D01*
X116922622Y-58654628D01*
X116862834Y-58785543D01*
X116842353Y-58927997D01*
X114297647Y-58927997D01*
X114277165Y-58785543D01*
X114217377Y-58654627D01*
X114123128Y-58545857D01*
X114123127Y-58545856D01*
X114123126Y-58545855D01*
X114002057Y-58468049D01*
X114002054Y-58468047D01*
X114002053Y-58468047D01*
X114002050Y-58468046D01*
X113863964Y-58427500D01*
X113863961Y-58427500D01*
X113720039Y-58427500D01*
X113720035Y-58427500D01*
X113581948Y-58468046D01*
X113528022Y-58502702D01*
X113468847Y-58518255D01*
X113420978Y-58502702D01*
X113367051Y-58468046D01*
X113228964Y-58427500D01*
X113228961Y-58427500D01*
X113085039Y-58427500D01*
X113085035Y-58427500D01*
X112946949Y-58468046D01*
X112946942Y-58468049D01*
X112825873Y-58545855D01*
X112731622Y-58654628D01*
X112671834Y-58785543D01*
X112651353Y-58927997D01*
X76510191Y-58927997D01*
X76530013Y-58802846D01*
X76565177Y-58580825D01*
X76566337Y-58574747D01*
X76692771Y-58009107D01*
X76694310Y-58003114D01*
X76856010Y-57446542D01*
X76857923Y-57440656D01*
X77054251Y-56895331D01*
X77056519Y-56889603D01*
X77256562Y-56427328D01*
X110500000Y-56427328D01*
X110500000Y-56651199D01*
X110500001Y-56651200D01*
X110950000Y-56651200D01*
X110950000Y-57151200D01*
X110500001Y-57151200D01*
X110500000Y-57151201D01*
X110500000Y-57375071D01*
X110528821Y-57519964D01*
X110528823Y-57519970D01*
X110585358Y-57656457D01*
X110667434Y-57779293D01*
X110771906Y-57883765D01*
X110894744Y-57965842D01*
X110999999Y-58009440D01*
X111000000Y-58009439D01*
X111000000Y-57468188D01*
X111009940Y-57485405D01*
X111065795Y-57541260D01*
X111134204Y-57580756D01*
X111210504Y-57601200D01*
X111289496Y-57601200D01*
X111365796Y-57580756D01*
X111434205Y-57541260D01*
X111490060Y-57485405D01*
X111500000Y-57468188D01*
X111500000Y-58009440D01*
X111605255Y-57965842D01*
X111728093Y-57883765D01*
X111832565Y-57779293D01*
X111914641Y-57656457D01*
X111971176Y-57519970D01*
X111971178Y-57519964D01*
X111999999Y-57375071D01*
X112000000Y-57375067D01*
X112000000Y-57151201D01*
X111999999Y-57151200D01*
X111550000Y-57151200D01*
X111550000Y-56651200D01*
X111999999Y-56651200D01*
X112000000Y-56651199D01*
X112000000Y-56427332D01*
X111999999Y-56427328D01*
X119140000Y-56427328D01*
X119140000Y-56651199D01*
X119140001Y-56651200D01*
X119590000Y-56651200D01*
X119590000Y-57151200D01*
X119140001Y-57151200D01*
X119140000Y-57151201D01*
X119140000Y-57375071D01*
X119168821Y-57519964D01*
X119168823Y-57519970D01*
X119225358Y-57656457D01*
X119307434Y-57779293D01*
X119411906Y-57883765D01*
X119534744Y-57965842D01*
X119639999Y-58009440D01*
X119640000Y-58009439D01*
X119640000Y-57468188D01*
X119649940Y-57485405D01*
X119705795Y-57541260D01*
X119774204Y-57580756D01*
X119850504Y-57601200D01*
X119929496Y-57601200D01*
X120005796Y-57580756D01*
X120074205Y-57541260D01*
X120130060Y-57485405D01*
X120140000Y-57468188D01*
X120140000Y-58009440D01*
X120245255Y-57965842D01*
X120368093Y-57883765D01*
X120472565Y-57779293D01*
X120554641Y-57656457D01*
X120611176Y-57519970D01*
X120611178Y-57519964D01*
X120625095Y-57450000D01*
X130399815Y-57450000D01*
X130418504Y-57627808D01*
X130473748Y-57797830D01*
X130473754Y-57797844D01*
X130544769Y-57920845D01*
X130563141Y-57952665D01*
X130563143Y-57952667D01*
X130682765Y-58085521D01*
X130682771Y-58085527D01*
X130827402Y-58190609D01*
X130827412Y-58190615D01*
X130990726Y-58263326D01*
X130990733Y-58263329D01*
X131165609Y-58300500D01*
X131165612Y-58300500D01*
X131344388Y-58300500D01*
X131344391Y-58300500D01*
X131519267Y-58263329D01*
X131600930Y-58226970D01*
X131682587Y-58190615D01*
X131682589Y-58190613D01*
X131682593Y-58190612D01*
X131827230Y-58085526D01*
X131946859Y-57952665D01*
X132036250Y-57797835D01*
X132091497Y-57627803D01*
X132110185Y-57450000D01*
X132399815Y-57450000D01*
X132418504Y-57627808D01*
X132473748Y-57797830D01*
X132473754Y-57797844D01*
X132544769Y-57920845D01*
X132563141Y-57952665D01*
X132563143Y-57952667D01*
X132682765Y-58085521D01*
X132682771Y-58085527D01*
X132827402Y-58190609D01*
X132827412Y-58190615D01*
X132990726Y-58263326D01*
X132990733Y-58263329D01*
X133165609Y-58300500D01*
X133165612Y-58300500D01*
X133344388Y-58300500D01*
X133344391Y-58300500D01*
X133519267Y-58263329D01*
X133600930Y-58226970D01*
X133682587Y-58190615D01*
X133682589Y-58190613D01*
X133682593Y-58190612D01*
X133827230Y-58085526D01*
X133946859Y-57952665D01*
X134036250Y-57797835D01*
X134091497Y-57627803D01*
X134110185Y-57450000D01*
X134399815Y-57450000D01*
X134418504Y-57627808D01*
X134473748Y-57797830D01*
X134473754Y-57797844D01*
X134544769Y-57920845D01*
X134563141Y-57952665D01*
X134563143Y-57952667D01*
X134682765Y-58085521D01*
X134682771Y-58085527D01*
X134827402Y-58190609D01*
X134827412Y-58190615D01*
X134990726Y-58263326D01*
X134990733Y-58263329D01*
X135165609Y-58300500D01*
X135165612Y-58300500D01*
X135344388Y-58300500D01*
X135344391Y-58300500D01*
X135519267Y-58263329D01*
X135600930Y-58226970D01*
X135682587Y-58190615D01*
X135682589Y-58190613D01*
X135682593Y-58190612D01*
X135827230Y-58085526D01*
X135946859Y-57952665D01*
X136036250Y-57797835D01*
X136091497Y-57627803D01*
X136110185Y-57450000D01*
X138399815Y-57450000D01*
X138418504Y-57627808D01*
X138473748Y-57797830D01*
X138473754Y-57797844D01*
X138544769Y-57920845D01*
X138563141Y-57952665D01*
X138563143Y-57952667D01*
X138682765Y-58085521D01*
X138682771Y-58085527D01*
X138827402Y-58190609D01*
X138827412Y-58190615D01*
X138990726Y-58263326D01*
X138990733Y-58263329D01*
X139165609Y-58300500D01*
X139165612Y-58300500D01*
X139344388Y-58300500D01*
X139344391Y-58300500D01*
X139519267Y-58263329D01*
X139600930Y-58226970D01*
X139682587Y-58190615D01*
X139682589Y-58190613D01*
X139682593Y-58190612D01*
X139827230Y-58085526D01*
X139946859Y-57952665D01*
X140036250Y-57797835D01*
X140091497Y-57627803D01*
X140110185Y-57450000D01*
X140091497Y-57272197D01*
X140036250Y-57102165D01*
X140036247Y-57102160D01*
X140036245Y-57102155D01*
X139990322Y-57022615D01*
X139946859Y-56947335D01*
X139827230Y-56814474D01*
X139827228Y-56814472D01*
X139682597Y-56709390D01*
X139682587Y-56709384D01*
X139519273Y-56636673D01*
X139519268Y-56636671D01*
X139519267Y-56636671D01*
X139519264Y-56636670D01*
X139519263Y-56636670D01*
X139486001Y-56629600D01*
X139344391Y-56599500D01*
X139165609Y-56599500D01*
X139054099Y-56623202D01*
X138990736Y-56636670D01*
X138990730Y-56636672D01*
X138827414Y-56709384D01*
X138827411Y-56709386D01*
X138682765Y-56814477D01*
X138682765Y-56814478D01*
X138563143Y-56947332D01*
X138563139Y-56947338D01*
X138473754Y-57102155D01*
X138473748Y-57102169D01*
X138418504Y-57272191D01*
X138418503Y-57272195D01*
X138418503Y-57272197D01*
X138403284Y-57416996D01*
X138399815Y-57450000D01*
X136110185Y-57450000D01*
X136091497Y-57272197D01*
X136036250Y-57102165D01*
X136036247Y-57102160D01*
X136036245Y-57102155D01*
X135990322Y-57022615D01*
X135946859Y-56947335D01*
X135827230Y-56814474D01*
X135827228Y-56814472D01*
X135682597Y-56709390D01*
X135682587Y-56709384D01*
X135519273Y-56636673D01*
X135519268Y-56636671D01*
X135519267Y-56636671D01*
X135519264Y-56636670D01*
X135519263Y-56636670D01*
X135486001Y-56629600D01*
X135344391Y-56599500D01*
X135165609Y-56599500D01*
X135054099Y-56623202D01*
X134990736Y-56636670D01*
X134990730Y-56636672D01*
X134827414Y-56709384D01*
X134827411Y-56709386D01*
X134682765Y-56814477D01*
X134682765Y-56814478D01*
X134563143Y-56947332D01*
X134563139Y-56947338D01*
X134473754Y-57102155D01*
X134473748Y-57102169D01*
X134418504Y-57272191D01*
X134418503Y-57272195D01*
X134418503Y-57272197D01*
X134403284Y-57416996D01*
X134399815Y-57450000D01*
X134110185Y-57450000D01*
X134091497Y-57272197D01*
X134036250Y-57102165D01*
X134036247Y-57102160D01*
X134036245Y-57102155D01*
X133990322Y-57022615D01*
X133946859Y-56947335D01*
X133827230Y-56814474D01*
X133827228Y-56814472D01*
X133682597Y-56709390D01*
X133682587Y-56709384D01*
X133519273Y-56636673D01*
X133519268Y-56636671D01*
X133519267Y-56636671D01*
X133519264Y-56636670D01*
X133519263Y-56636670D01*
X133486001Y-56629600D01*
X133344391Y-56599500D01*
X133165609Y-56599500D01*
X133054099Y-56623202D01*
X132990736Y-56636670D01*
X132990730Y-56636672D01*
X132827414Y-56709384D01*
X132827411Y-56709386D01*
X132682765Y-56814477D01*
X132682765Y-56814478D01*
X132563143Y-56947332D01*
X132563139Y-56947338D01*
X132473754Y-57102155D01*
X132473748Y-57102169D01*
X132418504Y-57272191D01*
X132418503Y-57272195D01*
X132418503Y-57272197D01*
X132403284Y-57416996D01*
X132399815Y-57450000D01*
X132110185Y-57450000D01*
X132091497Y-57272197D01*
X132036250Y-57102165D01*
X132036247Y-57102160D01*
X132036245Y-57102155D01*
X131990322Y-57022615D01*
X131946859Y-56947335D01*
X131827230Y-56814474D01*
X131827228Y-56814472D01*
X131682597Y-56709390D01*
X131682587Y-56709384D01*
X131519273Y-56636673D01*
X131519268Y-56636671D01*
X131519267Y-56636671D01*
X131519264Y-56636670D01*
X131519263Y-56636670D01*
X131486001Y-56629600D01*
X131344391Y-56599500D01*
X131165609Y-56599500D01*
X131054099Y-56623202D01*
X130990736Y-56636670D01*
X130990730Y-56636672D01*
X130827414Y-56709384D01*
X130827411Y-56709386D01*
X130682765Y-56814477D01*
X130682765Y-56814478D01*
X130563143Y-56947332D01*
X130563139Y-56947338D01*
X130473754Y-57102155D01*
X130473748Y-57102169D01*
X130418504Y-57272191D01*
X130418503Y-57272195D01*
X130418503Y-57272197D01*
X130403284Y-57416996D01*
X130399815Y-57450000D01*
X120625095Y-57450000D01*
X120639999Y-57375071D01*
X120640000Y-57375067D01*
X120640000Y-57151201D01*
X120639999Y-57151200D01*
X120190000Y-57151200D01*
X120190000Y-56651200D01*
X120639999Y-56651200D01*
X120640000Y-56651199D01*
X120640000Y-56427332D01*
X120639999Y-56427328D01*
X120611178Y-56282435D01*
X120611176Y-56282429D01*
X120577033Y-56200000D01*
X128049785Y-56200000D01*
X128068603Y-56403083D01*
X128124418Y-56599250D01*
X128215327Y-56781821D01*
X128338236Y-56944579D01*
X128488959Y-57081981D01*
X128662363Y-57189348D01*
X128852544Y-57263024D01*
X129053024Y-57300500D01*
X129256976Y-57300500D01*
X129457456Y-57263024D01*
X129647637Y-57189348D01*
X129821041Y-57081981D01*
X129971764Y-56944579D01*
X130094673Y-56781821D01*
X130185582Y-56599250D01*
X130241397Y-56403083D01*
X130260215Y-56200000D01*
X140249785Y-56200000D01*
X140268603Y-56403083D01*
X140324418Y-56599250D01*
X140415327Y-56781821D01*
X140538236Y-56944579D01*
X140688959Y-57081981D01*
X140862363Y-57189348D01*
X141052544Y-57263024D01*
X141253024Y-57300500D01*
X141456976Y-57300500D01*
X141657456Y-57263024D01*
X141847637Y-57189348D01*
X142021041Y-57081981D01*
X142171764Y-56944579D01*
X142294673Y-56781821D01*
X142385582Y-56599250D01*
X142441397Y-56403083D01*
X142460215Y-56200000D01*
X142441397Y-55996917D01*
X142385582Y-55800750D01*
X142294673Y-55618179D01*
X142171764Y-55455421D01*
X142021041Y-55318019D01*
X141847637Y-55210652D01*
X141657456Y-55136976D01*
X141657455Y-55136975D01*
X141657453Y-55136975D01*
X141456976Y-55099500D01*
X141253024Y-55099500D01*
X141052546Y-55136975D01*
X140982632Y-55164059D01*
X140862363Y-55210652D01*
X140721543Y-55297844D01*
X140688959Y-55318019D01*
X140538237Y-55455420D01*
X140415328Y-55618177D01*
X140415323Y-55618186D01*
X140328297Y-55792959D01*
X140324418Y-55800750D01*
X140268603Y-55996917D01*
X140249785Y-56200000D01*
X130260215Y-56200000D01*
X130241397Y-55996917D01*
X130185582Y-55800750D01*
X130094673Y-55618179D01*
X129971764Y-55455421D01*
X129821041Y-55318019D01*
X129647637Y-55210652D01*
X129457456Y-55136976D01*
X129457455Y-55136975D01*
X129457453Y-55136975D01*
X129256976Y-55099500D01*
X129053024Y-55099500D01*
X128852546Y-55136975D01*
X128782632Y-55164059D01*
X128662363Y-55210652D01*
X128521543Y-55297844D01*
X128488959Y-55318019D01*
X128338237Y-55455420D01*
X128215328Y-55618177D01*
X128215323Y-55618186D01*
X128128297Y-55792959D01*
X128124418Y-55800750D01*
X128068603Y-55996917D01*
X128049785Y-56200000D01*
X120577033Y-56200000D01*
X120554641Y-56145942D01*
X120472565Y-56023106D01*
X120368090Y-55918631D01*
X120245270Y-55836565D01*
X120245256Y-55836558D01*
X120140000Y-55792958D01*
X120140000Y-56334211D01*
X120130060Y-56316995D01*
X120074205Y-56261140D01*
X120005796Y-56221644D01*
X119929496Y-56201200D01*
X119850504Y-56201200D01*
X119774204Y-56221644D01*
X119705795Y-56261140D01*
X119649940Y-56316995D01*
X119640000Y-56334211D01*
X119640000Y-55792959D01*
X119639999Y-55792958D01*
X119534743Y-55836558D01*
X119534729Y-55836565D01*
X119411909Y-55918631D01*
X119307434Y-56023106D01*
X119225358Y-56145942D01*
X119168823Y-56282429D01*
X119168821Y-56282435D01*
X119140000Y-56427328D01*
X111999999Y-56427328D01*
X111971178Y-56282435D01*
X111971176Y-56282429D01*
X111914641Y-56145942D01*
X111832565Y-56023106D01*
X111728090Y-55918631D01*
X111605270Y-55836565D01*
X111605256Y-55836558D01*
X111500000Y-55792958D01*
X111500000Y-56334211D01*
X111490060Y-56316995D01*
X111434205Y-56261140D01*
X111365796Y-56221644D01*
X111289496Y-56201200D01*
X111210504Y-56201200D01*
X111134204Y-56221644D01*
X111065795Y-56261140D01*
X111009940Y-56316995D01*
X111000000Y-56334211D01*
X111000000Y-55792959D01*
X110999999Y-55792958D01*
X110894743Y-55836558D01*
X110894729Y-55836565D01*
X110771909Y-55918631D01*
X110667434Y-56023106D01*
X110585358Y-56145942D01*
X110528823Y-56282429D01*
X110528821Y-56282435D01*
X110500000Y-56427328D01*
X77256562Y-56427328D01*
X77286709Y-56357663D01*
X77289353Y-56352047D01*
X77324822Y-56282435D01*
X77552486Y-55835619D01*
X77555450Y-55830229D01*
X77850489Y-55331344D01*
X77853796Y-55326133D01*
X78109416Y-54950000D01*
X130399815Y-54950000D01*
X130415528Y-55099500D01*
X130418504Y-55127808D01*
X130473748Y-55297830D01*
X130473754Y-55297844D01*
X130516496Y-55371874D01*
X130563141Y-55452665D01*
X130563143Y-55452667D01*
X130682765Y-55585521D01*
X130682771Y-55585527D01*
X130827402Y-55690609D01*
X130827412Y-55690615D01*
X130948563Y-55744554D01*
X130990733Y-55763329D01*
X131165609Y-55800500D01*
X131165612Y-55800500D01*
X131344388Y-55800500D01*
X131344391Y-55800500D01*
X131519267Y-55763329D01*
X131600930Y-55726970D01*
X131682587Y-55690615D01*
X131682589Y-55690613D01*
X131682593Y-55690612D01*
X131827230Y-55585526D01*
X131946859Y-55452665D01*
X132036250Y-55297835D01*
X132091497Y-55127803D01*
X132110185Y-54950000D01*
X132399815Y-54950000D01*
X132415528Y-55099500D01*
X132418504Y-55127808D01*
X132473748Y-55297830D01*
X132473754Y-55297844D01*
X132516496Y-55371874D01*
X132563141Y-55452665D01*
X132563143Y-55452667D01*
X132682765Y-55585521D01*
X132682771Y-55585527D01*
X132827402Y-55690609D01*
X132827412Y-55690615D01*
X132948563Y-55744554D01*
X132990733Y-55763329D01*
X133165609Y-55800500D01*
X133165612Y-55800500D01*
X133344388Y-55800500D01*
X133344391Y-55800500D01*
X133519267Y-55763329D01*
X133600930Y-55726970D01*
X133682587Y-55690615D01*
X133682589Y-55690613D01*
X133682593Y-55690612D01*
X133827230Y-55585526D01*
X133946859Y-55452665D01*
X134036250Y-55297835D01*
X134091497Y-55127803D01*
X134110185Y-54950000D01*
X134399815Y-54950000D01*
X134415528Y-55099500D01*
X134418504Y-55127808D01*
X134473748Y-55297830D01*
X134473754Y-55297844D01*
X134516496Y-55371874D01*
X134563141Y-55452665D01*
X134563143Y-55452667D01*
X134682765Y-55585521D01*
X134682771Y-55585527D01*
X134827402Y-55690609D01*
X134827412Y-55690615D01*
X134948563Y-55744554D01*
X134990733Y-55763329D01*
X135165609Y-55800500D01*
X135165612Y-55800500D01*
X135344388Y-55800500D01*
X135344391Y-55800500D01*
X135519267Y-55763329D01*
X135600930Y-55726970D01*
X135682587Y-55690615D01*
X135682589Y-55690613D01*
X135682593Y-55690612D01*
X135827230Y-55585526D01*
X135946859Y-55452665D01*
X136036250Y-55297835D01*
X136091497Y-55127803D01*
X136110185Y-54950000D01*
X136091497Y-54772197D01*
X136036250Y-54602165D01*
X136036247Y-54602160D01*
X136036245Y-54602155D01*
X135990322Y-54522615D01*
X135946859Y-54447335D01*
X135885338Y-54379009D01*
X135827234Y-54314478D01*
X135827228Y-54314472D01*
X135780130Y-54280253D01*
X138404500Y-54280253D01*
X138404500Y-55619746D01*
X138404501Y-55619758D01*
X138416132Y-55678227D01*
X138416133Y-55678231D01*
X138460448Y-55744552D01*
X138526769Y-55788867D01*
X138571231Y-55797711D01*
X138585241Y-55800498D01*
X138585246Y-55800498D01*
X138585252Y-55800500D01*
X138585253Y-55800500D01*
X139924747Y-55800500D01*
X139924748Y-55800500D01*
X139983231Y-55788867D01*
X140049552Y-55744552D01*
X140093867Y-55678231D01*
X140105500Y-55619748D01*
X140105500Y-54280252D01*
X140093867Y-54221769D01*
X140049552Y-54155448D01*
X140021454Y-54136673D01*
X139983233Y-54111134D01*
X139983231Y-54111133D01*
X139983228Y-54111132D01*
X139983227Y-54111132D01*
X139924758Y-54099501D01*
X139924748Y-54099500D01*
X138585252Y-54099500D01*
X138585251Y-54099500D01*
X138585241Y-54099501D01*
X138526772Y-54111132D01*
X138526766Y-54111134D01*
X138460451Y-54155445D01*
X138460445Y-54155451D01*
X138416134Y-54221766D01*
X138416132Y-54221772D01*
X138404501Y-54280241D01*
X138404500Y-54280253D01*
X135780130Y-54280253D01*
X135682597Y-54209390D01*
X135682587Y-54209384D01*
X135519273Y-54136673D01*
X135519268Y-54136671D01*
X135519267Y-54136671D01*
X135519264Y-54136670D01*
X135519263Y-54136670D01*
X135486001Y-54129600D01*
X135344391Y-54099500D01*
X135165609Y-54099500D01*
X135054099Y-54123202D01*
X134990736Y-54136670D01*
X134990730Y-54136672D01*
X134827414Y-54209384D01*
X134827411Y-54209386D01*
X134827408Y-54209387D01*
X134827408Y-54209388D01*
X134810371Y-54221766D01*
X134682765Y-54314477D01*
X134682765Y-54314478D01*
X134563143Y-54447332D01*
X134563139Y-54447338D01*
X134473754Y-54602155D01*
X134473748Y-54602169D01*
X134418504Y-54772191D01*
X134418503Y-54772195D01*
X134418503Y-54772197D01*
X134399815Y-54950000D01*
X134110185Y-54950000D01*
X134091497Y-54772197D01*
X134036250Y-54602165D01*
X134036247Y-54602160D01*
X134036245Y-54602155D01*
X133990322Y-54522615D01*
X133946859Y-54447335D01*
X133885338Y-54379009D01*
X133827234Y-54314478D01*
X133827228Y-54314472D01*
X133682597Y-54209390D01*
X133682587Y-54209384D01*
X133519273Y-54136673D01*
X133519268Y-54136671D01*
X133519267Y-54136671D01*
X133519264Y-54136670D01*
X133519263Y-54136670D01*
X133486001Y-54129600D01*
X133344391Y-54099500D01*
X133165609Y-54099500D01*
X133054099Y-54123202D01*
X132990736Y-54136670D01*
X132990730Y-54136672D01*
X132827414Y-54209384D01*
X132827411Y-54209386D01*
X132827408Y-54209387D01*
X132827408Y-54209388D01*
X132810371Y-54221766D01*
X132682765Y-54314477D01*
X132682765Y-54314478D01*
X132563143Y-54447332D01*
X132563139Y-54447338D01*
X132473754Y-54602155D01*
X132473748Y-54602169D01*
X132418504Y-54772191D01*
X132418503Y-54772195D01*
X132418503Y-54772197D01*
X132399815Y-54950000D01*
X132110185Y-54950000D01*
X132091497Y-54772197D01*
X132036250Y-54602165D01*
X132036247Y-54602160D01*
X132036245Y-54602155D01*
X131990322Y-54522615D01*
X131946859Y-54447335D01*
X131885338Y-54379009D01*
X131827234Y-54314478D01*
X131827228Y-54314472D01*
X131682597Y-54209390D01*
X131682587Y-54209384D01*
X131519273Y-54136673D01*
X131519268Y-54136671D01*
X131519267Y-54136671D01*
X131519264Y-54136670D01*
X131519263Y-54136670D01*
X131486001Y-54129600D01*
X131344391Y-54099500D01*
X131165609Y-54099500D01*
X131054099Y-54123202D01*
X130990736Y-54136670D01*
X130990730Y-54136672D01*
X130827414Y-54209384D01*
X130827411Y-54209386D01*
X130827408Y-54209387D01*
X130827408Y-54209388D01*
X130810371Y-54221766D01*
X130682765Y-54314477D01*
X130682765Y-54314478D01*
X130563143Y-54447332D01*
X130563139Y-54447338D01*
X130473754Y-54602155D01*
X130473748Y-54602169D01*
X130418504Y-54772191D01*
X130418503Y-54772195D01*
X130418503Y-54772197D01*
X130399815Y-54950000D01*
X78109416Y-54950000D01*
X78179578Y-54846760D01*
X78183228Y-54841737D01*
X78237174Y-54772191D01*
X78538440Y-54383799D01*
X78542404Y-54379009D01*
X78681030Y-54221769D01*
X78925683Y-53944264D01*
X78929910Y-53939762D01*
X79339762Y-53529910D01*
X79344264Y-53525683D01*
X79779010Y-53142403D01*
X79783801Y-53138440D01*
X80241745Y-52783222D01*
X80246760Y-52779578D01*
X80726133Y-52453796D01*
X80731344Y-52450489D01*
X81108690Y-52227328D01*
X110500000Y-52227328D01*
X110500000Y-52651199D01*
X110500001Y-52651200D01*
X110950000Y-52651200D01*
X110950000Y-53151200D01*
X110500001Y-53151200D01*
X110500000Y-53151201D01*
X110500000Y-53575071D01*
X110528821Y-53719964D01*
X110528823Y-53719970D01*
X110585358Y-53856457D01*
X110667434Y-53979293D01*
X110771906Y-54083765D01*
X110894744Y-54165842D01*
X110999999Y-54209440D01*
X111000000Y-54209439D01*
X111000000Y-53668188D01*
X111009940Y-53685405D01*
X111065795Y-53741260D01*
X111134204Y-53780756D01*
X111210504Y-53801200D01*
X111289496Y-53801200D01*
X111365796Y-53780756D01*
X111434205Y-53741260D01*
X111490060Y-53685405D01*
X111500000Y-53668188D01*
X111500000Y-54209440D01*
X111605255Y-54165842D01*
X111728093Y-54083765D01*
X111832565Y-53979293D01*
X111914641Y-53856457D01*
X111971176Y-53719970D01*
X111971178Y-53719964D01*
X111999999Y-53575071D01*
X112000000Y-53575067D01*
X112000000Y-53151201D01*
X111999999Y-53151200D01*
X111550000Y-53151200D01*
X111550000Y-52651200D01*
X111999999Y-52651200D01*
X112000000Y-52651199D01*
X112000000Y-52227332D01*
X111999999Y-52227328D01*
X119140000Y-52227328D01*
X119140000Y-52651199D01*
X119140001Y-52651200D01*
X119590000Y-52651200D01*
X119590000Y-53151200D01*
X119140001Y-53151200D01*
X119140000Y-53151201D01*
X119140000Y-53575071D01*
X119168821Y-53719964D01*
X119168823Y-53719970D01*
X119225358Y-53856457D01*
X119307434Y-53979293D01*
X119411906Y-54083765D01*
X119534744Y-54165842D01*
X119639999Y-54209440D01*
X119640000Y-54209439D01*
X119640000Y-53668188D01*
X119649940Y-53685405D01*
X119705795Y-53741260D01*
X119774204Y-53780756D01*
X119850504Y-53801200D01*
X119929496Y-53801200D01*
X120005796Y-53780756D01*
X120074205Y-53741260D01*
X120130060Y-53685405D01*
X120140000Y-53668188D01*
X120140000Y-54209440D01*
X120245255Y-54165842D01*
X120368093Y-54083765D01*
X120472565Y-53979293D01*
X120554641Y-53856457D01*
X120611176Y-53719970D01*
X120611178Y-53719964D01*
X120639999Y-53575071D01*
X120640000Y-53575067D01*
X120640000Y-53151201D01*
X120639999Y-53151200D01*
X120190000Y-53151200D01*
X120190000Y-52651200D01*
X120639999Y-52651200D01*
X120640000Y-52651199D01*
X120640000Y-52227332D01*
X120639999Y-52227328D01*
X120611178Y-52082435D01*
X120611176Y-52082429D01*
X120554641Y-51945942D01*
X120472565Y-51823106D01*
X120368090Y-51718631D01*
X120245270Y-51636565D01*
X120245256Y-51636558D01*
X120140000Y-51592958D01*
X120140000Y-52134211D01*
X120130060Y-52116995D01*
X120074205Y-52061140D01*
X120005796Y-52021644D01*
X119929496Y-52001200D01*
X119850504Y-52001200D01*
X119774204Y-52021644D01*
X119705795Y-52061140D01*
X119649940Y-52116995D01*
X119640000Y-52134211D01*
X119640000Y-51592959D01*
X119639999Y-51592958D01*
X119534743Y-51636558D01*
X119534729Y-51636565D01*
X119411909Y-51718631D01*
X119307434Y-51823106D01*
X119225358Y-51945942D01*
X119168823Y-52082429D01*
X119168821Y-52082435D01*
X119140000Y-52227328D01*
X111999999Y-52227328D01*
X111971178Y-52082435D01*
X111971176Y-52082429D01*
X111914641Y-51945942D01*
X111832565Y-51823106D01*
X111728090Y-51718631D01*
X111605270Y-51636565D01*
X111605256Y-51636558D01*
X111500000Y-51592958D01*
X111500000Y-52134211D01*
X111490060Y-52116995D01*
X111434205Y-52061140D01*
X111365796Y-52021644D01*
X111289496Y-52001200D01*
X111210504Y-52001200D01*
X111134204Y-52021644D01*
X111065795Y-52061140D01*
X111009940Y-52116995D01*
X111000000Y-52134211D01*
X111000000Y-51592959D01*
X110999999Y-51592958D01*
X110894743Y-51636558D01*
X110894729Y-51636565D01*
X110771909Y-51718631D01*
X110667434Y-51823106D01*
X110585358Y-51945942D01*
X110528823Y-52082429D01*
X110528821Y-52082435D01*
X110500000Y-52227328D01*
X81108690Y-52227328D01*
X81230229Y-52155450D01*
X81235619Y-52152486D01*
X81752057Y-51889347D01*
X81757663Y-51886709D01*
X82289603Y-51656519D01*
X82295331Y-51654251D01*
X82840656Y-51457923D01*
X82846542Y-51456010D01*
X83403114Y-51294310D01*
X83409107Y-51292771D01*
X83974747Y-51166337D01*
X83980825Y-51165177D01*
X84553252Y-51074513D01*
X84559414Y-51073734D01*
X85136422Y-51019191D01*
X85142625Y-51018802D01*
X85723441Y-51000549D01*
X85726551Y-51000500D01*
X85764882Y-51000500D01*
X145375118Y-51000500D01*
X145413449Y-51000500D01*
X145416559Y-51000549D01*
G37*
%TD.AperFunction*%
%TD*%
M02*
