M48
; DRILL file {KiCad 8.0.6} date 2024-12-18T16:17:09-0800
; FORMAT={-:-/ absolute / inch / decimal}
; #@! TF.CreationDate,2024-12-18T16:17:09-08:00
; #@! TF.GenerationSoftware,Kicad,Pcbnew,8.0.6
; #@! TF.FileFunction,MixedPlating,1,4
FMAT,2
INCH
; #@! TA.AperFunction,Plated,PTH,ViaDrill
T1C0.0118
; #@! TA.AperFunction,Plated,PTH,ComponentDrill
T2C0.0236
; #@! TA.AperFunction,Plated,PTH,ComponentDrill
T3C0.0315
; #@! TA.AperFunction,Plated,PTH,ComponentDrill
T4C0.0394
; #@! TA.AperFunction,Plated,PTH,ComponentDrill
T5C0.0472
; #@! TA.AperFunction,NonPlated,NPTH,ComponentDrill
T6C0.0866
%
G90
G05
T1
X3.395Y-2.535
X3.4Y-3.89
X3.4Y-3.97
X3.4Y-4.09
X3.4Y-4.17
X3.435Y-2.535
X3.46Y-3.89
X3.46Y-4.17
X3.49Y-3.89
X3.49Y-4.17
X3.575Y-2.385
X3.575Y-2.42
X3.575Y-2.47
X3.575Y-2.535
X3.71Y-4.12
X3.71Y-4.16
X3.75Y-3.94
X3.75Y-4.02
X3.75Y-4.14
X3.75Y-4.22
X3.81Y-3.94
X3.81Y-4.22
X3.84Y-3.94
X3.84Y-4.22
X4.06Y-4.17
X4.06Y-4.21
X4.1Y-3.99
X4.1Y-4.07
X4.1Y-4.19
X4.1Y-4.27
X4.16Y-3.99
X4.16Y-4.27
X4.19Y-3.99
X4.19Y-4.27
X4.355Y-2.32
X4.355Y-2.35
X4.385Y-2.32
X4.385Y-2.35
X4.41Y-4.22
X4.41Y-4.26
X4.415Y-2.32
X4.415Y-2.35
X4.455Y-2.32
X4.455Y-2.35
X4.48Y-2.32
X4.48Y-2.35
X4.5Y-3.99
X4.6Y-4.19
X4.6Y-4.27
X4.62Y-2.32
X4.62Y-2.35
X4.645Y-2.32
X4.645Y-2.35
X4.65Y-2.45
X4.65Y-2.48
X4.66Y-3.99
X4.66Y-4.27
X4.685Y-2.32
X4.685Y-2.35
X4.685Y-2.45
X4.685Y-2.48
X4.69Y-3.99
X4.69Y-4.27
X4.715Y-2.32
X4.715Y-2.35
X4.73Y-2.45
X4.73Y-2.48
X4.745Y-2.32
X4.745Y-2.35
X4.765Y-2.45
X4.765Y-2.48
X4.885Y-2.45
X4.885Y-2.48
X4.91Y-4.22
X4.91Y-4.26
X4.92Y-2.45
X4.92Y-2.48
X4.95Y-3.94
X4.95Y-4.02
X4.95Y-4.14
X4.95Y-4.22
X5.01Y-3.94
X5.01Y-4.22
X5.04Y-3.94
X5.04Y-4.22
X5.26Y-4.17
X5.26Y-4.21
X5.3Y-3.89
X5.3Y-3.97
X5.3Y-4.09
X5.3Y-4.17
X5.36Y-3.89
X5.36Y-4.17
X5.39Y-3.89
X5.39Y-4.17
X5.565Y-3.84
X5.61Y-4.12
X5.61Y-4.16
T3
X5.1675Y-2.1634
X5.1675Y-2.2618
X5.2463Y-2.1634
X5.2463Y-2.2618
X5.325Y-2.1634
X5.325Y-2.2618
X5.4825Y-2.1634
X5.4825Y-2.2618
T4
X3.4996Y-4.74
X3.4996Y-4.84
X3.5996Y-4.74
X3.5996Y-4.84
X3.6996Y-4.74
X3.6996Y-4.84
X3.7996Y-4.74
X3.7996Y-4.84
X4.0996Y-4.74
X4.0996Y-4.84
X4.1996Y-4.74
X4.1996Y-4.84
X4.2996Y-4.74
X4.2996Y-4.84
X4.3996Y-4.74
X4.3996Y-4.84
X4.6996Y-4.74
X4.6996Y-4.84
X4.7996Y-4.74
X4.7996Y-4.84
X4.8996Y-4.74
X4.8996Y-4.84
X4.9996Y-4.74
X4.9996Y-4.84
X5.2996Y-4.74
X5.2996Y-4.84
X5.3996Y-4.74
X5.3996Y-4.84
X5.4996Y-4.74
X5.4996Y-4.84
X5.5996Y-4.74
X5.5996Y-4.84
T5
X5.0848Y-2.2126
X5.5652Y-2.2126
T6
X3.2Y-2.5
X3.2Y-4.5
X5.9Y-2.5
X5.9Y-4.5
T2
G00X4.3799Y-2.1063
M15
G01X4.3799Y-2.0591
M16
G05
G00X4.3799Y-2.256
M15
G01X4.3799Y-2.2245
M16
G05
G00X4.7201Y-2.1063
M15
G01X4.7201Y-2.0591
M16
G05
G00X4.7201Y-2.256
M15
G01X4.7201Y-2.2245
M16
G05
M30
